<?xml version="1.0" standalone="yes"?><svg xmlns="http://www.w3.org/2000/svg" version="1.1" width="225" height="225" viewBox="0 0 225 225" shape-rendering="crispEdges"><rect x="0" y="0" width="225" height="225" fill="#ffffff"/><path fill="#000000" d="M20 20h5v5H20V20M25 20h5v5H25V20M30 20h5v5H30V20M35 20h5v5H35V20M40 20h5v5H40V20M45 20h5v5H45V20M50 20h5v5H50V20M60 20h5v5H60V20M65 20h5v5H65V20M80 20h5v5H80V20M90 20h5v5H90V20M115 20h5v5H115V20M120 20h5v5H120V20M125 20h5v5H125V20M150 20h5v5H150V20M170 20h5v5H170V20M175 20h5v5H175V20M180 20h5v5H180V20M185 20h5v5H185V20M190 20h5v5H190V20M195 20h5v5H195V20M200 20h5v5H200V20M20 25h5v5H20V25M50 25h5v5H50V25M60 25h5v5H60V25M65 25h5v5H65V25M70 25h5v5H70V25M95 25h5v5H95V25M115 25h5v5H115V25M130 25h5v5H130V25M140 25h5v5H140V25M160 25h5v5H160V25M170 25h5v5H170V25M200 25h5v5H200V25M20 30h5v5H20V30M30 30h5v5H30V30M35 30h5v5H35V30M40 30h5v5H40V30M50 30h5v5H50V30M60 30h5v5H60V30M70 30h5v5H70V30M80 30h5v5H80V30M85 30h5v5H85V30M95 30h5v5H95V30M100 30h5v5H100V30M110 30h5v5H110V30M115 30h5v5H115V30M125 30h5v5H125V30M145 30h5v5H145V30M150 30h5v5H150V30M170 30h5v5H170V30M180 30h5v5H180V30M185 30h5v5H185V30M190 30h5v5H190V30M200 30h5v5H200V30M20 35h5v5H20V35M30 35h5v5H30V35M35 35h5v5H35V35M40 35h5v5H40V35M50 35h5v5H50V35M65 35h5v5H65V35M70 35h5v5H70V35M95 35h5v5H95V35M105 35h5v5H105V35M120 35h5v5H120V35M125 35h5v5H125V35M140 35h5v5H140V35M145 35h5v5H145V35M155 35h5v5H155V35M160 35h5v5H160V35M170 35h5v5H170V35M180 35h5v5H180V35M185 35h5v5H185V35M190 35h5v5H190V35M200 35h5v5H200V35M20 40h5v5H20V40M30 40h5v5H30V40M35 40h5v5H35V40M40 40h5v5H40V40M50 40h5v5H50V40M60 40h5v5H60V40M70 40h5v5H70V40M80 40h5v5H80V40M90 40h5v5H90V40M110 40h5v5H110V40M115 40h5v5H115V40M125 40h5v5H125V40M130 40h5v5H130V40M150 40h5v5H150V40M160 40h5v5H160V40M170 40h5v5H170V40M180 40h5v5H180V40M185 40h5v5H185V40M190 40h5v5H190V40M200 40h5v5H200V40M20 45h5v5H20V45M50 45h5v5H50V45M65 45h5v5H65V45M70 45h5v5H70V45M95 45h5v5H95V45M100 45h5v5H100V45M120 45h5v5H120V45M125 45h5v5H125V45M130 45h5v5H130V45M135 45h5v5H135V45M140 45h5v5H140V45M145 45h5v5H145V45M160 45h5v5H160V45M170 45h5v5H170V45M200 45h5v5H200V45M20 50h5v5H20V50M25 50h5v5H25V50M30 50h5v5H30V50M35 50h5v5H35V50M40 50h5v5H40V50M45 50h5v5H45V50M50 50h5v5H50V50M60 50h5v5H60V50M70 50h5v5H70V50M80 50h5v5H80V50M90 50h5v5H90V50M100 50h5v5H100V50M110 50h5v5H110V50M120 50h5v5H120V50M130 50h5v5H130V50M140 50h5v5H140V50M150 50h5v5H150V50M160 50h5v5H160V50M170 50h5v5H170V50M175 50h5v5H175V50M180 50h5v5H180V50M185 50h5v5H185V50M190 50h5v5H190V50M195 50h5v5H195V50M200 50h5v5H200V50M65 55h5v5H65V55M85 55h5v5H85V55M90 55h5v5H90V55M105 55h5v5H105V55M110 55h5v5H110V55M115 55h5v5H115V55M120 55h5v5H120V55M130 55h5v5H130V55M145 55h5v5H145V55M160 55h5v5H160V55M20 60h5v5H20V60M35 60h5v5H35V60M40 60h5v5H40V60M45 60h5v5H45V60M50 60h5v5H50V60M55 60h5v5H55V60M60 60h5v5H60V60M65 60h5v5H65V60M70 60h5v5H70V60M75 60h5v5H75V60M80 60h5v5H80V60M85 60h5v5H85V60M140 60h5v5H140V60M150 60h5v5H150V60M155 60h5v5H155V60M160 60h5v5H160V60M165 60h5v5H165V60M180 60h5v5H180V60M190 60h5v5H190V60M195 60h5v5H195V60M200 60h5v5H200V60M25 65h5v5H25V65M35 65h5v5H35V65M40 65h5v5H40V65M55 65h5v5H55V65M60 65h5v5H60V65M85 65h5v5H85V65M90 65h5v5H90V65M100 65h5v5H100V65M105 65h5v5H105V65M110 65h5v5H110V65M130 65h5v5H130V65M135 65h5v5H135V65M145 65h5v5H145V65M150 65h5v5H150V65M155 65h5v5H155V65M160 65h5v5H160V65M175 65h5v5H175V65M180 65h5v5H180V65M185 65h5v5H185V65M195 65h5v5H195V65M20 70h5v5H20V70M25 70h5v5H25V70M40 70h5v5H40V70M45 70h5v5H45V70M50 70h5v5H50V70M60 70h5v5H60V70M65 70h5v5H65V70M70 70h5v5H70V70M85 70h5v5H85V70M95 70h5v5H95V70M100 70h5v5H100V70M105 70h5v5H105V70M110 70h5v5H110V70M115 70h5v5H115V70M120 70h5v5H120V70M135 70h5v5H135V70M140 70h5v5H140V70M155 70h5v5H155V70M160 70h5v5H160V70M165 70h5v5H165V70M170 70h5v5H170V70M180 70h5v5H180V70M190 70h5v5H190V70M200 70h5v5H200V70M20 75h5v5H20V75M30 75h5v5H30V75M35 75h5v5H35V75M40 75h5v5H40V75M45 75h5v5H45V75M55 75h5v5H55V75M85 75h5v5H85V75M90 75h5v5H90V75M100 75h5v5H100V75M105 75h5v5H105V75M115 75h5v5H115V75M120 75h5v5H120V75M130 75h5v5H130V75M150 75h5v5H150V75M155 75h5v5H155V75M175 75h5v5H175V75M185 75h5v5H185V75M190 75h5v5H190V75M195 75h5v5H195V75M200 75h5v5H200V75M20 80h5v5H20V80M30 80h5v5H30V80M45 80h5v5H45V80M50 80h5v5H50V80M70 80h5v5H70V80M75 80h5v5H75V80M80 80h5v5H80V80M95 80h5v5H95V80M100 80h5v5H100V80M120 80h5v5H120V80M160 80h5v5H160V80M170 80h5v5H170V80M175 80h5v5H175V80M200 80h5v5H200V80M40 85h5v5H40V85M80 85h5v5H80V85M95 85h5v5H95V85M100 85h5v5H100V85M135 85h5v5H135V85M145 85h5v5H145V85M150 85h5v5H150V85M155 85h5v5H155V85M160 85h5v5H160V85M165 85h5v5H165V85M180 85h5v5H180V85M185 85h5v5H185V85M20 90h5v5H20V90M25 90h5v5H25V90M50 90h5v5H50V90M55 90h5v5H55V90M60 90h5v5H60V90M65 90h5v5H65V90M90 90h5v5H90V90M95 90h5v5H95V90M110 90h5v5H110V90M115 90h5v5H115V90M130 90h5v5H130V90M140 90h5v5H140V90M145 90h5v5H145V90M150 90h5v5H150V90M155 90h5v5H155V90M180 90h5v5H180V90M185 90h5v5H185V90M190 90h5v5H190V90M195 90h5v5H195V90M200 90h5v5H200V90M20 95h5v5H20V95M25 95h5v5H25V95M30 95h5v5H30V95M45 95h5v5H45V95M55 95h5v5H55V95M60 95h5v5H60V95M70 95h5v5H70V95M85 95h5v5H85V95M90 95h5v5H90V95M100 95h5v5H100V95M115 95h5v5H115V95M120 95h5v5H120V95M135 95h5v5H135V95M150 95h5v5H150V95M170 95h5v5H170V95M175 95h5v5H175V95M185 95h5v5H185V95M190 95h5v5H190V95M195 95h5v5H195V95M20 100h5v5H20V100M45 100h5v5H45V100M50 100h5v5H50V100M65 100h5v5H65V100M70 100h5v5H70V100M80 100h5v5H80V100M95 100h5v5H95V100M105 100h5v5H105V100M110 100h5v5H110V100M130 100h5v5H130V100M140 100h5v5H140V100M145 100h5v5H145V100M170 100h5v5H170V100M175 100h5v5H175V100M190 100h5v5H190V100M200 100h5v5H200V100M20 105h5v5H20V105M35 105h5v5H35V105M40 105h5v5H40V105M45 105h5v5H45V105M55 105h5v5H55V105M65 105h5v5H65V105M70 105h5v5H70V105M85 105h5v5H85V105M105 105h5v5H105V105M125 105h5v5H125V105M130 105h5v5H130V105M155 105h5v5H155V105M175 105h5v5H175V105M190 105h5v5H190V105M20 110h5v5H20V110M25 110h5v5H25V110M30 110h5v5H30V110M40 110h5v5H40V110M50 110h5v5H50V110M60 110h5v5H60V110M65 110h5v5H65V110M70 110h5v5H70V110M75 110h5v5H75V110M100 110h5v5H100V110M105 110h5v5H105V110M115 110h5v5H115V110M135 110h5v5H135V110M145 110h5v5H145V110M150 110h5v5H150V110M155 110h5v5H155V110M165 110h5v5H165V110M170 110h5v5H170V110M180 110h5v5H180V110M185 110h5v5H185V110M200 110h5v5H200V110M25 115h5v5H25V115M40 115h5v5H40V115M55 115h5v5H55V115M60 115h5v5H60V115M70 115h5v5H70V115M80 115h5v5H80V115M90 115h5v5H90V115M95 115h5v5H95V115M100 115h5v5H100V115M110 115h5v5H110V115M115 115h5v5H115V115M120 115h5v5H120V115M130 115h5v5H130V115M140 115h5v5H140V115M145 115h5v5H145V115M175 115h5v5H175V115M185 115h5v5H185V115M200 115h5v5H200V115M20 120h5v5H20V120M25 120h5v5H25V120M30 120h5v5H30V120M35 120h5v5H35V120M45 120h5v5H45V120M50 120h5v5H50V120M70 120h5v5H70V120M75 120h5v5H75V120M80 120h5v5H80V120M85 120h5v5H85V120M100 120h5v5H100V120M105 120h5v5H105V120M115 120h5v5H115V120M140 120h5v5H140V120M150 120h5v5H150V120M160 120h5v5H160V120M165 120h5v5H165V120M170 120h5v5H170V120M175 120h5v5H175V120M180 120h5v5H180V120M185 120h5v5H185V120M20 125h5v5H20V125M25 125h5v5H25V125M30 125h5v5H30V125M35 125h5v5H35V125M40 125h5v5H40V125M55 125h5v5H55V125M70 125h5v5H70V125M75 125h5v5H75V125M80 125h5v5H80V125M95 125h5v5H95V125M105 125h5v5H105V125M115 125h5v5H115V125M135 125h5v5H135V125M145 125h5v5H145V125M150 125h5v5H150V125M155 125h5v5H155V125M160 125h5v5H160V125M180 125h5v5H180V125M190 125h5v5H190V125M195 125h5v5H195V125M20 130h5v5H20V130M25 130h5v5H25V130M35 130h5v5H35V130M50 130h5v5H50V130M55 130h5v5H55V130M65 130h5v5H65V130M70 130h5v5H70V130M80 130h5v5H80V130M85 130h5v5H85V130M95 130h5v5H95V130M125 130h5v5H125V130M135 130h5v5H135V130M150 130h5v5H150V130M155 130h5v5H155V130M160 130h5v5H160V130M170 130h5v5H170V130M175 130h5v5H175V130M185 130h5v5H185V130M200 130h5v5H200V130M25 135h5v5H25V135M35 135h5v5H35V135M45 135h5v5H45V135M60 135h5v5H60V135M65 135h5v5H65V135M70 135h5v5H70V135M75 135h5v5H75V135M80 135h5v5H80V135M95 135h5v5H95V135M100 135h5v5H100V135M110 135h5v5H110V135M135 135h5v5H135V135M140 135h5v5H140V135M150 135h5v5H150V135M155 135h5v5H155V135M160 135h5v5H160V135M170 135h5v5H170V135M175 135h5v5H175V135M180 135h5v5H180V135M185 135h5v5H185V135M190 135h5v5H190V135M200 135h5v5H200V135M45 140h5v5H45V140M50 140h5v5H50V140M55 140h5v5H55V140M65 140h5v5H65V140M80 140h5v5H80V140M85 140h5v5H85V140M95 140h5v5H95V140M105 140h5v5H105V140M115 140h5v5H115V140M120 140h5v5H120V140M140 140h5v5H140V140M155 140h5v5H155V140M160 140h5v5H160V140M170 140h5v5H170V140M175 140h5v5H175V140M200 140h5v5H200V140M20 145h5v5H20V145M25 145h5v5H25V145M30 145h5v5H30V145M35 145h5v5H35V145M60 145h5v5H60V145M65 145h5v5H65V145M70 145h5v5H70V145M75 145h5v5H75V145M85 145h5v5H85V145M105 145h5v5H105V145M110 145h5v5H110V145M115 145h5v5H115V145M130 145h5v5H130V145M135 145h5v5H135V145M150 145h5v5H150V145M155 145h5v5H155V145M160 145h5v5H160V145M180 145h5v5H180V145M190 145h5v5H190V145M20 150h5v5H20V150M25 150h5v5H25V150M30 150h5v5H30V150M35 150h5v5H35V150M50 150h5v5H50V150M65 150h5v5H65V150M70 150h5v5H70V150M75 150h5v5H75V150M80 150h5v5H80V150M85 150h5v5H85V150M95 150h5v5H95V150M110 150h5v5H110V150M125 150h5v5H125V150M130 150h5v5H130V150M140 150h5v5H140V150M145 150h5v5H145V150M155 150h5v5H155V150M160 150h5v5H160V150M165 150h5v5H165V150M180 150h5v5H180V150M195 150h5v5H195V150M200 150h5v5H200V150M20 155h5v5H20V155M30 155h5v5H30V155M35 155h5v5H35V155M40 155h5v5H40V155M65 155h5v5H65V155M70 155h5v5H70V155M75 155h5v5H75V155M80 155h5v5H80V155M90 155h5v5H90V155M100 155h5v5H100V155M115 155h5v5H115V155M130 155h5v5H130V155M155 155h5v5H155V155M165 155h5v5H165V155M175 155h5v5H175V155M180 155h5v5H180V155M190 155h5v5H190V155M200 155h5v5H200V155M20 160h5v5H20V160M30 160h5v5H30V160M40 160h5v5H40V160M45 160h5v5H45V160M50 160h5v5H50V160M65 160h5v5H65V160M70 160h5v5H70V160M80 160h5v5H80V160M85 160h5v5H85V160M95 160h5v5H95V160M100 160h5v5H100V160M110 160h5v5H110V160M115 160h5v5H115V160M120 160h5v5H120V160M130 160h5v5H130V160M140 160h5v5H140V160M145 160h5v5H145V160M160 160h5v5H160V160M165 160h5v5H165V160M170 160h5v5H170V160M175 160h5v5H175V160M180 160h5v5H180V160M185 160h5v5H185V160M190 160h5v5H190V160M195 160h5v5H195V160M60 165h5v5H60V165M70 165h5v5H70V165M85 165h5v5H85V165M90 165h5v5H90V165M95 165h5v5H95V165M105 165h5v5H105V165M110 165h5v5H110V165M115 165h5v5H115V165M120 165h5v5H120V165M130 165h5v5H130V165M155 165h5v5H155V165M160 165h5v5H160V165M180 165h5v5H180V165M190 165h5v5H190V165M195 165h5v5H195V165M20 170h5v5H20V170M25 170h5v5H25V170M30 170h5v5H30V170M35 170h5v5H35V170M40 170h5v5H40V170M45 170h5v5H45V170M50 170h5v5H50V170M60 170h5v5H60V170M65 170h5v5H65V170M70 170h5v5H70V170M75 170h5v5H75V170M80 170h5v5H80V170M85 170h5v5H85V170M95 170h5v5H95V170M100 170h5v5H100V170M105 170h5v5H105V170M110 170h5v5H110V170M115 170h5v5H115V170M120 170h5v5H120V170M125 170h5v5H125V170M130 170h5v5H130V170M135 170h5v5H135V170M160 170h5v5H160V170M170 170h5v5H170V170M180 170h5v5H180V170M200 170h5v5H200V170M20 175h5v5H20V175M50 175h5v5H50V175M60 175h5v5H60V175M65 175h5v5H65V175M70 175h5v5H70V175M80 175h5v5H80V175M95 175h5v5H95V175M100 175h5v5H100V175M120 175h5v5H120V175M145 175h5v5H145V175M150 175h5v5H150V175M155 175h5v5H155V175M160 175h5v5H160V175M180 175h5v5H180V175M195 175h5v5H195V175M200 175h5v5H200V175M20 180h5v5H20V180M30 180h5v5H30V180M35 180h5v5H35V180M40 180h5v5H40V180M50 180h5v5H50V180M60 180h5v5H60V180M70 180h5v5H70V180M75 180h5v5H75V180M90 180h5v5H90V180M95 180h5v5H95V180M100 180h5v5H100V180M110 180h5v5H110V180M115 180h5v5H115V180M135 180h5v5H135V180M140 180h5v5H140V180M155 180h5v5H155V180M160 180h5v5H160V180M165 180h5v5H165V180M170 180h5v5H170V180M175 180h5v5H175V180M180 180h5v5H180V180M195 180h5v5H195V180M20 185h5v5H20V185M30 185h5v5H30V185M35 185h5v5H35V185M40 185h5v5H40V185M50 185h5v5H50V185M60 185h5v5H60V185M70 185h5v5H70V185M85 185h5v5H85V185M90 185h5v5H90V185M105 185h5v5H105V185M120 185h5v5H120V185M130 185h5v5H130V185M135 185h5v5H135V185M145 185h5v5H145V185M150 185h5v5H150V185M155 185h5v5H155V185M165 185h5v5H165V185M170 185h5v5H170V185M185 185h5v5H185V185M200 185h5v5H200V185M20 190h5v5H20V190M30 190h5v5H30V190M35 190h5v5H35V190M40 190h5v5H40V190M50 190h5v5H50V190M65 190h5v5H65V190M70 190h5v5H70V190M85 190h5v5H85V190M105 190h5v5H105V190M125 190h5v5H125V190M130 190h5v5H130V190M135 190h5v5H135V190M145 190h5v5H145V190M155 190h5v5H155V190M180 190h5v5H180V190M185 190h5v5H185V190M190 190h5v5H190V190M200 190h5v5H200V190M20 195h5v5H20V195M50 195h5v5H50V195M65 195h5v5H65V195M70 195h5v5H70V195M75 195h5v5H75V195M90 195h5v5H90V195M95 195h5v5H95V195M105 195h5v5H105V195M120 195h5v5H120V195M135 195h5v5H135V195M165 195h5v5H165V195M170 195h5v5H170V195M180 195h5v5H180V195M185 195h5v5H185V195M190 195h5v5H190V195M195 195h5v5H195V195M200 195h5v5H200V195M20 200h5v5H20V200M25 200h5v5H25V200M30 200h5v5H30V200M35 200h5v5H35V200M40 200h5v5H40V200M45 200h5v5H45V200M50 200h5v5H50V200M60 200h5v5H60V200M65 200h5v5H65V200M70 200h5v5H70V200M100 200h5v5H100V200M115 200h5v5H115V200M140 200h5v5H140V200M150 200h5v5H150V200M155 200h5v5H155V200M160 200h5v5H160V200M165 200h5v5H165V200M175 200h5v5H175V200M185 200h5v5H185V200M200 200h5v5H200V200"/></svg>