<?xml version="1.0" encoding="UTF-8"?>
<svg version="1.1" xmlns="http://www.w3.org/2000/svg" width="300" height="200">
<path d="M0 0 C1.265625 1.77734375 1.265625 1.77734375 2.25 3.9375 C2.58515625 4.64777344 2.9203125 5.35804687 3.265625 6.08984375 C4 8 4 8 4 10 C6.883975 10.21790719 6.883975 10.21790719 10 9 C11.27952812 6.7325369 12.12488209 4.50035487 12.9453125 2.03125 C14 0 14 0 15.8203125 -0.87109375 C18.4715527 -1.02788752 20.26288959 -0.47687883 22.75 0.4375 C23.54921875 0.72496094 24.3484375 1.01242188 25.171875 1.30859375 C25.77515625 1.53675781 26.3784375 1.76492187 27 2 C26.94199219 2.81984375 26.88398438 3.6396875 26.82421875 4.484375 C26.26994619 11.21798432 26.26994619 11.21798432 29.5 16.75 C30.7375 17.36875 30.7375 17.36875 32 18 C31.505 19.485 31.505 19.485 31 21 C26.82380396 20.52543227 23.9717978 20.07607141 21 17 C20.828125 14.08203125 20.828125 14.08203125 21.25 10.8125 C21.37890625 9.72582031 21.5078125 8.63914062 21.640625 7.51953125 C21.81851563 6.27236328 21.81851563 6.27236328 22 5 C20.35 5 18.7 5 17 5 C16.79503906 5.63808594 16.59007812 6.27617188 16.37890625 6.93359375 C16.10949219 7.75988281 15.84007812 8.58617187 15.5625 9.4375 C15.29566406 10.26121094 15.02882812 11.08492187 14.75390625 11.93359375 C14 14 14 14 13 15 C11.189715 15.09879565 9.37547273 15.12971514 7.5625 15.125 C6.57378906 15.12757812 5.58507812 15.13015625 4.56640625 15.1328125 C2 15 2 15 0 14 C-1.0703125 11.93359375 -1.0703125 11.93359375 -2.125 9.4375 C-2.47820312 8.61121094 -2.83140625 7.78492188 -3.1953125 6.93359375 C-3.59363281 5.97646484 -3.59363281 5.97646484 -4 5 C-4.99 5.33 -5.98 5.66 -7 6 C-7 9.96 -7 13.92 -7 18 C-12.93939394 22 -12.93939394 22 -17.625 22 C-21.24296935 20.92800908 -23.26880784 19.56566536 -26 17 C-26.66 18.32 -27.32 19.64 -28 21 C-27.154375 21.886875 -26.30875 22.77375 -25.4375 23.6875 C-23 26.63597734 -23 26.63597734 -23 29.5 C-23.33 30.325 -23.66 31.15 -24 32 C-24.391875 33.0725 -24.78375 34.145 -25.1875 35.25 C-27 38 -27 38 -29.75 38.9375 C-33.27864979 39.00535865 -36.52993878 38.62461102 -40 38 C-40.495 40.475 -40.495 40.475 -41 43 C-40.0925 43.12375 -39.185 43.2475 -38.25 43.375 C-35 44 -35 44 -31 46 C-31 50.29 -31 54.58 -31 59 C-33.97 60.32 -36.94 61.64 -40 63 C-40 64.65 -40 66.3 -40 68 C-38.515 67.505 -38.515 67.505 -37 67 C-33.86033999 66.42968723 -31.11661574 66.23719195 -28 67 C-25.49520863 69.32426587 -24.14142311 71.79684405 -23 75 C-22.9147899 78.66403444 -23.81067871 79.76613253 -26.125 82.625 C-27.053125 83.800625 -27.053125 83.800625 -28 85 C-27.67 85.99 -27.34 86.98 -27 88 C-23.37811487 86.77801175 -23.37811487 86.77801175 -20.5625 84.3125 C-19 83 -19 83 -16.1875 83.0625 C-12.30033335 84.20578431 -9.95593443 85.18482435 -7 88 C-6.19711598 92.22852252 -6.64836972 95.94510917 -8 100 C-6.35 100.33 -4.7 100.66 -3 101 C-2.79503906 100.36191406 -2.59007812 99.72382813 -2.37890625 99.06640625 C-2.10949219 98.24011719 -1.84007812 97.41382813 -1.5625 96.5625 C-1.29566406 95.73878906 -1.02882812 94.91507812 -0.75390625 94.06640625 C0 92 0 92 1 91 C3.18639453 90.92741054 5.37500389 90.91626217 7.5625 90.9375 C9.35880859 90.95103516 9.35880859 90.95103516 11.19140625 90.96484375 C12.58166016 90.98224609 12.58166016 90.98224609 14 91 C17 97.625 17 97.625 17 101 C18.65 100.67 20.3 100.34 22 100 C21.83951172 98.86111328 21.83951172 98.86111328 21.67578125 97.69921875 C21.55589844 96.70535156 21.43601562 95.71148437 21.3125 94.6875 C21.18488281 93.70136719 21.05726563 92.71523437 20.92578125 91.69921875 C21 89 21 89 22.359375 87.22265625 C24.22158364 85.83486743 25.80944348 84.79656601 28 84 C30.25 84.375 30.25 84.375 32 85 C31.75 86.875 31.75 86.875 31 89 C29.02 89.99 29.02 89.99 27 91 C27 94.96 27 98.92 27 103 C18.82075472 106.8490566 18.82075472 106.8490566 15 106 C13.06413003 103.49053892 12.08411409 101.28469386 11.1875 98.25 C10.795625 97.5075 10.40375 96.765 10 96 C6.94727535 95.10169161 6.94727535 95.10169161 4 95 C3.79503906 95.71027344 3.59007812 96.42054688 3.37890625 97.15234375 C3.10949219 98.07144531 2.84007812 98.99054688 2.5625 99.9375 C2.29566406 100.85402344 2.02882812 101.77054687 1.75390625 102.71484375 C1 105 1 105 0 106 C-1.9609375 105.9140625 -1.9609375 105.9140625 -4.375 105.625 C-5.16648438 105.53476563 -5.95796875 105.44453125 -6.7734375 105.3515625 C-9 105 -9 105 -12 104 C-12.92844389 99.66726186 -12.92844389 96.33273814 -12 92 C-13.65 91.01 -15.3 90.02 -17 89 C-17.77923828 89.68449219 -17.77923828 89.68449219 -18.57421875 90.3828125 C-24.25855121 95.06897198 -24.25855121 95.06897198 -27.6875 94.75 C-30.69470991 92.47427358 -32.71527012 90.00278784 -35 87 C-33.54955729 82.89041233 -31.48889248 79.56741255 -29 76 C-30.14635775 73.88157728 -30.14635775 73.88157728 -32 72 C-34.46110013 71.77070283 -34.46110013 71.77070283 -37.0625 72.3125 C-41.84427141 73.07786429 -41.84427141 73.07786429 -44 72 C-45.72718916 67.87393702 -46.2120464 64.45297431 -46 60 C-44.73308493 59.32591692 -43.46129251 58.66099503 -42.1875 58 C-41.47980469 57.62875 -40.77210937 57.2575 -40.04296875 56.875 C-38 56 -38 56 -35 56 C-34.78209281 53.116025 -34.78209281 53.116025 -36 50 C-38.25355769 48.61153163 -40.49251268 47.69030775 -42.96875 46.76171875 C-45 46 -45 46 -46 45 C-45.94921875 43.0390625 -45.94921875 43.0390625 -45.6875 40.625 C-45.60886719 39.83351562 -45.53023438 39.04203125 -45.44921875 38.2265625 C-45 36 -45 36 -43 33 C-40.1796875 32.70703125 -40.1796875 32.70703125 -36.875 32.8125 C-35.23144531 32.85310547 -35.23144531 32.85310547 -33.5546875 32.89453125 C-32.71164063 32.92933594 -31.86859375 32.96414062 -31 33 C-30.04632548 30.29409604 -30.04632548 30.29409604 -30 27 C-31.05926272 25.35404909 -31.05926272 25.35404909 -32.5 23.875 C-33.7375 22.451875 -33.7375 22.451875 -35 21 C-34.64346076 16.99883743 -32.49476832 14.80471528 -29.6796875 12.14453125 C-28 11 -28 11 -24.9375 10.875 C-22 12 -22 12 -19.4375 14.125 C-18.633125 14.74375 -17.82875 15.3625 -17 16 C-15.35 15.67 -13.7 15.34 -12 15 C-12.495 9.06 -12.495 9.06 -13 3 C-4.91211401 -1.85273159 -4.91211401 -1.85273159 0 0 Z " fill="#3D4173" transform="translate(113,45)"/>
<path d="M0 0 C31.81433054 0 31.81433054 0 40.2734375 8.0546875 C45.45874901 13.89696155 47.08427037 20.27120323 47 28 C46.4409886 35.06495256 43.65927911 40.69130809 39 46 C27.86659261 55.45419512 14.13948496 53 0 53 C0 35.51 0 18.02 0 0 Z M12 11 C12 21.23 12 31.46 12 42 C22.13525819 42.22906502 22.13525819 42.22906502 30.57421875 37.5703125 C33.57730476 34.11117045 34.86666741 31.35999238 35.3125 26.8125 C34.92583961 22.09524326 33.88761205 18.7710741 31 15 C25.13708991 10.07515552 19.77250834 11 12 11 Z " fill="#0088C1" transform="translate(151,71)"/>
<path d="M0 0 C5.79793558 3.36813634 9.8698416 8.06040805 12.29296875 14.33203125 C12.29296875 15.32203125 12.29296875 16.31203125 12.29296875 17.33203125 C8.25460859 17.61776428 4.32316087 17.77562287 0.29296875 17.33203125 C-2.01953125 15.01953125 -2.01953125 15.01953125 -3.70703125 12.33203125 C-8.47243144 9.52885467 -12.19889818 8.84995234 -17.55859375 9.69140625 C-21.97866669 11.00939164 -24.67407918 13.64174604 -27.08203125 17.58203125 C-28.32312955 23.04286376 -28.67656523 28.12962218 -26.01953125 33.20703125 C-22.99497417 37.29427055 -20.67217131 38.77666558 -15.83203125 40.14453125 C-11.89597948 40.38069436 -9.35287234 39.85665571 -5.70703125 38.33203125 C-4.65515625 36.78515625 -4.65515625 36.78515625 -3.58203125 35.20703125 C-2.4375 33.59765625 -2.4375 33.59765625 -0.70703125 32.33203125 C3.66723224 31.79793314 7.907797 31.9853266 12.29296875 32.33203125 C10.9487985 39.50093923 7.32642786 44.37075748 1.44140625 48.69140625 C-5.75314206 52.77719912 -14.59468435 53.32211079 -22.51171875 51.1796875 C-30.11559607 48.24367081 -35.27555652 43.7140273 -38.70703125 36.33203125 C-42.01110645 27.67850096 -41.4096723 19.718355 -37.70703125 11.33203125 C-29.94732312 -2.37678645 -14.05259361 -6.32255007 0 0 Z " fill="#0088C1" transform="translate(133.70703125,72.66796875)"/>
<path d="M0 0 C11.55 0 23.1 0 35 0 C35 3.63 35 7.26 35 11 C27.08 11 19.16 11 11 11 C11 14.3 11 17.6 11 21 C18.26 21 25.52 21 33 21 C33 24.63 33 28.26 33 32 C25.74 32 18.48 32 11 32 C11 38.93 11 45.86 11 53 C7.37 53 3.74 53 0 53 C0 35.51 0 18.02 0 0 Z " fill="#3D4173" transform="translate(224,71)"/>
<path d="M0 0 C3.63 0 7.26 0 11 0 C11 17.49 11 34.98 11 53 C7.37 53 3.74 53 0 53 C0 35.51 0 18.02 0 0 Z " fill="#3D4173" transform="translate(204,71)"/>
<path d="M0 0 C1.73355628 3.16119086 2.17344104 6.38738668 2.0625 9.9375 C0.77165561 13.23632455 -0.21582584 14.50839645 -3.25 16.3125 C-6.58354738 17.08774358 -8.65694656 16.91468613 -11.9375 15.9375 C-15.13069107 13.69363601 -15.84117244 12.29070104 -16.875 8.5 C-16.94529003 4.49346849 -16.46999114 2.99395482 -13.9375 -0.0625 C-10.00316213 -3.26825678 -4.23210726 -2.32083302 0 0 Z " fill="#0088C1" transform="translate(66.9375,126.0625)"/>
<path d="M0 0 C2.87231794 2.09601579 3.8338544 3.49048682 4.9375 6.875 C5.0154753 10.7737648 4.13513938 12.76047819 2 16 C-1.14649057 18.38699285 -4.14113846 18.47251366 -8 18 C-10.69990662 16.20006226 -12.5418865 14.916227 -14 12 C-14.03949715 7.83700018 -14.04253184 4.11203396 -11.125 1 C-6.9391359 -0.9698184 -4.47542036 -1.18735642 0 0 Z " fill="#0088C1" transform="translate(162,27)"/>
<path d="M0 0 C2.87231794 2.09601579 3.8338544 3.49048682 4.9375 6.875 C5.0154753 10.7737648 4.13513938 12.76047819 2 16 C-0.55472389 18.17624628 -2.76908992 18.12931655 -6 17.9375 C-9.0330397 17.43293826 -10.0418181 16.96736148 -12.5625 15 C-14.57278061 10.80463176 -14.3475858 7.41803446 -13 3 C-9.18236142 -1.07214781 -5.23545375 -1.38899793 0 0 Z " fill="#0088C1" transform="translate(162,151)"/>
<path d="M0 0 C2.875 1.5 2.875 1.5 5 4 C6.13079347 7.6067138 6.39165419 10.75976174 5.25 14.375 C3.47873915 16.67763911 1.76057571 17.8795405 -1.12109375 18.3359375 C-7.29589491 18.44006568 -7.29589491 18.44006568 -10.5 16.4375 C-12.50133412 13.18533206 -12.93311096 10.81267501 -13 7 C-10.21552944 0.73494123 -6.68938489 -0.69200533 0 0 Z " fill="#0088C1" transform="translate(125,160)"/>
<path d="M0 0 C3.60549148 2.66492848 4.84539972 4.03804272 5.5625 8.5 C4.91877781 12.50538252 3.84054174 14.15945826 1 17 C-1.82001327 18.41000664 -3.87007255 18.24548451 -7 18 C-11.63235294 15.73529412 -11.63235294 15.73529412 -13 13 C-13.51571681 8.62063431 -13.83341277 5.14953485 -11.1875 1.5 C-7.20988665 -1.2275063 -4.56172285 -1.2772824 0 0 Z " fill="#0088C1" transform="translate(90,151)"/>
<path d="M0 0 C3.60549148 2.66492848 4.84539972 4.03804272 5.5625 8.5 C4.91877781 12.50538252 3.84054174 14.15945826 1 17 C-1.82001327 18.41000664 -3.87007255 18.24548451 -7 18 C-11.63235294 15.73529412 -11.63235294 15.73529412 -13 13 C-13.51571681 8.62063431 -13.83341277 5.14953485 -11.1875 1.5 C-7.20988665 -1.2275063 -4.56172285 -1.2772824 0 0 Z " fill="#0088C1" transform="translate(90,27)"/>
<path d="M0 0 C3.4651639 0.08956805 5.37700188 0.47531463 7.8125 3 C9.84290002 6.79008004 10.24143239 8.55182678 9.390625 12.6640625 C8.18642777 15.80835527 6.63104571 16.96423702 3.6875 18.5 C-0.41727533 19.08639648 -2.53574854 18.92214753 -6.1875 16.9375 C-8.97855308 13.73599794 -9.3125 11.71894271 -9.3125 7.5 C-7.14119672 2.84720725 -5.25364936 0.21191191 0 0 Z " fill="#0088C1" transform="translate(59.3125,52.5)"/>
<path d="M0 0 C2.94354571 1.53576298 4.49892777 2.69164473 5.703125 5.8359375 C6.31963237 8.81572314 6.41488082 11.02162433 5.21484375 13.8515625 C3.57135841 16.20258221 1.86489554 17.77376978 -0.94140625 18.5078125 C-4.57472578 18.71464283 -6.6980039 18.16063623 -9.9375 16.4375 C-12.65361118 13.22755042 -13 11.17955847 -13 7 C-10.21552944 0.73494123 -6.68938489 -0.69200533 0 0 Z " fill="#0088C1" transform="translate(125,17)"/>
<path d="M0 0 C1.53048375 3.33105286 1.50768971 5.6873838 1.0625 9.3125 C-0.73312405 12.06579021 -1.99004922 13.83877461 -4.9375 15.3125 C-9.03547257 15.87131444 -10.70622323 15.4495529 -14.3125 13.3125 C-17.37701613 9.81019585 -17.37701613 9.81019585 -17.5625 6.3125 C-17.24460229 2.30850261 -15.93332178 0.05866997 -12.9375 -2.6875 C-8.63323408 -4.91384444 -3.47242621 -3.02437121 0 0 Z " fill="#0088C1" transform="translate(57.9375,91.6875)"/>
</svg>
