<?xml version="1.0" encoding="UTF-8"?>
<svg version="1.1" xmlns="http://www.w3.org/2000/svg" width="1500" height="364">
<path d="M0 0 C0.85639069 0.00054382 1.71278137 0.00108765 2.59512329 0.00164795 C16.74796517 0.04284598 30.33440273 0.96562186 44.125 4.375 C45.43090088 4.69645996 45.43090088 4.69645996 46.76318359 5.02441406 C59.11665232 8.18348088 70.6803126 12.79235671 82.125 18.375 C83.09663086 18.84244629 83.09663086 18.84244629 84.08789062 19.31933594 C100.87015967 27.48578509 115.41117031 38.8174945 129.125 51.375 C129.89199219 52.06980469 130.65898437 52.76460937 131.44921875 53.48046875 C163.25470547 83.73761534 182.40887574 129.79584462 184.125 173.375 C184.16584717 174.3973877 184.16584717 174.3973877 184.20751953 175.44042969 C185.34338092 208.65901751 178.01627451 241.18475348 162.125 270.375 C161.79886719 270.98569336 161.47273438 271.59638672 161.13671875 272.22558594 C148.77516886 295.28652512 130.95937895 314.74766607 110.125 330.375 C109.25746094 331.02597656 108.38992188 331.67695313 107.49609375 332.34765625 C92.71465799 343.03801918 76.03502433 351.21576769 58.8125 357.125 C58.04478271 357.39449463 57.27706543 357.66398926 56.48608398 357.94165039 C39.29518608 363.591903 22.39782793 365.04907099 4.38110352 364.95141602 C0.82668103 364.9375553 -2.72509462 364.97176457 -6.27929688 365.00976562 C-40.93096749 365.12514316 -74.50696165 354.38491469 -102.875 334.375 C-104.40833984 333.29798828 -104.40833984 333.29798828 -105.97265625 332.19921875 C-113.43887429 326.77537261 -120.22492337 320.74745207 -126.875 314.375 C-127.38063477 313.89659668 -127.88626953 313.41819336 -128.40722656 312.92529297 C-159.24044979 283.64841339 -180.534025 239.46598043 -182.00097656 196.70263672 C-182.0957867 192.32271714 -182.12159729 187.94335114 -182.125 183.5625 C-182.12567474 182.78221436 -182.12634949 182.00192871 -182.12704468 181.19799805 C-182.11034787 169.03023721 -181.57315176 157.28444356 -178.875 145.375 C-178.69807617 144.58287109 -178.52115234 143.79074219 -178.33886719 142.97460938 C-172.34961044 116.9280662 -161.17955418 92.61098834 -144.875 71.375 C-144.24464844 70.53839844 -143.61429688 69.70179687 -142.96484375 68.83984375 C-113.49469394 31.19300498 -70.00083184 7.08822733 -22.75390625 0.75219727 C-15.17947904 0.01563571 -7.60491931 -0.01821978 0 0 Z " fill="#0D4F71" transform="translate(182.875,-0.375)"/>
<path d="M0 0 C0.76530029 0.00182281 1.53060059 0.00364563 2.3190918 0.00552368 C14.36497977 0.05369092 26.02367363 0.64916585 37.8125 3.3125 C38.97676514 3.56990967 38.97676514 3.56990967 40.16455078 3.83251953 C71.57332552 10.97755286 100.31704609 25.11513747 123.8125 47.3125 C125.14191948 48.44212233 126.47513718 49.56729312 127.8125 50.6875 C161.65089554 80.47339308 180.88568681 126.95607338 183.8125 171.3125 C186.12669426 220.40615358 170.78329088 268.11158267 137.89453125 304.9453125 C136.87027843 306.0705297 135.84294356 307.19294935 134.8125 308.3125 C134.31024902 308.8600293 133.80799805 309.40755859 133.29052734 309.97167969 C121.24262118 322.93924397 107.18691053 333.57788964 91.8125 342.3125 C90.69101563 342.96605469 89.56953125 343.61960937 88.4140625 344.29296875 C81.38703956 348.28715448 74.15275026 351.56165882 66.625 354.5 C65.46194336 354.9630957 65.46194336 354.9630957 64.27539062 355.43554688 C61.47946759 356.48820854 58.65952304 357.40653154 55.8125 358.3125 C55.19663025 358.52463135 54.5807605 358.7367627 53.94622803 358.95532227 C38.08826981 364.29664985 22.02076914 364.08624177 5.49511719 363.96435547 C1.59530156 363.93586738 -2.30280792 363.95278785 -6.20256519 363.98157024 C-22.76291193 364.08520124 -38.34360386 363.72688484 -54.1875 358.3125 C-55.81664994 357.78375792 -57.44596628 357.25552829 -59.07543945 356.7277832 C-77.46344028 350.65024868 -94.9905149 341.30803961 -110.1875 329.3125 C-111.16847656 328.54035156 -112.14945313 327.76820313 -113.16015625 326.97265625 C-115.87131799 324.79104742 -118.5382205 322.56868703 -121.1875 320.3125 C-122.39212891 319.29349609 -122.39212891 319.29349609 -123.62109375 318.25390625 C-128.61004803 313.93799808 -132.96667452 309.37219247 -137.1875 304.3125 C-138.32832031 303.00345703 -138.32832031 303.00345703 -139.4921875 301.66796875 C-159.56840774 278.30825455 -172.80157398 250.42288375 -179.1875 220.3125 C-179.35121094 219.54131836 -179.51492188 218.77013672 -179.68359375 217.97558594 C-187.42411674 179.35293506 -181.76129666 137.42586976 -164.1875 102.3125 C-163.87200195 101.66667969 -163.55650391 101.02085938 -163.23144531 100.35546875 C-150.32128313 74.08027857 -130.72387264 51.58411995 -107.1875 34.3125 C-106.63320313 33.89790527 -106.07890625 33.48331055 -105.5078125 33.05615234 C-75.28202355 10.67948993 -37.28764546 -0.1853818 0 0 Z " fill="#4D8D40" transform="translate(938.1875,0.6875)"/>
<path d="M0 0 C1.11151428 0.00323273 1.11151428 0.00323273 2.2454834 0.00653076 C52.59582569 0.24042285 96.81959771 20.71186465 132.75 55.4375 C168.02437823 91.9282361 184.04182322 139.93828067 183.58984375 190.04296875 C183.24101689 206.56782866 180.29566239 222.5577184 175.375 238.3125 C175.01994385 239.44969482 175.01994385 239.44969482 174.65771484 240.60986328 C168.44960023 259.91443619 159.01105883 278.42773835 146.375 294.3125 C145.95959961 294.83924316 145.54419922 295.36598633 145.11621094 295.90869141 C117.82019371 330.25253612 79.01626431 355.69869501 35.375 363.3125 C30.07888076 363.73424716 24.80456173 363.78437409 19.49609375 363.78125 C17.99316639 363.78838157 16.49024165 363.7960847 14.98731995 363.80432129 C11.85336734 363.81766956 8.71966617 363.81938061 5.58569336 363.81347656 C2.41571001 363.80877513 -0.75327113 363.8225606 -3.9230957 363.85449219 C-21.37771353 364.028299 -37.91733796 364.08024201 -54.625 358.3125 C-55.66197021 357.98797852 -56.69894043 357.66345703 -57.76733398 357.32910156 C-60.23810862 356.52458965 -62.64642522 355.64233731 -65.0625 354.6875 C-65.91465088 354.35540527 -66.76680176 354.02331055 -67.64477539 353.68115234 C-83.04679612 347.49328092 -97.61275158 339.64031916 -110.625 329.3125 C-111.14932617 328.9009668 -111.67365234 328.48943359 -112.21386719 328.06542969 C-151.3182848 297.07475864 -175.0775027 254.12756484 -181.97314453 204.82324219 C-187.42618339 156.84820626 -174.25583727 108.41197327 -144.625 70.3125 C-113.64115622 31.41579878 -70.03084058 6.96368363 -20.64282227 0.70288086 C-13.77724263 -0.02932883 -6.89731232 -0.03638767 0 0 Z " fill="#077681" transform="translate(563.625,0.6875)"/>
<path d="M0 0 C0.78028564 -0.00067474 1.56057129 -0.00134949 2.36450195 -0.00204468 C14.53559663 0.01465671 26.27320042 0.56364781 38.1875 3.25 C38.96899414 3.42160645 39.75048828 3.59321289 40.55566406 3.77001953 C68.83801343 10.15322827 96.35107389 23.0325845 118.1875 42.25 C119.01507812 42.96800781 119.84265625 43.68601563 120.6953125 44.42578125 C123.23035576 46.66281786 125.7158734 48.94314851 128.1875 51.25 C129.04988281 52.04664063 129.91226562 52.84328125 130.80078125 53.6640625 C143.10240025 65.44940516 153.04227446 79.32551842 161.1875 94.25 C161.53119629 94.87696777 161.87489258 95.50393555 162.22900391 96.14990234 C176.69926984 122.91072732 183.64439955 152.02136577 183.5 182.375 C183.49784485 183.19114777 183.4956897 184.00729553 183.49346924 184.84817505 C183.44116289 197.20199839 182.99829723 209.17171914 180.1875 221.25 C179.99414062 222.10980469 179.80078125 222.96960938 179.6015625 223.85546875 C176.3333814 237.99741289 171.40938942 251.15372814 165.1875 264.25 C164.86023926 264.94174316 164.53297852 265.63348633 164.19580078 266.34619141 C157.07489106 281.12327881 147.43033499 294.34968928 136.1875 306.25 C135.05787767 307.57941948 133.93270688 308.91263718 132.8125 310.25 C111.29009674 334.76981559 79.43290191 352.03937456 48.1875 360.25 C47.28326294 360.49999252 46.37902588 360.74998505 45.4473877 361.0075531 C36.73700925 363.24620785 28.35092261 363.74001129 19.4140625 363.75390625 C17.91832214 363.76359168 16.42258439 363.77368709 14.92684937 363.78416443 C11.80549567 363.8019966 8.6843892 363.80769965 5.56298828 363.8059082 C2.41336957 363.80566556 -0.73492939 363.82632322 -3.88427734 363.86743164 C-53.12060482 364.50034682 -92.9535414 346.58198501 -128.8125 313.25 C-129.47765625 312.63898438 -130.1428125 312.02796875 -130.828125 311.3984375 C-163.97228641 279.73633209 -181.37759378 232.77259865 -182.9375 187.6328125 C-183.6024454 146.32307924 -171.58811892 104.91613091 -145.8125 72.25 C-145.05195312 71.280625 -144.29140625 70.31125 -143.5078125 69.3125 C-136.25284775 60.27517367 -128.78207209 51.61681249 -119.8125 44.25 C-118.76822073 43.35808279 -117.72395069 42.46615478 -116.6796875 41.57421875 C-83.79322421 13.93059116 -42.6748087 0.03314657 0 0 Z " fill="#7B9C3E" transform="translate(1315.8125,0.75)"/>
<path d="M0 0 C109.94191197 0 109.94191197 0 125.75 6.25 C126.54164551 6.55446045 127.33329102 6.8589209 128.14892578 7.17260742 C148.92935416 15.3654189 166.9618205 29.00034801 179 48 C179.51046875 48.75410156 180.0209375 49.50820312 180.546875 50.28515625 C194.86552235 72.39049068 197.41576227 101.78929729 192.875 127.25 C186.44345026 153.43126143 171.88017864 177.13821686 149 192 C102.89939381 219.62579096 55.59611477 210 0 210 C0 140.7 0 71.4 0 0 Z " fill="#FDFEFD" transform="translate(856,81)"/>
<path d="M0 0 C106.67305259 0 106.67305259 0 121.375 5.125 C122.26711182 5.43211914 123.15922363 5.73923828 124.07836914 6.05566406 C138.50418515 11.16913403 150.47028405 17.92507661 162 28 C163.13695312 28.98419922 163.13695312 28.98419922 164.296875 29.98828125 C182.16940517 46.68122443 193.04744547 71.61014722 194.12548828 95.81787109 C195.13177487 127.92296436 187.08294511 154.77175326 164.92626953 178.45751953 C146.58254397 197.46303906 122.61679079 206.05895526 97 210 C64.99 210 32.98 210 0 210 C0 140.7 0 71.4 0 0 Z " fill="#FDFEFE" transform="translate(476,81)"/>
<path d="M0 0 C5.94 0 11.88 0 18 0 C18.35449219 1.97484375 18.70898438 3.9496875 19.07421875 5.984375 C19.47083638 7.90483934 19.86788507 9.82524027 20.27661133 11.74316406 C20.54822721 13.06977285 20.79929644 14.40077214 21.02856445 15.73535156 C21.8006019 20.17830256 22.73038984 24.08352268 25 28 C28.27645403 29.81548766 31.16955029 30.57077912 34.83227539 31.31689453 C37.80193384 31.95728793 39.35871851 32.59015878 41.7421875 34.37890625 C45.45274808 36.96519474 48.38116246 38.98647485 53 39 C60.53323966 36.45402605 67.18572008 31.81596092 73.67260742 27.30444336 C76 26 76 26 80 26 C81.92114708 27.79307061 83.56620965 29.50784107 85.25 31.5 C85.70890625 32.02464844 86.1678125 32.54929688 86.640625 33.08984375 C87.77050284 34.38449544 88.88661619 35.69113659 90 37 C88.58894857 41.99588481 86.41781867 45.80489236 83.5625 50.0625 C82.03811509 52.3727016 80.51840574 54.68585222 79 57 C78.36964844 57.86496094 77.73929688 58.72992188 77.08984375 59.62109375 C75.72636263 61.94009347 75.72636263 61.94009347 76.58984375 64.3203125 C77.05519531 65.20460938 77.52054688 66.08890625 78 67 C78.57089633 68.24416499 79.13408932 69.49188074 79.69140625 70.7421875 C80.62745757 72.81218682 81.56514043 74.88068956 82.52148438 76.94140625 C84.49676305 81.34489375 85.54166337 85.1906047 86 90 C87.10472656 90.1134375 88.20945312 90.226875 89.34765625 90.34375 C94.48330762 90.98669688 99.42901787 92.21952612 104.4375 93.5 C105.34693359 93.72558594 106.25636719 93.95117188 107.19335938 94.18359375 C113.86860795 95.86860795 113.86860795 95.86860795 115 97 C115.15582303 98.34015221 115.25044142 99.68758903 115.31640625 101.03515625 C115.37924805 102.24848633 115.37924805 102.24848633 115.44335938 103.48632812 C115.48267578 104.33646484 115.52199219 105.18660156 115.5625 106.0625 C115.60568359 106.91650391 115.64886719 107.77050781 115.69335938 108.65039062 C115.79976702 110.76672037 115.90041731 112.88333813 116 115 C114.73724243 115.1688269 114.73724243 115.1688269 113.44897461 115.34106445 C98.04759817 117.02344452 98.04759817 117.02344452 85.00390625 124.08349609 C82.37086015 128.7056368 81.35345722 133.5622993 80.52685547 138.7734375 C79.96141034 141.16308511 79.08831824 142.73393297 77.75390625 144.78125 C75.6264221 147.783038 75.6264221 147.783038 76.71191406 150.41967773 C77.95750891 152.9148809 79.30403813 155.18791538 80.85546875 157.50390625 C81.39494141 158.32697266 81.93441406 159.15003906 82.49023438 159.99804688 C83.62712 161.71580386 84.77042436 163.42932889 85.91992188 165.13867188 C86.45552734 165.96044922 86.99113281 166.78222656 87.54296875 167.62890625 C88.03821045 168.37213135 88.53345215 169.11535645 89.04370117 169.88110352 C90 172 90 172 89.79638672 174.11206055 C88.52121342 177.13502655 86.28165552 178.99486305 83.9375 181.25 C82.55884766 182.58804688 82.55884766 182.58804688 81.15234375 183.953125 C80.08693359 184.96632812 80.08693359 184.96632812 79 186 C72.28329781 184.19795795 66.73817502 180.37828044 60.90039062 176.72460938 C60.08634766 176.23412109 59.27230469 175.74363281 58.43359375 175.23828125 C57.70197021 174.78493408 56.97034668 174.33158691 56.21655273 173.86450195 C53.39053452 172.76229571 51.87081586 173.13541981 49 174 C47.07926387 174.90739161 45.18423396 175.87041114 43.3125 176.875 C31.40114183 183 31.40114183 183 25 183 C24.74605469 184.17175781 24.49210937 185.34351563 24.23046875 186.55078125 C22.36258219 195.10191495 20.40565438 203.58020968 18 212 C12.06 212 6.12 212 0 212 C-2.0371803 206.29589516 -3.69947101 200.55443361 -5.1875 194.6875 C-5.36635742 193.99398437 -5.54521484 193.30046875 -5.72949219 192.5859375 C-6.56058343 189.24861204 -7 186.46627644 -7 183 C-7.886875 182.938125 -8.77375 182.87625 -9.6875 182.8125 C-17.12522092 181.75213246 -24.70184295 178.56778309 -31.0625 174.625 C-33.7206588 172.78105675 -33.7206588 172.78105675 -35.88085938 173.22387695 C-38.41449141 174.15180509 -40.5418431 175.38365162 -42.84375 176.79296875 C-44.21853516 177.6137793 -44.21853516 177.6137793 -45.62109375 178.45117188 C-47.54556639 179.61186127 -49.46484703 180.78120167 -51.37890625 181.95898438 C-52.29542969 182.50232422 -53.21195313 183.04566406 -54.15625 183.60546875 C-54.98962891 184.11231201 -55.82300781 184.61915527 -56.68164062 185.14135742 C-59 186 -59 186 -61.15307617 185.27392578 C-63.58705233 183.59507746 -65.68021143 181.73711503 -67.8125 179.6875 C-68.62332031 178.92824219 -69.43414062 178.16898438 -70.26953125 177.38671875 C-72 175 -72 175 -71.78051758 172.63012695 C-70.95183341 169.83769199 -69.88071701 167.93114292 -68.2421875 165.53125 C-67.69949219 164.71269531 -67.15679687 163.89414063 -66.59765625 163.05078125 C-65.44676594 161.34662848 -64.2904817 159.64610638 -63.12890625 157.94921875 C-62.58878906 157.13066406 -62.04867187 156.31210938 -61.4921875 155.46875 C-60.99058105 154.73076172 -60.48897461 153.99277344 -59.97216797 153.23242188 C-58.73154392 150.38353532 -59.10996707 148.93224413 -60 146 C-60.744342 144.20875971 -61.53907511 142.43787607 -62.375 140.6875 C-68.20049806 128.14157228 -68.20049806 128.14157228 -68 122 C-68.86044922 121.87044922 -68.86044922 121.87044922 -69.73828125 121.73828125 C-79.32402479 120.1527789 -88.63395158 117.54290641 -98 115 C-98 109.06 -98 103.12 -98 97 C-95.11121094 96.25943359 -95.11121094 96.25943359 -92.1640625 95.50390625 C-90.3007393 95.02417005 -88.43742016 94.54441797 -86.57421875 94.06420898 C-84.64102868 93.56662562 -82.70723512 93.07138881 -80.7734375 92.57617188 C-79.56171875 92.26357422 -78.35 91.95097656 -77.1015625 91.62890625 C-75.42054443 91.1968689 -75.42054443 91.1968689 -73.70556641 90.75610352 C-71.05984994 90.10908163 -71.05984994 90.10908163 -69 89 C-68.37101765 87.10411009 -67.82301115 85.18116435 -67.3125 83.25 C-65.44137611 76.76534164 -62.78201242 71.63012359 -59.29296875 65.875 C-57.76781174 62.48371432 -57.97956628 61.49858348 -59 58 C-60.30820659 55.51334141 -60.30820659 55.51334141 -61.9765625 53.05859375 C-62.85828125 51.68864258 -62.85828125 51.68864258 -63.7578125 50.29101562 C-65.00673843 48.38235372 -66.25937149 46.47611262 -67.515625 44.57226562 C-68.10085937 43.66025391 -68.68609375 42.74824219 -69.2890625 41.80859375 C-69.83256348 40.98157959 -70.37606445 40.15456543 -70.93603516 39.30249023 C-72 37 -72 37 -71.81225586 34.8605957 C-70.50595213 31.86830814 -68.27124379 29.99512061 -65.9375 27.75 C-65.01839844 26.85796875 -64.09929687 25.9659375 -63.15234375 25.046875 C-62.44207031 24.37140625 -61.73179687 23.6959375 -61 23 C-56.03808061 24.77068494 -51.57621635 27.3633783 -47 29.9375 C-46.2059375 30.38029297 -45.411875 30.82308594 -44.59375 31.27929688 C-43.43359375 31.92801758 -43.43359375 31.92801758 -42.25 32.58984375 C-41.50468018 33.00073242 -40.75936035 33.41162109 -39.99145508 33.83496094 C-38 35 -38 35 -35.38671875 37.01171875 C-32.85420065 38.36504364 -32.85420065 38.36504364 -29.58203125 36.8671875 C-28.31437731 36.22465274 -27.05814176 35.55923244 -25.8125 34.875 C-21.22665819 32.45889409 -17.58718048 30.79101563 -12.375 30.1875 C-9.92549724 29.72081779 -9.92549724 29.72081779 -8 28 C-5.5574674 23.06723457 -4.57510065 17.54712023 -3.47167969 12.19189453 C-2.86408693 9.36841223 -2.05155147 6.6296595 -1.1875 3.875 C-0.795625 2.59625 -0.40375 1.3175 0 0 Z " fill="#FDFDFE" transform="translate(251,64)"/>
<path d="M0 0 C7.92 0 15.84 0 24 0 C25.14486172 4.4644496 26.28600583 8.92952471 27.41796875 13.3972168 C27.80385304 14.915665 28.19185087 16.43357777 28.58203125 17.95092773 C29.14363928 20.13647123 29.69752987 22.32384993 30.25 24.51171875 C30.42499023 25.18587326 30.59998047 25.86002777 30.78027344 26.55461121 C31.67025901 30.11245501 32.19749282 33.33095366 32 37 C33.55966592 37.36644578 35.12292651 37.71760862 36.6875 38.0625 C37.55761719 38.25972656 38.42773438 38.45695312 39.32421875 38.66015625 C43.17631498 39.14940059 45.88539371 38.85490923 49.01708984 36.45288086 C49.65855957 35.79682861 50.3000293 35.14077637 50.9609375 34.46484375 C51.68023437 33.73716797 52.39953125 33.00949219 53.140625 32.25976562 C53.87796875 31.49341797 54.6153125 30.72707031 55.375 29.9375 C56.10460937 29.19822266 56.83421875 28.45894531 57.5859375 27.69726562 C62.23776308 22.94991148 66.68025622 18.05057916 71 13 C74.49643687 13.55486356 77.01296828 14.37418288 79.98828125 16.28515625 C81.04692383 16.95708008 81.04692383 16.95708008 82.12695312 17.64257812 C82.84818359 18.11115234 83.56941406 18.57972656 84.3125 19.0625 C85.42334961 19.77116211 85.42334961 19.77116211 86.55664062 20.49414062 C88.37551219 21.65587149 90.1883659 22.82701482 92 24 C91.72736328 24.9379541 91.45472656 25.8759082 91.17382812 26.84228516 C90.15943354 30.33999617 89.1555739 33.84065924 88.15478516 37.34228516 C87.72110803 38.85417222 87.28462062 40.36525621 86.84521484 41.87548828 C86.21221984 44.05293367 85.58956142 46.23311656 84.96875 48.4140625 C84.77188599 49.08305573 84.57502197 49.75204895 84.37219238 50.4413147 C83.26024778 54.39209888 82.68647276 57.89855185 83 62 C84.20561042 64.21673918 84.20561042 64.21673918 86.0625 65.9375 C86.63097656 66.54464844 87.19945313 67.15179688 87.78515625 67.77734375 C91.75366618 69.96807322 96.09025446 68.23801521 100.30151367 67.13623047 C101.41244385 66.79994629 102.52337402 66.46366211 103.66796875 66.1171875 C104.89064453 65.75496094 106.11332031 65.39273438 107.37304688 65.01953125 C109.28935357 64.44454112 111.20564884 63.86948312 113.11987305 63.28759766 C114.98745151 62.72206836 116.85892331 62.16944681 118.73046875 61.6171875 C120.39178833 61.11614502 120.39178833 61.11614502 122.08666992 60.60498047 C124.96786018 60.00667414 126.35626098 59.76164571 129 61 C131.18393405 63.50563703 132.71711862 66.43836662 134.375 69.3125 C134.85066406 70.08529297 135.32632813 70.85808594 135.81640625 71.65429688 C136.47576172 72.77868164 136.47576172 72.77868164 137.1484375 73.92578125 C137.55239746 74.61067627 137.95635742 75.29557129 138.37255859 76.0012207 C139 78 139 78 138.43798828 79.91577148 C136.51536265 82.70243617 134.23861832 85.04693583 131.84375 87.421875 C131.08934631 88.17914886 131.08934631 88.17914886 130.31970215 88.95172119 C129.25970014 90.01307997 128.19718512 91.07193419 127.13232422 92.12841797 C125.49859954 93.75139124 123.87586706 95.38481068 122.25390625 97.01953125 C121.22199524 98.05012146 120.18946441 99.08009152 119.15625 100.109375 C118.66974976 100.59992371 118.18324951 101.09047241 117.68200684 101.59588623 C114.22994349 105 114.22994349 105 112 105 C112.2165625 105.83144531 112.433125 106.66289062 112.65625 107.51953125 C113.07390625 109.14955078 113.07390625 109.14955078 113.5 110.8125 C113.91765625 112.43091797 113.91765625 112.43091797 114.34375 114.08203125 C115 117 115 117 115 120 C116.02222656 120.0928125 117.04445312 120.185625 118.09765625 120.28125 C124.66451964 121.1033744 131.03341012 122.87366815 137.4375 124.5 C138.74144938 124.82456878 140.04548525 125.14879032 141.34960938 125.47265625 C150.86872691 127.86872691 150.86872691 127.86872691 152 129 C152.08713831 130.70772358 152.10700007 132.41898649 152.09765625 134.12890625 C152.09443359 135.16337891 152.09121094 136.19785156 152.08789062 137.26367188 C152.07951172 138.35228516 152.07113281 139.44089844 152.0625 140.5625 C152.05798828 141.65498047 152.05347656 142.74746094 152.04882812 143.87304688 C152.03699826 146.58208495 152.02051543 149.29101599 152 152 C147.05287412 153.28480998 142.10494933 154.56647867 137.15625 155.84521484 C135.47210593 156.28087017 133.78818531 156.71739026 132.10449219 157.15478516 C129.68742865 157.78253841 127.26958435 158.40719971 124.8515625 159.03125 C123.71867294 159.32654602 123.71867294 159.32654602 122.56289673 159.62780762 C117.22774341 161 117.22774341 161 115 161 C114.65980848 162.39417773 114.32818221 163.79044658 114 165.1875 C113.814375 165.96480469 113.62875 166.74210938 113.4375 167.54296875 C112.74692478 171.25823111 112.74692478 171.25823111 113 175 C114.84829807 177.05702567 116.59101783 178.73347841 118.6875 180.5 C119.87474731 181.54420746 121.05956556 182.59118193 122.2421875 183.640625 C123.16596191 184.45563477 123.16596191 184.45563477 124.10839844 185.28710938 C127.286134 188.16462522 130.29809829 191.20319442 133.3125 194.25 C133.88121826 194.82298828 134.44993652 195.39597656 135.03588867 195.98632812 C136.35948777 197.32201395 137.68010037 198.66065832 139 200 C137.36047417 204.6393176 134.93128948 208.63855858 132.375 212.8125 C131.74464844 213.85180664 131.74464844 213.85180664 131.1015625 214.91210938 C130.0710533 216.61010748 129.03598319 218.30533614 128 220 C118.51145129 218.18202596 109.3353386 215.75034859 100.1105957 212.89404297 C99.246521 212.63510254 98.38244629 212.37616211 97.4921875 212.109375 C96.72245605 211.87186523 95.95272461 211.63435547 95.15966797 211.38964844 C92.69988825 210.94585368 91.32055961 211.09066514 89 212 C88.195625 212.86625 87.39125 213.7325 86.5625 214.625 C85.2940625 215.800625 85.2940625 215.800625 84 217 C79.05099393 216.7608287 74.4649295 214.09935736 70.0625 212 C69.22001709 211.59845703 68.37753418 211.19691406 67.50952148 210.78320312 C50.49871482 202.50304968 35.62325474 191.05451692 22 178 C21.49436523 177.52159668 20.98873047 177.04319336 20.46777344 176.55029297 C-9.5810356 148.01823334 -30.32278524 105.55751237 -33 64 C-33.11652786 58.1450246 -33.09464443 52.29324431 -33.0625 46.4375 C-33.05747543 44.84049619 -33.05291421 43.24349086 -33.04882812 41.64648438 C-33.03789728 37.76428467 -33.02068533 33.88215949 -33 30 C-29.76996478 31.50575245 -28.24296399 32.76720101 -26.1875 35.6875 C-24.70997633 37.58503756 -24.70997633 37.58503756 -23 39 C-19.49739918 39.15483439 -19.49739918 39.15483439 -16 38 C-13.66666667 37.66666667 -11.33333333 37.33333333 -9 37 C-8.89115479 36.35168213 -8.78230957 35.70336426 -8.67016602 35.03540039 C-7.40167548 27.74853352 -5.75698559 20.60476806 -3.9375 13.4375 C-3.66873047 12.35919922 -3.39996094 11.28089844 -3.12304688 10.16992188 C-1.13384956 2.26769912 -1.13384956 2.26769912 0 0 Z " fill="#FDFDFE" transform="translate(34,136)"/>
<path d="M0 0 C-0.350625 0.7425 -0.70125 1.485 -1.0625 2.25 C-2.96268236 7.82386827 0.68453187 13.01027052 2.94140625 18.125 C4 21 4 21 4 25 C5.27746094 25.11214844 6.55492187 25.22429688 7.87109375 25.33984375 C13.08793052 25.91949228 18.01341808 27.16467095 23.0625 28.5625 C27.4865625 29.7690625 27.4865625 29.7690625 32 31 C32 37.6 32 44.2 32 51 C27.89680386 52.00413249 23.79254448 53.00347745 19.6875 54 C18.52025391 54.28617188 17.35300781 54.57234375 16.15039062 54.8671875 C15.03212891 55.13789062 13.91386719 55.40859375 12.76171875 55.6875 C11.73006592 55.93886719 10.69841309 56.19023438 9.63549805 56.44921875 C7 57 7 57 4 57 C3.90203125 57.556875 3.8040625 58.11375 3.703125 58.6875 C2.71788131 63.7156402 1.36674879 67.64610379 -1.390625 71.98046875 C-2.36449207 75.2079641 -1.35695275 76.94233314 0 80 C2.26810805 83.73824537 4.77243204 87.3148658 7.27539062 90.8984375 C7.76587891 91.62546875 8.25636719 92.3525 8.76171875 93.1015625 C9.21506592 93.75463379 9.66841309 94.40770508 10.13549805 95.08056641 C11 97 11 97 10.78759766 99.06665039 C9.49348744 102.24335803 7.07916515 104.43321087 4.6875 106.8125 C4.20087891 107.32748047 3.71425781 107.84246094 3.21289062 108.37304688 C1.76171875 109.83203125 1.76171875 109.83203125 -1 112 C-4.2468289 111.64819065 -6.63158921 110.16373631 -9.37109375 108.4609375 C-10.19287109 107.96335937 -11.01464844 107.46578125 -11.86132812 106.953125 C-13.57943164 105.90064006 -15.29300167 104.84071869 -17.00195312 103.7734375 C-17.82501953 103.2784375 -18.64808594 102.7834375 -19.49609375 102.2734375 C-20.24044678 101.81372559 -20.9847998 101.35401367 -21.75170898 100.88037109 C-25.54759834 99.39400156 -28.32511877 100.72951541 -31.97265625 102.19140625 C-34.03569366 103.1068628 -36.09819273 104.02353346 -38.16015625 104.94140625 C-41 106 -41 106 -45 106 C-45.25394531 107.18335937 -45.50789063 108.36671875 -45.76953125 109.5859375 C-47.55844366 117.83132422 -49.40703764 125.96181667 -52 134 C-58.27 134 -64.54 134 -71 134 C-72.00753458 130.27272178 -73.00627113 126.5434595 -74 122.8125 C-74.28617188 121.75740234 -74.57234375 120.70230469 -74.8671875 119.61523438 C-75.13789062 118.59365234 -75.40859375 117.57207031 -75.6875 116.51953125 C-75.93886719 115.58214111 -76.19023438 114.64475098 -76.44921875 113.67895508 C-76.9922969 111.03746727 -77.1023122 108.68782684 -77 106 C-78.3921875 105.9071875 -78.3921875 105.9071875 -79.8125 105.8125 C-84.43250949 105.20088978 -88.25319982 103.08644938 -92.3515625 100.9609375 C-95.51095257 99.81461013 -96.79590124 100.11696653 -100 101 C-102.28679629 102.13364745 -102.28679629 102.13364745 -104.50390625 103.57421875 C-105.73850586 104.32735352 -105.73850586 104.32735352 -106.99804688 105.09570312 C-108.71576611 106.16191879 -110.42929435 107.23491448 -112.13867188 108.31445312 C-112.96044922 108.81267578 -113.78222656 109.31089844 -114.62890625 109.82421875 C-115.7437439 110.52164185 -115.7437439 110.52164185 -116.88110352 111.2331543 C-119 112 -119 112 -121.15307617 111.24389648 C-123.28200802 109.81006862 -124.97009204 108.22336596 -126.75 106.375 C-127.67039062 105.42753906 -127.67039062 105.42753906 -128.609375 104.4609375 C-129.06828125 103.97882813 -129.5271875 103.49671875 -130 103 C-109.330816 58.37887925 -71.92241312 23.55608822 -25.6640625 6.57421875 C-6.8171616 0 -6.8171616 0 0 0 Z " fill="#FDFDFE" transform="translate(147,3)"/>
<path d="M0 0 C63.61139028 0 63.61139028 0 80.89453125 16.83203125 C81.58933594 17.54746094 82.28414062 18.26289063 83 19 C83.56074219 19.54011719 84.12148438 20.08023438 84.69921875 20.63671875 C95.95683156 32.36709221 99.52068321 49.05071962 99.42211914 64.76464844 C98.91266979 81.5013122 92.99930052 98.02033827 81 110 C56.41797854 130.16821157 33.35454218 126 0 126 C0 84.42 0 42.84 0 0 Z " fill="#4D8D40" transform="translate(903,123)"/>
<path d="M0 0 C62.1372549 0 62.1372549 0 79 15 C79.60328125 15.49886719 80.2065625 15.99773437 80.828125 16.51171875 C90.37737962 25.05012885 97.28769212 39.30116498 98.21875 51.97851562 C99.17581452 72.49558632 97.57024866 90.20705792 83.625 106.3125 C73.12279399 117.39329165 60.8523138 123.02953724 46 126 C30.82 126 15.64 126 0 126 C0 84.42 0 42.84 0 0 Z " fill="#077681" transform="translate(523,123)"/>
<path d="M0 0 C15.18 0 30.36 0 46 0 C46 69.3 46 138.6 46 210 C30.82 210 15.64 210 0 210 C0 140.7 0 71.4 0 0 Z " fill="#FFFFFF" transform="translate(1287,81)"/>
<path d="M0 0 C11.05384412 9.55066797 18.05448343 21.21686163 19.34765625 35.96484375 C19.9442793 52.43400293 15.11470397 65.91612471 4.47265625 78.44140625 C-0.15067024 83.22541707 -6.02196451 88.73667791 -13 89 C-15.21875 87.5859375 -15.21875 87.5859375 -17.5 85.375 C-18.36625 84.54226563 -19.2325 83.70953125 -20.125 82.8515625 C-20.58777344 82.39168945 -21.05054688 81.93181641 -21.52734375 81.45800781 C-23.06207941 79.93853809 -24.62269716 78.4493855 -26.1875 76.9609375 C-45.76169579 58.1294413 -66.50729029 29.42102132 -71 2 C-48.85316703 -14.77296909 -22.99890801 -17.8350772 0 0 Z " fill="#0C4F71" transform="translate(80,235)"/>
<path d="M0 0 C7.56888551 5.01202591 12.45310997 13.12881524 14.84765625 21.78515625 C16.15664892 31.62326956 13.76102294 39.885309 8.30859375 48.10546875 C3.52339995 54.06995202 -2.9021759 58.36843363 -10.15234375 60.78515625 C-22.21438703 61.53722609 -31.50420362 60.76301727 -41.07421875 52.8828125 C-48.51924629 45.3678129 -51.65328974 36.48684711 -51.65209961 26.08984375 C-51.36901657 16.88076591 -47.58347804 9.76048706 -41.02734375 3.34765625 C-28.11402808 -7.01327877 -14.22197124 -8.02728322 0 0 Z " fill="#0E5072" transform="translate(278.15234375,140.21484375)"/>
<path d="M0 0 C4.01021155 2.46221381 6.80492786 4.56795785 9.3125 8.5625 C10.04919922 9.70912109 10.04919922 9.70912109 10.80078125 10.87890625 C14.35493428 17.16524206 13.79703836 25.47369958 12.57421875 32.41796875 C10.22350926 39.64315558 4.91359885 45.21872518 -1.5625 49 C-8.67448731 52.18253313 -16.38250845 52.32927787 -23.8359375 50.18359375 C-31.00878318 47.0165065 -36.73752461 41.46976846 -40.28125 34.46875 C-41.09044333 31.68934683 -41.18702032 30.62199601 -40 28 C-29.48227642 15.95589477 -13.86928398 7.56309392 0 0 Z " fill="#0D5071" transform="translate(100,19)"/>
</svg>
