<?xml version="1.0" encoding="UTF-8"?>
<svg version="1.1" xmlns="http://www.w3.org/2000/svg" width="900" height="900">
<path d="M0 0 C297 0 594 0 900 0 C900 297 900 594 900 900 C603 900 306 900 0 900 C0 603 0 306 0 0 Z " fill="#FEFEFE" transform="translate(0,0)"/>
<path d="M0 0 C0.70894409 -0.00335861 1.41788818 -0.00671722 2.14831543 -0.01017761 C4.50327279 -0.01971449 6.85815927 -0.02163209 9.21313477 -0.02270508 C10.84359263 -0.02591578 12.4740502 -0.0292797 14.10450745 -0.03279114 C17.52687244 -0.03878927 20.94921215 -0.04063034 24.37158203 -0.04003906 C28.76463334 -0.0399374 33.15752315 -0.05359026 37.55053616 -0.07081127 C40.91934458 -0.08191056 44.28811371 -0.08395891 47.65693855 -0.08342934 C49.27691263 -0.08461256 50.89688762 -0.0890534 52.5168438 -0.0967617 C54.77957456 -0.10652 57.04195147 -0.10370026 59.3046875 -0.09765625 C60.59406723 -0.09908127 61.88344696 -0.10050629 63.2118988 -0.10197449 C66.21704102 0.14526367 66.21704102 0.14526367 68.21704102 2.14526367 C68.90903198 4.68644059 69.52267248 7.2020297 70.09204102 9.77026367 C71.30401767 14.9399592 72.60539031 19.4570732 75.21313477 24.11010742 C78.86782588 31.51903378 80.49824471 40.07652508 82.44360352 48.06713867 C84.7466895 57.23295563 87.53991227 66.27676438 90.22265625 75.33764648 C91.39417363 79.30550377 92.54112878 83.27896789 93.65844727 87.26245117 C96.0602778 95.81281012 98.53685938 104.30060844 101.40454102 112.70776367 C103.35614928 118.43219286 105.06663885 124.1205805 106.45532227 130.01245117 C107.37374434 133.78975631 108.41528627 137.52852373 109.46704102 141.27026367 C111.65102446 149.07251473 113.78961538 156.88650845 115.90454102 164.70776367 C116.35071777 166.34865967 116.35071777 166.34865967 116.8059082 168.02270508 C118.42871419 174.03777087 119.91903341 180.05166147 121.21704102 186.14526367 C121.87704102 186.14526367 122.53704102 186.14526367 123.21704102 186.14526367 C124.39721715 189.43289718 125.3494671 192.66296339 126.02954102 196.08276367 C126.88627208 200.10076596 128.11913557 203.89019081 129.46704102 207.77026367 C132.08666842 215.3208965 134.07438986 223.00381685 135.9855957 230.76098633 C137.43240557 236.52715577 139.18239867 242.0457256 141.3293457 247.59130859 C142.53280449 251.053735 143.20510155 254.5428135 143.82250977 258.14916992 C144.13764512 260.20755202 144.13764512 260.20755202 145.21704102 262.14526367 C146.20704102 262.14526367 147.19704102 262.14526367 148.21704102 262.14526367 C149.68822302 258.75303408 150.55780636 255.67268424 151.09204102 252.02026367 C151.94671294 246.98041259 153.44090271 242.47114091 155.27563477 237.71166992 C156.10824774 235.44184949 156.74006628 233.24809888 157.27954102 230.89526367 C158.21704102 227.14526367 158.21704102 227.14526367 159.71704102 223.77026367 C160.93652464 220.82317825 161.56627757 218.62940439 162.09985352 215.55151367 C163.13175239 210.18348565 164.77802141 205.16758066 166.59204102 200.02026367 C168.78062924 193.65274478 170.80147753 187.32623531 172.34204102 180.77026367 C173.86426819 174.33007176 175.84801943 168.16780355 178.00219727 161.91479492 C179.23528353 158.08865909 180.23123372 154.24154351 181.15454102 150.33276367 C182.73072527 143.67467346 184.74735994 137.23837097 187.0234375 130.78662109 C188.42314578 126.76380792 189.58785983 122.75649621 190.58422852 118.61401367 C192.45448064 110.92877876 194.87800928 103.4262722 197.27954102 95.89526367 C197.95381378 93.77618998 198.62694691 91.65677851 199.29722595 89.53643799 C199.90206842 87.62363894 200.51072273 85.71204643 201.11962891 83.80053711 C202.28029289 79.93458358 203.26387431 76.06718178 204.21704102 72.14526367 C204.80255336 69.76307436 205.45392097 67.48231881 206.21704102 65.14526367 C206.87704102 64.81526367 207.53704102 64.48526367 208.21704102 64.14526367 C208.93650724 61.5999252 209.54140684 59.10282729 210.09204102 56.52026367 C210.44723065 54.94308383 210.80402811 53.3662653 211.16235352 51.78979492 C211.34056641 50.99911621 211.5187793 50.2084375 211.70239258 49.39379883 C214.09003343 38.96202831 217.20771414 28.74618078 220.34204102 18.52026367 C220.69105469 17.38081299 221.04006836 16.2413623 221.3996582 15.06738281 C221.73384766 13.98706787 222.06803711 12.90675293 222.41235352 11.79370117 C222.71157715 10.82609863 223.01080078 9.85849609 223.3190918 8.86157227 C224.18980986 6.22763829 225.06121928 3.66822236 226.21704102 1.14526367 C229.15421048 -0.32332106 231.75851345 0.01792072 235.03759766 0.01586914 C236.08901192 0.01324066 236.08901192 0.01324066 237.16166687 0.01055908 C239.48353536 0.00615001 241.80532797 0.00907492 244.12719727 0.01245117 C245.73620112 0.01177794 247.34520487 0.01080775 248.95420837 0.009552 C252.32771777 0.00807637 255.70120071 0.01022555 259.07470703 0.01489258 C263.40836978 0.02059436 267.74197066 0.01730717 272.07563114 0.01132011 C275.39807099 0.00771477 278.72049605 0.00885288 282.04293633 0.01144791 C283.64140264 0.01211701 285.23987027 0.01128932 286.83833504 0.00896835 C289.06755277 0.00644176 291.2966688 0.01028227 293.52587891 0.01586914 C295.43210777 0.01706253 295.43210777 0.01706253 297.37684631 0.01828003 C300.21704102 0.14526367 300.21704102 0.14526367 301.21704102 1.14526367 C301.31414904 2.76645209 301.34075692 4.39189813 301.34008884 6.01599216 C301.34207989 7.07693547 301.34407094 8.13787877 301.34612232 9.23097187 C301.34320948 10.41090731 301.34029664 11.59084275 301.33729553 12.80653381 C301.33857717 14.66991533 301.33857717 14.66991533 301.3398847 16.57094091 C301.34125296 20.03478084 301.33810522 23.49856496 301.33310664 26.96239817 C301.32880565 30.69179514 301.33024831 34.42119024 301.33100891 38.15058899 C301.33153437 44.61724828 301.32838528 51.08389751 301.32277107 57.55055428 C301.31465904 66.90036218 301.31204116 76.25016519 301.31078308 85.59997623 C301.30859209 100.76782546 301.30193074 115.93566932 301.29248047 131.10351562 C301.28330756 145.84147108 301.27622613 160.57942508 301.27197266 175.31738281 C301.27157857 176.67905871 301.27157857 176.67905871 301.27117652 178.06824321 C301.26987153 182.62213023 301.26860781 187.17601726 301.26736462 191.72990429 C301.25699055 229.53502803 301.2390966 267.34014508 301.21704102 305.14526367 C287.68704102 305.14526367 274.15704102 305.14526367 260.21704102 305.14526367 C260.21704102 218.35526367 260.21704102 131.56526367 260.21704102 42.14526367 C258.89704102 42.14526367 257.57704102 42.14526367 256.21704102 42.14526367 C256.09772217 42.98984131 255.97840332 43.83441895 255.85546875 44.70458984 C255.18063697 48.34145574 254.16554647 51.68542776 253.00219727 55.19604492 C252.78639511 55.85428757 252.57059296 56.51253021 252.34825134 57.1907196 C251.66279656 59.28111614 250.97187783 61.36963717 250.27954102 63.45776367 C249.36962009 66.20224907 248.46356095 68.94791684 247.56469727 71.69604492 C247.24270859 72.67977585 247.24270859 72.67977585 246.91421509 73.68338013 C245.76840801 77.24245398 244.78359547 80.77734889 244.02563477 84.43823242 C243.21704102 88.14526367 243.21704102 88.14526367 241.21704102 91.14526367 C240.53078885 93.58174718 239.91313855 95.994724 239.34204102 98.45776367 C237.50734007 106.08785883 235.41708491 113.61149991 233.21704102 121.14526367 C232.90766602 122.24870117 232.59829102 123.35213867 232.27954102 124.48901367 C231.28361799 127.91616055 230.21126167 131.30670146 229.11181641 134.70141602 C226.93565235 141.43351378 224.90773985 148.13389888 223.27954102 155.02026367 C221.5217083 162.36918617 219.1623979 169.43396769 216.71337891 176.57836914 C215.1323183 181.23936817 213.72474375 185.8195568 212.71704102 190.64526367 C211.53259385 196.29137072 209.773242 201.63524427 207.90454102 207.08276367 C205.07973162 215.32594267 202.65328227 223.60918656 200.42358398 232.03125 C198.57391469 238.97153087 196.47333841 245.80338588 194.26464844 252.63671875 C192.55166724 257.97355598 191.08792714 263.32898266 189.79907227 268.78588867 C189.21704102 271.14526367 189.21704102 271.14526367 188.15454102 274.20776367 C187.26955377 276.9807237 186.76245197 279.59196423 186.27954102 282.45776367 C185.5247085 286.83816966 184.43588945 290.88682281 182.93969727 295.06713867 C182.24065451 297.07735893 181.6862409 299.08544996 181.15454102 301.14526367 C180.84516602 302.13526367 180.53579102 303.12526367 180.21704102 304.14526367 C177.44853279 305.52951779 175.21284917 305.2648633 172.11499023 305.25878906 C170.83381317 305.25871353 169.55263611 305.258638 168.2326355 305.25856018 C166.82899945 305.25345315 165.42536379 305.24823715 164.02172852 305.24291992 C162.58969166 305.24105513 161.15765417 305.23963151 159.72561646 305.2386322 C155.95430748 305.23481186 152.18303694 305.22498569 148.41174316 305.21392822 C144.56429565 305.20370373 140.71684194 305.19913235 136.86938477 305.1940918 C129.31858598 305.183363 121.76781888 305.16629236 114.21704102 305.14526367 C113.94619186 304.11692413 113.67534271 303.08858459 113.39628601 302.02908325 C113.03542261 300.66560973 112.67448205 299.30215662 112.31347656 297.9387207 C112.1356237 297.2626326 111.95777084 296.58654449 111.7745285 295.88996887 C110.64995906 291.65030737 109.38457528 287.50145077 107.94995117 283.35913086 C106.4140196 278.71961471 105.19406545 273.98286949 103.90454102 269.27026367 C101.78372629 261.60049873 99.59455824 253.96977081 97.15454102 246.39526367 C91.71196593 229.46945323 86.30326744 212.17822239 83.21704102 194.64526367 C82.4754385 190.71411403 81.10411444 187.61933038 79.22094727 184.11010742 C75.9028378 177.61590874 74.4794954 170.3446424 72.7722168 163.30273438 C71.69913065 158.92190367 70.46990548 154.63026658 69.09204102 150.33276367 C67.55934204 145.53268316 66.54007688 140.87263318 65.90454102 135.87573242 C65.28257037 133.40551948 64.53211992 131.72954804 63.34594727 129.50854492 C60.78900076 124.59839956 59.50550382 119.49085233 58.15454102 114.14526367 C56.67280325 108.37552618 55.14831736 102.75725378 52.97363281 97.20922852 C51.4452175 93.03974704 50.33660207 88.73555496 49.15454102 84.45776367 C47.70837528 79.23772462 46.23592045 74.17443654 44.21704102 69.14526367 C43.86024043 67.42469198 43.54885241 65.69418096 43.27954102 63.95776367 C41.99440995 56.44936013 39.67908798 49.34201634 37.21704102 42.14526367 C36.22704102 42.14526367 35.23704102 42.14526367 34.21704102 42.14526367 C34.2176106 42.97627017 34.2176106 42.97627017 34.21819168 43.82406467 C34.24054698 76.62469283 34.25771603 109.42531909 34.26810635 142.22595316 C34.26935712 146.16023832 34.27065144 150.09452346 34.27197266 154.02880859 C34.27223497 154.81208735 34.27249728 155.59536611 34.27276754 156.40238059 C34.27712441 169.10196538 34.28501206 181.80154566 34.29419381 194.50112777 C34.30352986 207.52226521 34.30909652 220.54340028 34.31112951 233.56454092 C34.31250484 241.60581707 34.31685596 249.64708048 34.32495748 257.68835271 C34.330845 263.84389686 34.3315001 269.99943121 34.3301487 276.1549778 C34.33042523 278.68788608 34.33243305 281.22079483 34.33624649 283.75370026 C34.34117659 287.19531037 34.34004184 290.63686472 34.33729553 294.07847595 C34.34020837 295.09499156 34.34312122 296.11150718 34.34612232 297.15882629 C34.34413128 298.07346698 34.34214023 298.98810767 34.34008884 299.93046474 C34.34065842 301.12373588 34.34065842 301.12373588 34.34123951 302.34111351 C34.21704102 304.14526367 34.21704102 304.14526367 33.21704102 305.14526367 C30.27168531 305.2463672 27.35026542 305.28495647 24.40454102 305.27807617 C23.07845825 305.27951126 23.07845825 305.27951126 21.72558594 305.28097534 C19.85261972 305.28165719 17.97965116 305.2798026 16.10668945 305.27563477 C13.22935714 305.27028656 10.35218094 305.2755796 7.47485352 305.28198242 C5.659749 305.28132164 3.84464459 305.28004048 2.02954102 305.27807617 C1.16288818 305.2801004 0.29623535 305.28212463 -0.59667969 305.28421021 C-6.66800889 305.26021377 -6.66800889 305.26021377 -7.78295898 304.14526367 C-7.88095078 302.53025068 -7.90851445 300.91092895 -7.90880013 299.29294586 C-7.91140787 298.23610265 -7.91401562 297.17925944 -7.91670239 296.09039068 C-7.91447167 294.91502831 -7.91224095 293.73966594 -7.90994263 292.52868652 C-7.91150262 291.2912213 -7.91306261 290.05375607 -7.91466987 288.7787919 C-7.9179833 285.32828596 -7.91677059 281.87783395 -7.91368365 278.42733121 C-7.91143151 274.71222826 -7.91490823 270.9971302 -7.91766357 267.2820282 C-7.92212227 259.99794834 -7.92114437 252.71387875 -7.91825093 245.42979848 C-7.91599729 239.51259042 -7.91568421 233.59538525 -7.91677475 227.67817688 C-7.91692798 226.83766664 -7.91708122 225.99715639 -7.91723909 225.13117614 C-7.9175588 223.42397241 -7.91788301 221.71676867 -7.91821168 220.00956494 C-7.92106677 203.98163103 -7.91777901 187.95370283 -7.91241132 171.92576987 C-7.90794325 158.15762301 -7.90871918 144.38948459 -7.91333008 130.62133789 C-7.91867534 114.6527796 -7.92079207 98.68422631 -7.91771781 82.71566725 C-7.91739925 81.01456165 -7.91708488 79.31345606 -7.91677475 77.61235046 C-7.91654334 76.3567159 -7.91654334 76.3567159 -7.91630725 75.07571498 C-7.91544195 69.16207313 -7.91690525 63.24843445 -7.9192543 57.33479309 C-7.92205197 50.13312638 -7.92131474 42.93147057 -7.91597356 35.72980511 C-7.91333609 32.05178421 -7.91233223 28.37378152 -7.91562271 24.69576073 C-7.91912786 20.717777 -7.91495741 16.73982345 -7.90994263 12.76184082 C-7.91217335 11.58647845 -7.91440407 10.41111608 -7.91670239 9.20013666 C-7.91409464 8.14329345 -7.9114869 7.08645024 -7.90880013 5.99758148 C-7.90863777 5.07806119 -7.90847542 4.15854091 -7.90830815 3.21115637 C-7.63086504 -1.36141251 -3.76589386 0.01114 0 0 Z " fill="#030303" transform="translate(179.782958984375,114.854736328125)"/>
<path d="M0 0 C0.86301727 -0.00776459 1.72603455 -0.01552917 2.61520386 -0.02352905 C41.41941885 -0.29818809 41.41941885 -0.29818809 53.1640625 8.75390625 C57.08603364 11.62955647 61.66033636 13.35372495 66.08789062 15.32617188 C70.34159766 17.26783762 73.82628112 19.26833607 77.375 22.375 C78.52548828 23.27798828 78.52548828 23.27798828 79.69921875 24.19921875 C96.18746311 37.19904117 112.42794048 53.11203711 117.79296875 74.19140625 C118.36183581 76.3256122 119.10130597 78.23539205 120 80.25 C121.98241404 84.75548645 122.4961634 88.19727441 122.4375 93.125 C122.42847656 94.10984375 122.41945313 95.0946875 122.41015625 96.109375 C122.39275391 97.23085938 122.39275391 97.23085938 122.375 98.375 C116.44856401 98.49849116 110.52287471 98.58928772 104.59545898 98.6496582 C102.57872475 98.67482071 100.56208187 98.7089543 98.5456543 98.75219727 C95.6486968 98.81277325 92.75294339 98.84119169 89.85546875 98.86328125 C88.95225388 98.88908768 88.049039 98.9148941 87.11845398 98.94148254 C84.76746006 98.94253871 82.66685461 98.89911281 80.375 98.375 C78.38330078 96.07177734 78.38330078 96.07177734 77.375 93.375 C76.84261719 92.17488281 76.31023437 90.97476563 75.76171875 89.73828125 C75.19464413 88.38830139 74.62826449 87.03802944 74.0625 85.6875 C65.78546081 66.51630479 53.88037813 54.07467887 35.375 44.375 C35.375 43.715 35.375 43.055 35.375 42.375 C34.79234375 42.26542969 34.2096875 42.15585937 33.609375 42.04296875 C26.15435212 40.60119546 26.15435212 40.60119546 22.75976562 39.6159668 C14.89065691 37.33254522 7.37087168 36.91099074 -0.75048828 36.98388672 C-2.85906707 36.99987916 -4.96569997 36.98399871 -7.07421875 36.96484375 C-16.87878576 36.95201726 -26.06086877 38.26229272 -35.625 40.375 C-35.625 41.035 -35.625 41.695 -35.625 42.375 C-36.38683594 42.66632812 -37.14867187 42.95765625 -37.93359375 43.2578125 C-60.05743526 52.04106044 -73.98682415 68.58153451 -83.6875 89.9375 C-88.03823234 100.33463472 -90.30313087 111.13038475 -92.3125 122.1875 C-92.43197998 122.84403564 -92.55145996 123.50057129 -92.67456055 124.17700195 C-97.65344446 153.23190817 -94.81290158 182.78436363 -87.1875 211.0625 C-86.91156006 212.09608643 -86.63562012 213.12967285 -86.35131836 214.19458008 C-84.61112991 220.23635795 -82.49019491 224.43231153 -78.625 229.375 C-77.87216502 230.89543143 -77.15763861 232.43603591 -76.5 234 C-69.87617001 247.66425307 -57.41421627 259.38719836 -43.625 265.375 C-43.625 266.035 -43.625 266.695 -43.625 267.375 C-42.47 267.643125 -41.315 267.91125 -40.125 268.1875 C-36.55703558 269.06692785 -33.24713367 270.23867902 -29.875 271.69140625 C-22.21912718 274.01740928 -13.98679947 273.59331462 -6.0637207 273.61523438 C-3.95938958 273.62489946 -1.85605455 273.65598157 0.24804688 273.6875 C12.82307449 273.78589687 23.84694444 271.3880805 35.375 266.375 C36.18195313 266.08238281 36.98890625 265.78976562 37.8203125 265.48828125 C42.84684601 263.2978194 47.0380485 259.68411906 51.375 256.375 C52.01953125 255.900625 52.6640625 255.42625 53.328125 254.9375 C62.94545444 247.38744698 68.55220535 236.67172859 73.6484375 225.84375 C75.375 222.375 75.375 222.375 76.9765625 220.28125 C78.87389903 217.89889725 78.87389903 217.89889725 80.375 212.375 C94.235 212.375 108.095 212.375 122.375 212.375 C122.375 226.199 122.375 226.199 119.375 233.375 C119.01148438 234.31085938 118.64796875 235.24671875 118.2734375 236.2109375 C107.10767657 264.23339558 87.90088548 283.35159056 62.375 298.375 C61.69695312 298.808125 61.01890625 299.24125 60.3203125 299.6875 C54.19700991 303.52514586 47.53409148 304.7421329 40.375 304.375 C40.375 305.035 40.375 305.695 40.375 306.375 C38.45987728 306.88088147 36.54283078 307.37948391 34.625 307.875 C33.02398438 308.29265625 33.02398438 308.29265625 31.390625 308.71875 C28.375 309.375 28.375 309.375 24.375 309.375 C24.375 310.035 24.375 310.695 24.375 311.375 C19.59417374 312.31394807 14.93090345 312.55049058 10.07421875 312.578125 C9.27957718 312.58382507 8.48493561 312.58952515 7.66621399 312.59539795 C5.98443923 312.60481442 4.30264629 312.61136855 2.62084961 312.61523438 C0.10820929 312.62482552 -2.40357085 312.65583157 -4.91601562 312.6875 C-20.35089205 312.78818642 -34.66815695 310.04267803 -49.625 306.375 C-49.625 305.715 -49.625 305.055 -49.625 304.375 C-50.44291016 304.22804688 -50.44291016 304.22804688 -51.27734375 304.078125 C-56.35588045 303.07109892 -60.77637644 301.58267958 -65.44921875 299.36328125 C-67.44938749 298.45476654 -69.40855397 297.78523245 -71.5 297.125 C-77.24093211 295.00335118 -81.85332047 291.11736916 -86.625 287.375 C-87.64464844 286.58480469 -88.66429687 285.79460937 -89.71484375 284.98046875 C-96.32050698 279.69094018 -101.60402273 274.16473063 -106.625 267.375 C-107.72328125 266.05435547 -107.72328125 266.05435547 -108.84375 264.70703125 C-110.625 262.375 -110.625 262.375 -110.625 260.375 C-111.615 260.045 -112.605 259.715 -113.625 259.375 C-114.72827148 257.66015625 -114.72827148 257.66015625 -115.74609375 255.4375 C-116.12443359 254.62410156 -116.50277344 253.81070313 -116.89257812 252.97265625 C-117.27865234 252.11542969 -117.66472656 251.25820313 -118.0625 250.375 C-118.44470703 249.54871094 -118.82691406 248.72242188 -119.22070312 247.87109375 C-120.36946631 245.37853118 -121.49762956 242.87729698 -122.625 240.375 C-123.14634521 239.25013184 -123.14634521 239.25013184 -123.67822266 238.10253906 C-135.63517511 211.9989272 -138.85443269 184.5526143 -138.9375 156.1875 C-138.94144775 155.2118811 -138.94539551 154.23626221 -138.94946289 153.2310791 C-138.97783904 138.23058472 -138.08777988 124.02997913 -134.625 109.375 C-133.965 109.375 -133.305 109.375 -132.625 109.375 C-132.60373047 108.47974609 -132.60373047 108.47974609 -132.58203125 107.56640625 C-131.98750665 96.75248584 -129.10477709 84.9466068 -123.765625 75.43359375 C-122.83429533 73.75273507 -121.98967574 72.02408201 -121.171875 70.28515625 C-112.06855552 51.03631482 -96.18671989 28.91613299 -76.625 19.375 C-75.965 19.375 -75.305 19.375 -74.625 19.375 C-74.625 18.715 -74.625 18.055 -74.625 17.375 C-67.22426026 12.21690866 -57.99068581 9.54719069 -49.625 6.375 C-48.99956299 6.12258545 -48.37412598 5.8701709 -47.72973633 5.61010742 C-32.61583396 -0.3660198 -16.00991019 0.06560624 0 0 Z " fill="#040404" transform="translate(645.625,472.625)"/>
<path d="M0 0 C2.08671736 0.00315324 4.17200232 -0.02035543 6.25854492 -0.0456543 C16.84999288 -0.09686459 27.1255261 0.56678889 36.2878418 6.31567383 C37.1747168 6.58379883 38.0615918 6.85192383 38.9753418 7.12817383 C46.61312064 9.86624549 53.10641304 14.74660964 59.37768555 19.80004883 C61.42043864 21.46375689 61.42043864 21.46375689 64.2878418 23.31567383 C64.7415918 24.07879883 65.1953418 24.84192383 65.6628418 25.62817383 C67.23785705 28.47500936 67.23785705 28.47500936 69.9128418 30.94067383 C72.2878418 33.31567383 72.2878418 33.31567383 73.2878418 36.31567383 C73.9065918 36.60442383 74.5253418 36.89317383 75.1628418 37.19067383 C78.03623779 38.71188347 78.90533771 40.41241525 80.2878418 43.31567383 C80.2878418 44.63567383 80.2878418 45.95567383 80.2878418 47.31567383 C80.9478418 47.31567383 81.6078418 47.31567383 82.2878418 47.31567383 C82.9478418 49.62567383 83.6078418 51.93567383 84.2878418 54.31567383 C84.9478418 54.31567383 85.6078418 54.31567383 86.2878418 54.31567383 C94.03663067 73.52485634 96.07448122 99.47382966 88.2253418 118.95239258 C87.00658546 122.02467417 86.67252993 125.04582469 86.2878418 128.31567383 C85.2978418 128.64567383 84.3078418 128.97567383 83.2878418 129.31567383 C82.4033529 131.44653799 82.4033529 131.44653799 81.8503418 134.00317383 C80.62006335 138.51635317 79.24519865 141.69052671 76.2878418 145.31567383 C75.6278418 145.31567383 74.9678418 145.31567383 74.2878418 145.31567383 C74.0815918 146.03754883 73.8753418 146.75942383 73.6628418 147.50317383 C72.18772874 150.52045053 70.50600838 151.96516418 67.8659668 153.98364258 C66.21141612 155.38018164 65.02640381 156.84053148 63.7253418 158.56567383 C61.01660456 161.62168507 60.11963752 161.69430155 56.2878418 162.31567383 C55.58846648 163.63214502 54.92055046 164.96589534 54.2878418 166.31567383 C52.1628418 167.06567383 52.1628418 167.06567383 50.2878418 167.31567383 C50.2878418 167.97567383 50.2878418 168.63567383 50.2878418 169.31567383 C48.33198855 170.32051586 46.37307943 171.31941188 44.4128418 172.31567383 C43.32229492 172.87254883 42.23174805 173.42942383 41.1081543 174.00317383 C38.2878418 175.31567383 38.2878418 175.31567383 36.2878418 175.31567383 C36.2878418 175.97567383 36.2878418 176.63567383 36.2878418 177.31567383 C33.9778418 177.64567383 31.6678418 177.97567383 29.2878418 178.31567383 C29.2878418 178.97567383 29.2878418 179.63567383 29.2878418 180.31567383 C27.3078418 180.31567383 25.3278418 180.31567383 23.2878418 180.31567383 C23.2878418 180.97567383 23.2878418 181.63567383 23.2878418 182.31567383 C15.98493348 183.46934522 8.79149057 183.600596 1.4128418 183.62817383 C0.72275024 183.63112457 0.03265869 183.63407532 -0.67834473 183.63711548 C-26.91324829 183.66266846 -26.91324829 183.66266846 -33.4543457 177.73754883 C-33.86942383 177.26833008 -34.28450195 176.79911133 -34.7121582 176.31567383 C-35.6609082 176.00629883 -36.6096582 175.69692383 -37.5871582 175.37817383 C-41.01091817 174.21409544 -42.93842173 172.59156016 -45.7121582 170.31567383 C-46.5990332 169.96504883 -47.4859082 169.61442383 -48.3996582 169.25317383 C-50.7121582 168.31567383 -50.7121582 168.31567383 -52.7121582 165.31567383 C-55.26399224 164.11117079 -55.26399224 164.11117079 -57.7121582 163.31567383 C-57.7121582 162.65567383 -57.7121582 161.99567383 -57.7121582 161.31567383 C-58.29868164 161.0449707 -58.88520508 160.77426758 -59.48950195 160.49536133 C-64.27133628 157.95737545 -68.89134932 153.96171199 -71.7121582 149.31567383 C-71.7121582 148.65567383 -71.7121582 147.99567383 -71.7121582 147.31567383 C-72.3721582 147.31567383 -73.0321582 147.31567383 -73.7121582 147.31567383 C-78.48274004 141.83209742 -80.58659935 136.4066946 -81.7121582 129.31567383 C-82.3721582 129.31567383 -83.0321582 129.31567383 -83.7121582 129.31567383 C-92.41484893 113.45865178 -91.6831614 87.73106657 -88.7121582 70.31567383 C-88.0521582 70.31567383 -87.3921582 70.31567383 -86.7121582 70.31567383 C-86.7534082 69.40817383 -86.7946582 68.50067383 -86.8371582 67.56567383 C-86.7121582 64.31567383 -86.7121582 64.31567383 -85.7746582 62.47192383 C-84.48556673 59.85582642 -84.06583499 57.43773456 -83.5871582 54.56567383 C-83.41958008 53.58083008 -83.25200195 52.59598633 -83.0793457 51.58129883 C-82.95817383 50.83364258 -82.83700195 50.08598633 -82.7121582 49.31567383 C-82.0521582 49.31567383 -81.3921582 49.31567383 -80.7121582 49.31567383 C-80.4440332 48.61442383 -80.1759082 47.91317383 -79.8996582 47.19067383 C-76.60104709 39.20456272 -76.60104709 39.20456272 -73.7121582 36.31567383 C-72.7221582 36.31567383 -71.7321582 36.31567383 -70.7121582 36.31567383 C-70.5265332 35.49067383 -70.3409082 34.66567383 -70.1496582 33.81567383 C-67.69875426 27.84825553 -63.62971333 23.11051483 -57.8996582 20.06567383 C-54.64216054 18.69104055 -54.64216054 18.69104055 -53.80200195 16.31567383 C-52.7121582 14.31567383 -52.7121582 14.31567383 -50.5480957 13.26879883 C-49.73598633 13.03676758 -48.92387695 12.80473633 -48.0871582 12.56567383 C-47.26989258 12.32333008 -46.45262695 12.08098633 -45.6105957 11.83129883 C-44.98411133 11.66114258 -44.35762695 11.49098633 -43.7121582 11.31567383 C-43.7121582 10.65567383 -43.7121582 9.99567383 -43.7121582 9.31567383 C-42.80336914 9.06043945 -42.80336914 9.06043945 -41.8762207 8.80004883 C-36.58987463 7.27107489 -31.55445868 5.51698243 -26.5246582 3.28051758 C-17.81418555 0.29234154 -9.13981218 -0.02878513 0 0 Z " fill="#CBEAD4" transform="translate(325.712158203125,534.684326171875)"/>
<path d="M0 0 C13.2 0 26.4 0 40 0 C40.33 88.11 40.66 176.22 41 267 C98.09 267.33 155.18 267.66 214 268 C214 279.88 214 291.76 214 304 C212.19156766 305.80843234 209.70833304 305.12529707 207.30070734 305.13374341 C206.47553031 305.13151268 205.65035329 305.12928196 204.8001709 305.12698364 C203.93022539 305.12854363 203.06027987 305.13010362 202.16397238 305.13171089 C199.22583454 305.13572473 196.28774766 305.13252976 193.34960938 305.12939453 C191.2525886 305.1307484 189.15556806 305.13252825 187.05854797 305.13470459 C181.34590642 305.13928062 175.63328283 305.13748867 169.92064095 305.1343255 C163.95665563 305.13180277 157.9926719 305.1341392 152.02868652 305.13571167 C142.01114626 305.13753362 131.99361336 305.13512639 121.97607422 305.13037109 C110.37617894 305.12492843 98.77630124 305.12669107 87.17640638 305.1321975 C77.23674859 305.1367279 67.2970961 305.13737954 57.35743761 305.13475883 C51.41225426 305.13319565 45.46707919 305.13300339 39.52189636 305.13629532 C33.93402975 305.13917298 28.3461859 305.13720028 22.75832176 305.13140106 C20.70111822 305.1300729 18.64391278 305.13046852 16.58670998 305.13266373 C13.79105668 305.13537303 10.99547759 305.13199681 8.1998291 305.12698364 C6.96206356 305.13032973 6.96206356 305.13032973 5.69929266 305.13374341 C0.11414983 305.11414983 0.11414983 305.11414983 -1 304 C-1.09799179 302.38498701 -1.12555547 300.76566528 -1.12584114 299.14768219 C-1.12844889 298.09083898 -1.13105664 297.03399577 -1.13374341 295.94512701 C-1.13151268 294.76976464 -1.12928196 293.59440227 -1.12698364 292.38342285 C-1.12854363 291.14595763 -1.13010362 289.9084924 -1.13171089 288.63352823 C-1.13502432 285.18302229 -1.1338116 281.73257028 -1.13072467 278.28206754 C-1.12847253 274.56696458 -1.13194925 270.85186652 -1.13470459 267.13676453 C-1.13916328 259.85268467 -1.13818538 252.56861508 -1.13529195 245.28453481 C-1.1330383 239.36732675 -1.13272522 233.45012158 -1.13381577 227.53291321 C-1.133969 226.69240297 -1.13412223 225.85189272 -1.13428011 224.98591247 C-1.13459982 223.27870874 -1.13492403 221.571505 -1.1352527 219.86430126 C-1.13810778 203.83636736 -1.13482003 187.80843916 -1.12945233 171.78050619 C-1.12498427 158.01235934 -1.12576019 144.24422092 -1.13037109 130.47607422 C-1.13571636 114.50751592 -1.13783309 98.53896264 -1.13475883 82.57040358 C-1.13444026 80.86929798 -1.13412589 79.16819239 -1.13381577 77.46708679 C-1.13358435 76.21145223 -1.13358435 76.21145223 -1.13334826 74.9304513 C-1.13248296 69.01680946 -1.13394626 63.10317078 -1.13629532 57.18952942 C-1.13909299 49.9878627 -1.13835576 42.7862069 -1.13301457 35.58454144 C-1.13037711 31.90652053 -1.12937325 28.22851785 -1.13266373 24.55049706 C-1.13616887 20.57251333 -1.13199842 16.59455978 -1.12698364 12.61657715 C-1.12921436 11.44121478 -1.13144509 10.2658524 -1.13374341 9.05487299 C-1.13113566 7.99802978 -1.12852791 6.94118657 -1.12584114 5.85231781 C-1.12567879 4.93279752 -1.12551644 4.01327724 -1.12534916 3.0658927 C-1 1 -1 1 0 0 Z " fill="#040404" transform="translate(534,115)"/>
<path d="M0 0 C0.99 0.495 0.99 0.495 2 1 C2 88.12 2 175.24 2 265 C58.43 265 114.86 265 173 265 C173 265.66 173 266.32 173 267 C150.59125806 267.02332665 128.18251812 267.04097802 105.77376652 267.05181217 C95.36976275 267.05697563 84.96576651 267.06401926 74.56176758 267.07543945 C65.49709726 267.08538478 56.4324324 267.09185307 47.36775678 267.09408849 C42.56497392 267.09539586 37.76220666 267.09848333 32.95942879 267.10573006 C28.444332 267.11248789 23.92925732 267.11461745 19.41415596 267.11310768 C17.7520282 267.11338412 16.08989974 267.11539064 14.42777634 267.11920547 C12.16850308 267.12413904 9.90931466 267.12299955 7.65003967 267.12025452 C6.38257432 267.12117631 5.11510897 267.1220981 3.80923557 267.12304783 C1 267 1 267 0 266 C-0.09659172 264.57692835 -0.12371842 263.14907742 -0.12304783 261.72273159 C-0.12503888 260.79415732 -0.12702993 259.86558305 -0.12908131 258.90887016 C-0.12616847 257.87679076 -0.12325563 256.84471135 -0.12025452 255.78135681 C-0.12110894 254.69427746 -0.12196337 253.60719811 -0.12284368 252.48717695 C-0.12450169 248.81427026 -0.11897188 245.1414084 -0.11352539 241.46850586 C-0.11324356 238.84770204 -0.11340117 236.22689814 -0.1139679 233.60609436 C-0.11449332 227.9481096 -0.11134462 222.29013633 -0.10573006 216.63215446 C-0.09761751 208.45157189 -0.09500009 200.27099491 -0.09374207 192.09040875 C-0.09155116 178.81930255 -0.08489003 165.54820248 -0.07543945 152.27709961 C-0.06626633 139.38224315 -0.05918501 126.48738836 -0.05493164 113.5925293 C-0.05466892 112.7982512 -0.05440619 112.0039731 -0.05413551 111.18562596 C-0.05283051 107.20113365 -0.05156679 103.21664133 -0.05032361 99.232149 C-0.03994979 66.15476154 -0.02233043 33.07738159 0 0 Z " fill="#B6B6B6" transform="translate(574,116)"/>
<path d="M0 0 C0.33 0 0.66 0 1 0 C1 99.66 1 199.32 1 302 C13.87 302 26.74 302 40 302 C40.33 215.87 40.66 129.74 41 41 C41.33 41 41.66 41 42 41 C42.02286545 74.36022845 42.04049775 107.72045495 42.05106533 141.08068949 C42.05231611 145.01497464 42.05361042 148.94925979 42.05493164 152.88354492 C42.05519395 153.66682368 42.05545626 154.45010244 42.05572652 155.25711692 C42.0600834 167.95670171 42.06797104 180.65628199 42.0771528 193.3558641 C42.08648885 206.37700154 42.09205551 219.3981366 42.09408849 232.41927725 C42.09546382 240.4605534 42.09981495 248.50181681 42.10791647 256.54308904 C42.11380398 262.69863319 42.11445909 268.85416754 42.11310768 275.00971413 C42.11338422 277.54262241 42.11539204 280.07553115 42.11920547 282.60843658 C42.12413557 286.05004669 42.12300083 289.49160105 42.12025452 292.93321228 C42.12316736 293.94972789 42.1260802 294.9662435 42.12908131 296.01356262 C42.12709026 296.92820331 42.12509921 297.842844 42.12304783 298.78520107 C42.12361741 299.97847221 42.12361741 299.97847221 42.1241985 301.19584984 C42 303 42 303 41 304 C38.0546443 304.10110353 35.1332244 304.13969279 32.1875 304.1328125 C30.86141724 304.13424759 30.86141724 304.13424759 29.50854492 304.13571167 C27.63557871 304.13639351 25.76261014 304.13453893 23.88964844 304.13037109 C21.01231612 304.12502289 18.13513992 304.13031593 15.2578125 304.13671875 C13.44270799 304.13605797 11.62760357 304.13477681 9.8125 304.1328125 C8.94584717 304.13483673 8.07919434 304.13686096 7.1862793 304.13894653 C1.11495009 304.11495009 1.11495009 304.11495009 0 303 C-0.09709605 301.38402434 -0.12371596 299.76377878 -0.12304783 298.14488888 C-0.12503888 297.08742897 -0.12702993 296.02996906 -0.12908131 294.94046491 C-0.12616847 293.76442042 -0.12325563 292.58837593 -0.12025452 291.37669373 C-0.12110894 290.13852294 -0.12196337 288.90035215 -0.12284368 287.62466103 C-0.12421194 284.17222261 -0.12106421 280.71984017 -0.11606562 277.26740849 C-0.11176462 273.55028158 -0.11320729 269.83315653 -0.1139679 266.11602783 C-0.11449335 259.67064945 -0.11134428 253.22528116 -0.10573006 246.77990532 C-0.09761801 237.46086651 -0.09500014 228.14183259 -0.09374207 218.82279063 C-0.09155108 203.7048557 -0.08488974 188.58692615 -0.07543945 173.46899414 C-0.06626654 158.77954129 -0.05918512 144.0900899 -0.05493164 129.40063477 C-0.05466892 128.49583783 -0.05440619 127.59104089 -0.05413551 126.65882587 C-0.05283051 122.11992292 -0.05156679 117.58101996 -0.05032361 113.042117 C-0.03994954 75.36140753 -0.02232997 37.68070418 0 0 Z " fill="#747474" transform="translate(172,116)"/>
<path d="M0 0 C0.85712696 2.39995548 1.22584094 3.51605512 0.125 5.875 C-0.24625 6.57625 -0.6175 7.2775 -1 8 C-1.38290462 9.99110401 -1.72604615 11.99100513 -2 14 C-2.66 14 -3.32 14 -4 14 C-4.32508108 31.26430572 -4.3987619 47.98595977 -1 65 C-1.66 65 -2.32 65 -3 65 C-3 62.69 -3 60.38 -3 58 C-3.66 58 -4.32 58 -5 58 C-6.83697604 50.44176314 -7.38591741 43.20322565 -7.375 35.4375 C-7.37411377 34.30159424 -7.37322754 33.16568848 -7.37231445 31.99536133 C-7.21852327 20.96845563 -6.25814745 9.41411866 0 0 Z " fill="#E5F5EA" transform="translate(241,591)"/>
<path d="M0 0 C0.99 1.485 0.99 1.485 2 3 C2.495 3.680625 2.99 4.36125 3.5 5.0625 C4.87759145 7.76028325 5.38323075 9.55592323 5.90234375 12.484375 C7.16745994 19.11991543 9.03128853 25.5597129 10.87695312 32.05273438 C12.27011193 37.03822784 13.42337984 41.85313113 14 47 C9.71875515 40.57813272 8.41138979 32.73326428 6.63037109 25.31469727 C5.10479635 19.10716119 3.09709939 13.12800191 0.953125 7.109375 C0 4 0 4 0 0 Z " fill="#828282" transform="translate(258,297)"/>
<path d="M0 0 C1.27692296 3.92632093 0.35732326 6.25048643 -1.0390625 10.09375 C-2.47581469 14.43904929 -3.5012226 18.87538631 -4.5534668 23.32714844 C-5.44617827 27.03554339 -6.57547433 30.46938682 -8 34 C-8.144375 35.216875 -8.28875 36.43375 -8.4375 37.6875 C-8.623125 38.780625 -8.80875 39.87375 -9 41 C-9.99 41.66 -10.98 42.32 -12 43 C-11.05506785 37.57497778 -9.91825123 32.5820018 -7.8515625 27.45703125 C-6.43492922 23.36958936 -5.50480185 19.15175169 -4.48974609 14.95068359 C-3.24831604 9.8614201 -1.76315083 4.93682234 0 0 Z " fill="#9D9D9D" transform="translate(397,287)"/>
<path d="M0 0 C0.66 0.33 1.32 0.66 2 1 C-0.22356636 3.72253659 -2.44898784 6.44345776 -4.6796875 9.16015625 C-5.98871501 10.76228252 -7.29111584 12.37005024 -8.5703125 13.99609375 C-10.78608055 16.79019119 -12.61197942 18.74517756 -16 20 C-12.50241078 12.25533815 -6.09893593 5.79398914 0 0 Z " fill="#C3C3C3" transform="translate(586,527)"/>
<path d="M0 0 C0.33 0 0.66 0 1 0 C1.125 7.625 1.125 7.625 0 11 C-0.66 11 -1.32 11 -2 11 C-2.10957031 11.76183594 -2.21914063 12.52367187 -2.33203125 13.30859375 C-3.33448622 19.83677611 -4.72636513 25.79917763 -7 32 C-8.27597583 28.07659132 -7.35871209 25.75522963 -5.96484375 21.9140625 C-4.50530847 17.50591142 -3.45308059 13.00729335 -2.35864258 8.49707031 C-1.65937615 5.62219253 -0.93622273 2.80866819 0 0 Z " fill="#9D9D9D" transform="translate(384,330)"/>
<path d="M0 0 C5.69056588 8.53584881 6.6718092 18.038569 8 28 C6.15785607 25.2367841 5.39180037 23.38570236 4.4921875 20.25390625 C4.22792969 19.33416016 3.96367187 18.41441406 3.69140625 17.46679688 C3.42199219 16.50837891 3.15257812 15.54996094 2.875 14.5625 C2.59785156 13.60794922 2.32070312 12.65339844 2.03515625 11.66992188 C1.77347656 10.74888672 1.51179687 9.82785156 1.2421875 8.87890625 C1.0035498 8.0391626 0.76491211 7.19941895 0.51904297 6.33422852 C0 4 0 4 0 0 Z " fill="#808080" transform="translate(242,241)"/>
<path d="M0 0 C0 0.66 0 1.32 0 2 C-2.28703308 3.19725883 -4.57884862 4.38297018 -6.875 5.5625 C-7.52597656 5.90474609 -8.17695313 6.24699219 -8.84765625 6.59960938 C-10.53529857 7.46082891 -12.26579593 8.23686703 -14 9 C-14.66 8.67 -15.32 8.34 -16 8 C-15 6 -15 6 -12.93359375 5.1484375 C-12.10988281 4.89320313 -11.28617187 4.63796875 -10.4375 4.375 C-9.61121094 4.11460937 -8.78492188 3.85421875 -7.93359375 3.5859375 C-7.29550781 3.39257812 -6.65742188 3.19921875 -6 3 C-6 2.34 -6 1.68 -6 1 C-4 0 -4 0 0 0 Z " fill="#E4F2E8" transform="translate(288,543)"/>
<path d="M0 0 C3.00790221 2.46549362 3.54253264 4.45866699 4.125 8.25 C4.2796875 9.22066406 4.434375 10.19132812 4.59375 11.19140625 C4.7278125 12.11824219 4.861875 13.04507812 5 14 C5.1134375 14.75152344 5.226875 15.50304687 5.34375 16.27734375 C5.5752678 17.84973548 5.78994631 19.4245973 6 21 C3.79669682 17.69504523 2.95561629 14.87667528 1.875 11.0625 C1.52179688 9.83660156 1.16859375 8.61070312 0.8046875 7.34765625 C0 4 0 4 0 0 Z " fill="#868686" transform="translate(296,280)"/>
<path d="M0 0 C-1.38188453 3.21043882 -2.92421903 5.04936365 -5.625 7.25 C-6.57246094 8.03117187 -6.57246094 8.03117187 -7.5390625 8.828125 C-8.02117188 9.21484375 -8.50328125 9.6015625 -9 10 C-9.66 9.67 -10.32 9.34 -11 9 C-9.54782324 7.49403892 -8.08807139 5.99537896 -6.625 4.5 C-5.40683594 3.24703125 -5.40683594 3.24703125 -4.1640625 1.96875 C-2 0 -2 0 0 0 Z " fill="#454545" transform="translate(556,503)"/>
<path d="M0 0 C0.99 0.33 1.98 0.66 3 1 C-2.14285714 7.57142857 -2.14285714 7.57142857 -6 9 C-4.47291037 5.56404834 -2.40072955 2.88087546 0 0 Z " fill="#CACACA" transform="translate(576,538)"/>
<path d="M0 0 C4.92980953 2.00844092 8.09403383 5.64105074 11 10 C8.06120516 8.64763423 5.70767089 7.10057341 3.25 5 C2.63640625 4.484375 2.0228125 3.96875 1.390625 3.4375 C0 2 0 2 0 0 Z " fill="#E2F2E6" transform="translate(257,686)"/>
<path d="M0 0 C3.14958831 3.42346555 3.56179109 6.44262737 4 11 C3.34 11 2.68 11 2 11 C0.57741188 7.17679443 -0.24042276 4.08718695 0 0 Z " fill="#E4F3E9" transform="translate(411,589)"/>
<path d="M0 0 C0.33 0 0.66 0 1 0 C1.49230769 7.26153846 1.49230769 7.26153846 -1 11 C-1.66 11.66 -2.32 12.32 -3 13 C-2.343621 8.51474352 -1.29925791 4.33085971 0 0 Z " fill="#656565" transform="translate(386,180)"/>
<path d="M0 0 C0.33 0.66 0.66 1.32 1 2 C-2.41176471 8.70588235 -2.41176471 8.70588235 -5 10 C-3.14285714 2.42857143 -3.14285714 2.42857143 0 0 Z " fill="#E2F0E6" transform="translate(252,571)"/>
<path d="M0 0 C3.9492568 0.55105909 7.34920174 1.38935371 11 3 C11 3.66 11 4.32 11 5 C9.53932801 4.54917531 8.08151968 4.08906463 6.625 3.625 C5.81289063 3.36976563 5.00078125 3.11453125 4.1640625 2.8515625 C2 2 2 2 0 0 Z " fill="#A4A4A4" transform="translate(699,482)"/>
<path d="M0 0 C3.00617269 3.00617269 2.59585316 5.82381598 3 10 C1.5 8.9375 1.5 8.9375 0 7 C-0.1875 3.3125 -0.1875 3.3125 0 0 Z " fill="#989898" transform="translate(290,405)"/>
</svg>
