<?xml version="1.0" encoding="UTF-8"?>
<svg version="1.1" xmlns="http://www.w3.org/2000/svg" width="1701" height="720">
<path d="M0 0 C3.125 1.875 3.125 1.875 5 4 C5 4.66 5 5.32 5 6 C6.98 6.99 6.98 6.99 9 8 C9 8.66 9 9.32 9 10 C10.98 10.99 10.98 10.99 13 12 C13 12.66 13 13.32 13 14 C14.98 14.99 14.98 14.99 17 16 C17 16.66 17 17.32 17 18 C17.66 18 18.32 18 19 18 C19 18.66 19 19.32 19 20 C19.66 20 20.32 20 21 20 C21 20.66 21 21.32 21 22 C22.98 22.99 22.98 22.99 25 24 C25 24.66 25 25.32 25 26 C26.98 26.99 26.98 26.99 29 28 C29 28.66 29 29.32 29 30 C30.98 30.99 30.98 30.99 33 32 C33 32.66 33 33.32 33 34 C33.66 34 34.32 34 35 34 C35 34.66 35 35.32 35 36 C35.66 36 36.32 36 37 36 C37 36.66 37 37.32 37 38 C38.32 38.66 39.64 39.32 41 40 C41 40.66 41 41.32 41 42 C42.32 42.66 43.64 43.32 45 44 C45 44.66 45 45.32 45 46 C46.32 46.66 47.64 47.32 49 48 C49 48.66 49 49.32 49 50 C49.66 50 50.32 50 51 50 C51 50.66 51 51.32 51 52 C51.66 52 52.32 52 53 52 C53 52.66 53 53.32 53 54 C54.32 54.66 55.64 55.32 57 56 C57 56.66 57 57.32 57 58 C58.32 58.66 59.64 59.32 61 60 C61 60.66 61 61.32 61 62 C62.32 62.66 63.64 63.32 65 64 C65 64.66 65 65.32 65 66 C65.66 66 66.32 66 67 66 C67 66.66 67 67.32 67 68 C67.66 68 68.32 68 69 68 C69 68.66 69 69.32 69 70 C70.32 70.66 71.64 71.32 73 72 C73 72.66 73 73.32 73 74 C74.32 74.66 75.64 75.32 77 76 C77 76.66 77 77.32 77 78 C78.32 78.66 79.64 79.32 81 80 C81 80.66 81 81.32 81 82 C81.66 82 82.32 82 83 82 C83 82.66 83 83.32 83 84 C83.66 84 84.32 84 85 84 C85 84.66 85 85.32 85 86 C86.32 86.66 87.64 87.32 89 88 C89 88.66 89 89.32 89 90 C90.32 90.66 91.64 91.32 93 92 C93 92.66 93 93.32 93 94 C94.32 94.66 95.64 95.32 97 96 C97 96.66 97 97.32 97 98 C97.66 98 98.32 98 99 98 C99 98.66 99 99.32 99 100 C99.66 100 100.32 100 101 100 C101 100.66 101 101.32 101 102 C102.32 102.66 103.64 103.32 105 104 C105 104.66 105 105.32 105 106 C106.32 106.66 107.64 107.32 109 108 C109 108.66 109 109.32 109 110 C110.32 110.66 111.64 111.32 113 112 C113 112.66 113 113.32 113 114 C113.66 114 114.32 114 115 114 C115 114.66 115 115.32 115 116 C115.66 116 116.32 116 117 116 C117 116.66 117 117.32 117 118 C118.32 118.66 119.64 119.32 121 120 C121 120.66 121 121.32 121 122 C122.32 122.66 123.64 123.32 125 124 C125 124.66 125 125.32 125 126 C126.32 126.66 127.64 127.32 129 128 C129 128.66 129 129.32 129 130 C129.66 130 130.32 130 131 130 C131 130.66 131 131.32 131 132 C131.66 132 132.32 132 133 132 C133 132.66 133 133.32 133 134 C134.32 134.66 135.64 135.32 137 136 C137 136.66 137 137.32 137 138 C138.32 138.66 139.64 139.32 141 140 C141 140.66 141 141.32 141 142 C142.32 142.66 143.64 143.32 145 144 C145 144.66 145 145.32 145 146 C145.66 146 146.32 146 147 146 C147 146.66 147 147.32 147 148 C147.66 148 148.32 148 149 148 C149 148.66 149 149.32 149 150 C150.32 150.66 151.64 151.32 153 152 C153 152.66 153 153.32 153 154 C154.32 154.66 155.64 155.32 157 156 C157 156.66 157 157.32 157 158 C158.32 158.66 159.64 159.32 161 160 C161 160.66 161 161.32 161 162 C161.66 162 162.32 162 163 162 C163 162.66 163 163.32 163 164 C163.66 164 164.32 164 165 164 C165 164.66 165 165.32 165 166 C166.32 166.66 167.64 167.32 169 168 C169 168.66 169 169.32 169 170 C170.32 170.66 171.64 171.32 173 172 C173 172.66 173 173.32 173 174 C174.32 174.66 175.64 175.32 177 176 C177 176.66 177 177.32 177 178 C177.66 178 178.32 178 179 178 C179 178.66 179 179.32 179 180 C179.66 180 180.32 180 181 180 C181 180.66 181 181.32 181 182 C182.32 182.66 183.64 183.32 185 184 C185 184.66 185 185.32 185 186 C186.32 186.66 187.64 187.32 189 188 C189 188.66 189 189.32 189 190 C190.32 190.66 191.64 191.32 193 192 C193 192.66 193 193.32 193 194 C193.66 194 194.32 194 195 194 C195 194.66 195 195.32 195 196 C195.99 196.33 196.98 196.66 198 197 C199.73399756 201.57144813 200.59908659 204.4372527 198.625 209 C198.08875 209.99 197.5525 210.98 197 212 C196.34 212 195.68 212 195 212 C195 212.66 195 213.32 195 214 C194.34 214 193.68 214 193 214 C193 214.66 193 215.32 193 216 C192.34 216 191.68 216 191 216 C191 216.66 191 217.32 191 218 C189.125 220.125 189.125 220.125 187 222 C186.34 222 185.68 222 185 222 C185 222.66 185 223.32 185 224 C183.125 226.125 183.125 226.125 181 228 C180.34 228 179.68 228 179 228 C179 228.66 179 229.32 179 230 C178.34 230 177.68 230 177 230 C177 230.66 177 231.32 177 232 C176.34 232 175.68 232 175 232 C175 232.66 175 233.32 175 234 C173.125 236.125 173.125 236.125 171 238 C170.34 238 169.68 238 169 238 C169 238.66 169 239.32 169 240 C167.125 242.125 167.125 242.125 165 244 C164.34 244 163.68 244 163 244 C163 244.66 163 245.32 163 246 C162.34 246 161.68 246 161 246 C161 246.66 161 247.32 161 248 C160.34 248 159.68 248 159 248 C159 248.66 159 249.32 159 250 C157.125 252.125 157.125 252.125 155 254 C154.34 254 153.68 254 153 254 C153 254.66 153 255.32 153 256 C151.125 258.125 151.125 258.125 149 260 C148.34 260 147.68 260 147 260 C147 260.66 147 261.32 147 262 C146.34 262 145.68 262 145 262 C145 262.66 145 263.32 145 264 C144.34 264 143.68 264 143 264 C143 264.66 143 265.32 143 266 C141.125 268.125 141.125 268.125 139 270 C138.34 270 137.68 270 137 270 C137 270.66 137 271.32 137 272 C135.125 274.125 135.125 274.125 133 276 C132.34 276 131.68 276 131 276 C131 276.66 131 277.32 131 278 C130.34 278 129.68 278 129 278 C129 278.66 129 279.32 129 280 C128.34 280 127.68 280 127 280 C127 280.66 127 281.32 127 282 C125.125 284.125 125.125 284.125 123 286 C122.34 286 121.68 286 121 286 C121 286.66 121 287.32 121 288 C119.125 290.125 119.125 290.125 117 292 C116.34 292 115.68 292 115 292 C115 292.66 115 293.32 115 294 C114.34 294 113.68 294 113 294 C113 294.66 113 295.32 113 296 C112.34 296 111.68 296 111 296 C111 296.66 111 297.32 111 298 C109.125 300.125 109.125 300.125 107 302 C106.34 302 105.68 302 105 302 C105 302.66 105 303.32 105 304 C103.125 306.125 103.125 306.125 101 308 C100.34 308 99.68 308 99 308 C99 308.66 99 309.32 99 310 C98.34 310 97.68 310 97 310 C97 310.66 97 311.32 97 312 C96.34 312 95.68 312 95 312 C95 312.66 95 313.32 95 314 C93.125 316.125 93.125 316.125 91 318 C90.34 318 89.68 318 89 318 C89 318.66 89 319.32 89 320 C87.125 322.125 87.125 322.125 85 324 C84.34 324 83.68 324 83 324 C83 324.66 83 325.32 83 326 C82.34 326 81.68 326 81 326 C81 326.66 81 327.32 81 328 C80.34 328 79.68 328 79 328 C79 328.66 79 329.32 79 330 C77.125 332.125 77.125 332.125 75 334 C74.34 334 73.68 334 73 334 C73 334.66 73 335.32 73 336 C71.125 338.125 71.125 338.125 69 340 C68.34 340 67.68 340 67 340 C67 340.66 67 341.32 67 342 C66.34 342 65.68 342 65 342 C65 342.66 65 343.32 65 344 C64.34 344 63.68 344 63 344 C63 344.66 63 345.32 63 346 C61.125 348.125 61.125 348.125 59 350 C58.34 350 57.68 350 57 350 C57 350.66 57 351.32 57 352 C55.125 354.125 55.125 354.125 53 356 C52.34 356 51.68 356 51 356 C51 356.66 51 357.32 51 358 C50.34 358 49.68 358 49 358 C49 358.66 49 359.32 49 360 C48.34 360 47.68 360 47 360 C47 360.66 47 361.32 47 362 C45.125 364.125 45.125 364.125 43 366 C42.34 366 41.68 366 41 366 C41 366.66 41 367.32 41 368 C39.125 370.125 39.125 370.125 37 372 C36.34 372 35.68 372 35 372 C35 372.66 35 373.32 35 374 C34.34 374 33.68 374 33 374 C33 374.66 33 375.32 33 376 C32.34 376 31.68 376 31 376 C31 376.66 31 377.32 31 378 C29.125 380.125 29.125 380.125 27 382 C26.34 382 25.68 382 25 382 C25 382.66 25 383.32 25 384 C23.64453125 385.33203125 23.64453125 385.33203125 21.8125 386.8125 C19.46126664 388.73495133 17.53432 390.52389 15.5 392.8125 C12.26058399 395.64698901 10.27666525 396 6 396 C-0.03266649 393.76502176 -3.92335008 389.48803078 -8.3522644 385.00849915 C-9.17818498 384.18514185 -10.00410555 383.36178455 -10.85505402 382.51347703 C-13.13869113 380.23391985 -15.41548537 377.94777682 -17.68953466 375.6586622 C-20.14618076 373.1890403 -22.61151195 370.72811511 -25.07579041 368.26611328 C-29.34169972 364.00177572 -33.60208919 359.73198723 -37.85876083 355.45842934 C-44.01316855 349.27962299 -50.17586018 343.10913383 -56.34059407 336.94063213 C-66.34264242 326.93202065 -76.33797527 316.9167304 -86.32910156 306.8972168 C-96.03359027 297.16518393 -105.74123014 287.43631222 -115.453125 277.71166992 C-116.05193477 277.11207198 -116.65074454 276.51247404 -117.26770006 275.89470647 C-120.27182292 272.88666845 -123.27600783 269.87869242 -126.28022361 266.87074721 C-151.19644484 241.9234344 -176.10177452 216.96527269 -201 192 C-200.06001889 190.72685953 -199.1172529 189.45577492 -198.17333984 188.18554688 C-197.64864105 187.47748901 -197.12394226 186.76943115 -196.58334351 186.03991699 C-194.44634942 183.28669855 -192.12386925 180.93133225 -189.625 178.5 C-188.75101563 177.6440625 -187.87703125 176.788125 -186.9765625 175.90625 C-186.32429687 175.2771875 -185.67203125 174.648125 -185 174 C-188.16413153 172.28935312 -191.3130121 171.21108539 -194.7578125 170.1875 C-195.92538086 169.83880859 -197.09294922 169.49011719 -198.29589844 169.13085938 C-199.55950195 168.75767578 -200.82310547 168.38449219 -202.125 168 C-203.44311999 167.60771119 -204.76115226 167.21512752 -206.07910156 166.82226562 C-213.53929731 164.60198518 -221.0074562 162.40883334 -228.4765625 160.21875 C-229.64223251 159.87674561 -229.64223251 159.87674561 -230.83145142 159.52783203 C-234.63817899 158.4112039 -238.44558478 157.29700604 -242.25439453 156.1875 C-243.64356616 155.78128925 -245.03272688 155.37504117 -246.421875 154.96875 C-247.64487305 154.61232422 -248.86787109 154.25589844 -250.12792969 153.88867188 C-253 153 -253 153 -255 152 C-254.79020508 152.66378662 -254.58041016 153.32757324 -254.36425781 154.01147461 C-247.25111672 176.58025909 -240.59519198 199.2753902 -234 222 C-230.20752477 220.24407595 -227.89421996 218.03540142 -225 215 C-221.81738284 211.73781741 -218.57745382 208.82022609 -215 206 C-200.2342232 220.64910321 -185.48268407 235.31240607 -170.74807644 249.9928627 C-163.9065864 256.80854396 -157.06047167 263.61945696 -150.20336914 270.41943359 C-144.22845517 276.34459463 -138.26230897 282.27841949 -132.30663544 288.22292209 C-129.15126302 291.37176205 -125.9916011 294.51601508 -122.82140923 297.64994049 C-119.84020146 300.59731713 -116.87082104 303.5561 -113.91025543 306.52420616 C-112.81928869 307.61379258 -111.72400106 308.69907158 -110.62421608 309.77975655 C-109.12760873 311.25162761 -107.64706702 312.73795689 -106.16966248 314.22906494 C-105.33543983 315.05867863 -104.50121717 315.88829231 -103.64171505 316.74304581 C-102 319 -102 319 -102.03620434 321.07202339 C-103.17389185 323.34785321 -104.44757649 324.81942473 -106.25106812 326.61856079 C-106.94648209 327.31954391 -107.64189606 328.02052704 -108.35838318 328.74275208 C-109.12618607 329.50134018 -109.89398895 330.25992828 -110.68505859 331.04150391 C-111.4899321 331.84842178 -112.2948056 332.65533966 -113.12406921 333.48670959 C-115.79165699 336.15731021 -118.46984673 338.81700148 -121.1484375 341.4765625 C-123.00128392 343.32635203 -124.85354079 345.17673224 -126.70523071 347.02767944 C-130.58917696 350.9079338 -134.47871454 354.78250839 -138.37207031 358.65332031 C-143.3684915 363.62086918 -148.35561656 368.59764294 -153.33984947 373.57741737 C-157.1651015 377.39911574 -160.99377634 381.21737537 -164.82320023 385.03489304 C-166.66331276 386.86929901 -168.50295152 388.70418034 -170.34211349 390.53953934 C-172.91085436 393.10142198 -175.4829489 395.65988584 -178.05615234 398.21728516 C-178.81990677 398.97992172 -179.58366119 399.74255829 -180.37055969 400.52830505 C-181.07161331 401.22364853 -181.77266693 401.918992 -182.4949646 402.63540649 C-183.10297094 403.24043818 -183.71097729 403.84546986 -184.33740807 404.46883583 C-188.02671976 407.86650772 -190.63095123 408.65586557 -195.4949469 408.47823167 C-198.46231563 407.9117408 -199.59310157 407.01262378 -201.7878809 404.96938705 C-202.47923763 404.33104667 -203.17059437 403.69270629 -203.88290131 403.03502226 C-204.58154388 402.36346491 -205.28018645 401.69190757 -206 401 C-206.65352947 400.37259682 -207.30705894 399.74519364 -207.98039234 399.09877825 C-210.07299231 397.05834668 -212.14195301 394.99620509 -214.20640564 392.92730713 C-214.99249397 392.14348435 -215.77858231 391.35966157 -216.5884915 390.55208659 C-219.20321013 387.94366238 -221.81437802 385.33171368 -224.42553711 382.71972656 C-226.30664535 380.84161244 -228.18794306 378.96368979 -230.06945801 377.08598328 C-234.63627322 372.52744103 -239.20033883 367.96615566 -243.76329886 363.4037548 C-247.4704353 359.6970946 -251.17836259 355.99122739 -254.88684273 352.28591156 C-265.40626532 341.77528211 -275.92360264 331.26257248 -286.43825393 320.74716988 C-287.00398414 320.18139972 -287.56971434 319.61562956 -288.15258789 319.03271484 C-288.71900899 318.46625286 -289.28543009 317.89979088 -289.86901546 317.31616339 C-299.06885539 308.11591615 -308.27368604 298.92068 -317.4807642 289.7276769 C-326.93960873 280.28317834 -336.39473798 270.83497447 -345.84597975 261.38286757 C-351.15041865 256.07809636 -356.45639455 250.77488358 -361.76637077 245.4756546 C-366.28172213 240.96938425 -370.79362672 236.45969831 -375.30103432 231.94548163 C-377.60142437 229.64181577 -379.90395051 227.34035868 -382.20975685 225.04211235 C-384.70529159 222.55423363 -387.19464941 220.06033759 -389.68247986 217.5647583 C-390.78468185 216.47027166 -390.78468185 216.47027166 -391.90915054 215.35367417 C-392.57153655 214.68668936 -393.23392257 214.01970456 -393.91638088 213.33250809 C-394.77962543 212.46958959 -394.77962543 212.46958959 -395.66030926 211.58923841 C-397.68720043 209.18479297 -398.01866779 206.88099281 -398.5 203.8125 C-397.96888475 199.76274624 -397.56065252 199.10391327 -394.94202709 196.24335289 C-394.30339178 195.54324176 -393.66475648 194.84313062 -393.00676858 194.121804 C-389.8614254 190.79615809 -386.66803365 187.52682511 -383.42756653 184.29385376 C-382.33251998 183.19540888 -382.33251998 183.19540888 -381.21535128 182.07477319 C-378.78891158 179.64204535 -376.35895487 177.21286276 -373.92895508 174.78369141 C-372.18054117 173.03228297 -370.43233177 171.28067036 -368.68431091 169.52886963 C-364.4420795 165.27874201 -360.19748388 161.03098955 -355.95158271 156.78452905 C-352.50141481 153.33388471 -349.05204038 149.88244918 -345.60321617 146.43046188 C-335.81703982 136.63549318 -326.02878434 126.84260906 -316.23783509 117.05241127 C-315.71115859 116.52577473 -315.18448209 115.99913819 -314.6418457 115.45654297 C-314.11452403 114.92926217 -313.58720235 114.40198138 -313.04390123 113.85872237 C-304.48128212 105.2965105 -295.92367385 96.72930969 -287.3683 88.1598589 C-278.57581707 79.35302329 -269.77962229 70.54991023 -260.97952765 61.75068033 C-256.04193054 56.81341532 -251.10588777 51.87461902 -246.17383766 46.93181229 C-241.54176916 42.2897055 -236.90457323 37.65276662 -232.263834 33.01932526 C-230.5592834 31.31582396 -228.85644931 29.61060317 -227.15543747 27.90356827 C-224.83869854 25.57915609 -222.51592474 23.26094941 -220.19148254 20.94424438 C-219.51531995 20.26293823 -218.83915736 19.58163207 -218.14250499 18.87968028 C-217.51881328 18.26058736 -216.89512156 17.64149444 -216.2525301 17.00364113 C-215.44941756 16.20020254 -215.44941756 16.20020254 -214.63008052 15.38053286 C-211.32243436 12.57925147 -209.46980819 11.98508545 -205.0625 12.125 C-201.10838495 12.74237112 -198.89648672 14.18627004 -196 17 C-195.401875 17.53625 -194.80375 18.0725 -194.1875 18.625 C-193 20 -193 20 -193 22 C-192.34 22 -191.68 22 -191 22 C-191 22.66 -191 23.32 -191 24 C-190.34 24 -189.68 24 -189 24 C-189 24.66 -189 25.32 -189 26 C-188.34 26 -187.68 26 -187 26 C-187 26.66 -187 27.32 -187 28 C-186.34 28 -185.68 28 -185 28 C-185 28.66 -185 29.32 -185 30 C-184.34 30 -183.68 30 -183 30 C-183 30.66 -183 31.32 -183 32 C-182.34 32 -181.68 32 -181 32 C-178.875 33.875 -178.875 33.875 -177 36 C-177 36.66 -177 37.32 -177 38 C-176.34 38 -175.68 38 -175 38 C-175 38.66 -175 39.32 -175 40 C-174.34 40 -173.68 40 -173 40 C-173 40.66 -173 41.32 -173 42 C-172.34 42 -171.68 42 -171 42 C-171 42.66 -171 43.32 -171 44 C-170.34 44 -169.68 44 -169 44 C-169 44.66 -169 45.32 -169 46 C-168.34 46 -167.68 46 -167 46 C-167 46.66 -167 47.32 -167 48 C-166.34 48 -165.68 48 -165 48 C-162.875 49.875 -162.875 49.875 -161 52 C-161 52.66 -161 53.32 -161 54 C-160.34 54 -159.68 54 -159 54 C-159 54.66 -159 55.32 -159 56 C-158.34 56 -157.68 56 -157 56 C-157 56.66 -157 57.32 -157 58 C-156.34 58 -155.68 58 -155 58 C-155 58.66 -155 59.32 -155 60 C-154.34 60 -153.68 60 -153 60 C-153 60.66 -153 61.32 -153 62 C-152.34 62 -151.68 62 -151 62 C-151 62.66 -151 63.32 -151 64 C-150.34 64 -149.68 64 -149 64 C-146.875 65.875 -146.875 65.875 -145 68 C-145 68.66 -145 69.32 -145 70 C-144.34 70 -143.68 70 -143 70 C-143 70.66 -143 71.32 -143 72 C-142.34 72 -141.68 72 -141 72 C-141 72.66 -141 73.32 -141 74 C-140.34 74 -139.68 74 -139 74 C-139 74.66 -139 75.32 -139 76 C-138.34 76 -137.68 76 -137 76 C-137 76.66 -137 77.32 -137 78 C-136.34 78 -135.68 78 -135 78 C-135 78.66 -135 79.32 -135 80 C-134.34 80 -133.68 80 -133 80 C-130.875 81.875 -130.875 81.875 -129 84 C-129 84.66 -129 85.32 -129 86 C-128.34 86 -127.68 86 -127 86 C-127 86.66 -127 87.32 -127 88 C-126.34 88 -125.68 88 -125 88 C-125 88.66 -125 89.32 -125 90 C-124.34 90 -123.68 90 -123 90 C-123 90.66 -123 91.32 -123 92 C-122.34 92 -121.68 92 -121 92 C-121 92.66 -121 93.32 -121 94 C-120.34 94 -119.68 94 -119 94 C-119 94.66 -119 95.32 -119 96 C-118.34 96 -117.68 96 -117 96 C-114.875 97.875 -114.875 97.875 -113 100 C-113 100.66 -113 101.32 -113 102 C-112.43697331 102.23868113 -111.87394663 102.47736225 -111.29385853 102.72327614 C-108.49381118 104.28173636 -106.57223498 106.16656746 -104.29826355 108.42758179 C-103.61216718 109.10582313 -103.61216718 109.10582313 -102.91221029 109.79776633 C-101.38354833 111.31144746 -99.86209907 112.83217283 -98.34057617 114.35302734 C-97.24517264 115.44080846 -96.14936784 116.52818562 -95.05319214 117.6151886 C-92.07958344 120.56686209 -89.11256483 123.52507408 -86.14736342 126.48519087 C-84.29570131 128.33321031 -82.44274761 130.17992462 -80.58934975 132.02620316 C-74.12716759 138.46390078 -67.67071723 144.90729001 -61.21899414 151.35546875 C-55.19816287 157.37265857 -49.16430848 163.37657129 -43.12442607 169.37463224 C-37.94273416 174.52169405 -32.77064335 179.67827241 -27.60588819 184.84232867 C-24.51939326 187.92802874 -21.42900746 191.00957882 -18.32875633 194.08146286 C-15.41621812 196.96794302 -12.51574882 199.86601573 -9.62427902 202.77359581 C-8.55910657 203.84059215 -7.48961678 204.90329781 -6.41563225 205.96142387 C-4.95455618 207.40222529 -3.5101699 208.85989412 -2.06681824 210.31845093 C-1.25253955 211.13071829 -0.43826086 211.94298565 0.40069294 212.77986717 C2 215 2 215 1.84401989 217.18322182 C0.85873228 219.30408301 -0.17640255 220.54112204 -2 222 C-2.66 222 -3.32 222 -4 222 C-4.36738281 222.85851562 -4.36738281 222.85851562 -4.7421875 223.734375 C-7.01456171 227.8274714 -10.66185395 230.76953608 -14 234 C-4.06876524 237.38965016 5.90586681 240.49768529 16 243.375 C18.69986519 244.15010676 21.39889122 244.92810335 24.09765625 245.70703125 C24.7633815 245.8990361 25.42910675 246.09104095 26.11500549 246.28886414 C35.77629401 249.08264554 45.39029554 252.03436378 55 255 C53.35170152 245.47436808 50.541851 236.3626253 47.75 227.125 C47.25238606 225.46514502 46.75523635 223.8051508 46.25854492 222.14501953 C44.16941221 215.16975258 42.06366807 208.19963614 39.94140625 201.234375 C39.6587793 200.30351074 39.37615234 199.37264648 39.08496094 198.41357422 C38.58584645 196.77331113 38.08285946 195.13421916 37.57519531 193.49658203 C36.67652376 190.5498853 36 188.10081454 36 185 C30.38598534 189.73584477 25.19574593 194.767267 20.1015625 200.05859375 C18 202 18 202 16 202 C16 201.34 16 200.68 16 200 C14.68 199.34 13.36 198.68 12 198 C12 197.34 12 196.68 12 196 C11.34 196 10.68 196 10 196 C10 195.34 10 194.68 10 194 C9.34 194 8.68 194 8 194 C8 193.34 8 192.68 8 192 C7.34 192 6.68 192 6 192 C3.875 190.125 3.875 190.125 2 188 C2 187.34 2 186.68 2 186 C1.34 186 0.68 186 0 186 C0 185.34 0 184.68 0 184 C-0.66 184 -1.32 184 -2 184 C-2 183.34 -2 182.68 -2 182 C-2.66 182 -3.32 182 -4 182 C-4 181.34 -4 180.68 -4 180 C-4.66 180 -5.32 180 -6 180 C-6 179.34 -6 178.68 -6 178 C-6.66 178 -7.32 178 -8 178 C-8 177.34 -8 176.68 -8 176 C-8.66 176 -9.32 176 -10 176 C-12.125 174.125 -12.125 174.125 -14 172 C-14 171.34 -14 170.68 -14 170 C-14.66 170 -15.32 170 -16 170 C-16 169.34 -16 168.68 -16 168 C-16.66 168 -17.32 168 -18 168 C-18 167.34 -18 166.68 -18 166 C-18.66 166 -19.32 166 -20 166 C-20 165.34 -20 164.68 -20 164 C-20.66 164 -21.32 164 -22 164 C-22 163.34 -22 162.68 -22 162 C-22.66 162 -23.32 162 -24 162 C-24 161.34 -24 160.68 -24 160 C-24.66 160 -25.32 160 -26 160 C-28.125 158.125 -28.125 158.125 -30 156 C-30 155.34 -30 154.68 -30 154 C-30.66 154 -31.32 154 -32 154 C-32 153.34 -32 152.68 -32 152 C-32.66 152 -33.32 152 -34 152 C-34 151.34 -34 150.68 -34 150 C-34.66 150 -35.32 150 -36 150 C-36 149.34 -36 148.68 -36 148 C-36.66 148 -37.32 148 -38 148 C-38 147.34 -38 146.68 -38 146 C-38.66 146 -39.32 146 -40 146 C-40 145.34 -40 144.68 -40 144 C-40.66 144 -41.32 144 -42 144 C-44.125 142.125 -44.125 142.125 -46 140 C-46 139.34 -46 138.68 -46 138 C-46.66 138 -47.32 138 -48 138 C-48 137.34 -48 136.68 -48 136 C-48.66 136 -49.32 136 -50 136 C-50 135.34 -50 134.68 -50 134 C-50.66 134 -51.32 134 -52 134 C-52 133.34 -52 132.68 -52 132 C-52.66 132 -53.32 132 -54 132 C-54 131.34 -54 130.68 -54 130 C-54.66 130 -55.32 130 -56 130 C-56 129.34 -56 128.68 -56 128 C-56.66 128 -57.32 128 -58 128 C-60.125 126.125 -60.125 126.125 -62 124 C-62 123.34 -62 122.68 -62 122 C-62.66 122 -63.32 122 -64 122 C-64 121.34 -64 120.68 -64 120 C-64.66 120 -65.32 120 -66 120 C-66 119.34 -66 118.68 -66 118 C-66.66 118 -67.32 118 -68 118 C-68 117.34 -68 116.68 -68 116 C-68.66 116 -69.32 116 -70 116 C-70 115.34 -70 114.68 -70 114 C-70.66 114 -71.32 114 -72 114 C-72 113.34 -72 112.68 -72 112 C-72.66 112 -73.32 112 -74 112 C-76.125 110.125 -76.125 110.125 -78 108 C-78 107.34 -78 106.68 -78 106 C-78.66 106 -79.32 106 -80 106 C-80 105.34 -80 104.68 -80 104 C-80.66 104 -81.32 104 -82 104 C-82 103.34 -82 102.68 -82 102 C-82.66 102 -83.32 102 -84 102 C-84 101.34 -84 100.68 -84 100 C-84.66 100 -85.32 100 -86 100 C-86 99.34 -86 98.68 -86 98 C-86.66 98 -87.32 98 -88 98 C-88 97.34 -88 96.68 -88 96 C-88.66 96 -89.32 96 -90 96 C-90 95.34 -90 94.68 -90 94 C-90.66 94 -91.32 94 -92 94 C-92 93.34 -92 92.68 -92 92 C-92.66 92 -93.32 92 -94 92 C-94 91.34 -94 90.68 -94 90 C-94.99 89.67 -95.98 89.34 -97 89 C-97 86 -97 86 -94.6875 83.375 C-92 81 -92 81 -89 80 C-89 79.34 -89 78.68 -89 78 C-88.34 78 -87.68 78 -87 78 C-87 77.34 -87 76.68 -87 76 C-86.34 76 -85.68 76 -85 76 C-84.34 74.68 -83.68 73.36 -83 72 C-82.34 72 -81.68 72 -81 72 C-81 71.34 -81 70.68 -81 70 C-80.34 70 -79.68 70 -79 70 C-79 69.34 -79 68.68 -79 68 C-78.34 68 -77.68 68 -77 68 C-76.34 66.68 -75.68 65.36 -75 64 C-74.34 64 -73.68 64 -73 64 C-73 63.34 -73 62.68 -73 62 C-72.34 62 -71.68 62 -71 62 C-71 61.34 -71 60.68 -71 60 C-70.34 60 -69.68 60 -69 60 C-68.34 58.68 -67.68 57.36 -67 56 C-66.34 56 -65.68 56 -65 56 C-65 55.34 -65 54.68 -65 54 C-64.34 54 -63.68 54 -63 54 C-63 53.34 -63 52.68 -63 52 C-62.34 52 -61.68 52 -61 52 C-60.34 50.68 -59.68 49.36 -59 48 C-58.34 48 -57.68 48 -57 48 C-57 47.34 -57 46.68 -57 46 C-56.34 46 -55.68 46 -55 46 C-55 45.34 -55 44.68 -55 44 C-54.34 44 -53.68 44 -53 44 C-52.34 42.68 -51.68 41.36 -51 40 C-50.34 40 -49.68 40 -49 40 C-49 39.34 -49 38.68 -49 38 C-48.34 38 -47.68 38 -47 38 C-47 37.34 -47 36.68 -47 36 C-46.34 36 -45.68 36 -45 36 C-44.34 34.68 -43.68 33.36 -43 32 C-42.34 32 -41.68 32 -41 32 C-41 31.34 -41 30.68 -41 30 C-40.34 30 -39.68 30 -39 30 C-39 29.34 -39 28.68 -39 28 C-38.34 28 -37.68 28 -37 28 C-36.34 26.68 -35.68 25.36 -35 24 C-34.34 24 -33.68 24 -33 24 C-33 23.34 -33 22.68 -33 22 C-32.34 22 -31.68 22 -31 22 C-31 21.34 -31 20.68 -31 20 C-30.34 20 -29.68 20 -29 20 C-28.34 18.68 -27.68 17.36 -27 16 C-26.34 16 -25.68 16 -25 16 C-25 15.34 -25 14.68 -25 14 C-24.34 14 -23.68 14 -23 14 C-23 13.34 -23 12.68 -23 12 C-22.34 12 -21.68 12 -21 12 C-20.34 10.68 -19.68 9.36 -19 8 C-18.34 8 -17.68 8 -17 8 C-17 7.34 -17 6.68 -17 6 C-16.34 6 -15.68 6 -15 6 C-15 5.34 -15 4.68 -15 4 C-10.75850321 -0.8070297 -6.01651392 -1.00604003 0 0 Z " fill="#69A3D9" transform="translate(548,140)"/>
<path d="M0 0 C0.495 12.375 0.495 12.375 1 25 C3.31 22.36 5.62 19.72 8 17 C19.14699917 5.85300083 33.3910684 0.37265478 49.0625 -0.4375 C60.03628722 -0.02168928 69.33430048 4.17109103 76.8984375 11.953125 C80.33027694 15.74697282 83.19962662 19.71421117 86 24 C86.825 23.0821875 87.65 22.164375 88.5 21.21875 C100.37399107 8.44128416 113.24713182 0.3765189 131.02001953 -0.32763672 C141.91535895 -0.55904638 152.67795063 0.99749958 161.2890625 8.24609375 C170.8469025 18.04397083 172.45870248 29.11756631 172.34057617 42.34423828 C172.34101425 43.64292343 172.34145233 44.94160858 172.34190369 46.27964783 C172.34275785 49.81006243 172.32522709 53.34016583 172.30418181 56.87050867 C172.28531745 60.5713607 172.28365694 64.27222132 172.28010559 67.97311401 C172.27081359 74.96750268 172.24623876 81.96174922 172.21605712 88.95607555 C172.18242403 96.92469678 172.1660048 104.89332511 172.15097082 112.86199975 C172.11968634 129.24141612 172.0669818 145.62068987 172 162 C164.71578452 162.02312916 157.4315769 162.04091801 150.14733219 162.05181217 C146.76528187 162.05703975 143.3832566 162.06413511 140.0012207 162.07543945 C136.11670223 162.08834267 132.23219403 162.09322924 128.34765625 162.09765625 C127.12788589 162.10281754 125.90811554 162.10797882 124.65138245 162.11329651 C122.96975258 162.11340981 122.96975258 162.11340981 121.25415039 162.11352539 C119.76523033 162.11685631 119.76523033 162.11685631 118.24623108 162.12025452 C116 162 116 162 115 161 C114.89832359 159.37918208 114.86647248 157.75394155 114.86196899 156.12994385 C114.85651566 155.07561157 114.85106232 154.0212793 114.84544373 152.93499756 C114.8444014 151.768255 114.84335907 150.60151245 114.84228516 149.39941406 C114.83720444 148.17834961 114.83212372 146.95728516 114.82688904 145.69921875 C114.81615688 143.03693431 114.80716427 140.37470271 114.80076981 137.71240997 C114.79010746 133.50189522 114.76986638 129.29146133 114.74765015 125.08099365 C114.68566978 113.10579135 114.6317351 101.13059289 114.59863281 89.15527344 C114.5802831 82.54607931 114.55134041 75.93701972 114.5106281 69.32792449 C114.48955891 65.82950583 114.47410105 62.33125675 114.47182083 58.8327713 C114.46927285 54.9277613 114.44380286 51.02308343 114.41650391 47.11816406 C114.41951004 45.95951843 114.42251617 44.8008728 114.4256134 43.6071167 C114.41452042 42.54150513 114.40342743 41.47589355 114.39199829 40.37799072 C114.38703307 38.99310141 114.38703307 38.99310141 114.38196754 37.58023453 C113.91645054 34.43561383 112.87990859 32.54667593 111 30 C106.49492627 28.32369349 103.09093625 29.18133133 98.8203125 31 C93.31125882 34.02643292 91.01316242 40.34917562 89 46 C85.92040986 57.5372238 86.66630633 69.83307396 86.62109375 81.66796875 C86.60489939 83.9577148 86.58771739 86.24745406 86.56959534 88.53718567 C86.52415575 94.52894971 86.48920835 100.520723 86.45739746 106.51257324 C86.40526546 116.14100286 86.34054361 125.76933384 86.26918221 135.39763832 C86.24630485 138.76192441 86.23007234 142.12619763 86.21446228 145.49052429 C86.20106582 147.5342931 86.18745192 149.57806051 86.17358398 151.62182617 C86.17097061 152.56250443 86.16835724 153.50318268 86.16566467 154.47236633 C86.11365182 160.88634818 86.11365182 160.88634818 85 162 C83.2507128 162.09365006 81.49763746 162.11744438 79.74584961 162.11352539 C78.62476303 162.11344986 77.50367645 162.11337433 76.34861755 162.11329651 C74.51896202 162.10555458 74.51896202 162.10555458 72.65234375 162.09765625 C71.41078018 162.0962413 70.16921661 162.09482635 68.89002991 162.09336853 C65.58394509 162.08870591 62.27792854 162.07971497 58.97186279 162.06866455 C55.6003885 162.05844827 52.22890717 162.05387045 48.85742188 162.04882812 C42.23826225 162.03777395 35.61913507 162.02101736 29 162 C28.99503478 161.0756591 28.99503478 161.0756591 28.98996925 160.13264465 C28.90863784 145.11673783 28.81651243 130.10093898 28.71247292 115.08517456 C28.662418 107.82356864 28.61597446 100.56197361 28.578125 93.30029297 C28.54511409 86.96869992 28.50523308 80.63719316 28.45720994 74.30569553 C28.43203493 70.95529878 28.41125259 67.60501676 28.39665604 64.25454712 C28.37975093 60.5081144 28.35070462 56.76195632 28.31884766 53.015625 C28.31668747 51.91294785 28.31452728 50.81027069 28.31230164 49.67417908 C28.23512321 42.55945577 28.05853763 36.08780644 24 30 C19.72151864 29.05017714 15.84416123 29.66895638 11.8125 31.25 C3.48944279 39.38810038 1.0712056 50.9855091 0.72825623 62.26431274 C0.70815349 64.10272312 0.69818446 65.94126524 0.69702148 67.77978516 C0.68436249 69.30134216 0.68436249 69.30134216 0.67144775 70.8536377 C0.64590956 74.16545133 0.63359099 77.47717641 0.62109375 80.7890625 C0.60490283 83.10265799 0.58772118 85.41624674 0.56959534 87.72982788 C0.52411857 93.78901058 0.48919152 99.84820241 0.45739746 105.9074707 C0.40530271 115.64056041 0.34054733 125.37355213 0.26918221 135.10651779 C0.24629951 138.5084722 0.23006933 141.91041386 0.21446228 145.31240845 C0.20106535 147.37966051 0.18745141 149.44691119 0.17358398 151.51416016 C0.17097061 152.46576019 0.16835724 153.41736023 0.16566467 154.39779663 C0.11364994 160.88635006 0.11364994 160.88635006 -1 162 C-2.7492872 162.09365006 -4.50236254 162.11744438 -6.25415039 162.11352539 C-7.37523697 162.11344986 -8.49632355 162.11337433 -9.65138245 162.11329651 C-11.48103798 162.10555458 -11.48103798 162.10555458 -13.34765625 162.09765625 C-14.58921982 162.0962413 -15.83078339 162.09482635 -17.10997009 162.09336853 C-20.41605491 162.08870591 -23.72207146 162.07971497 -27.02813721 162.06866455 C-30.3996115 162.05844827 -33.77109283 162.05387045 -37.14257812 162.04882812 C-43.76173775 162.03777395 -50.38086493 162.02101736 -57 162 C-58.3918334 159.21633319 -58.12275516 156.95292813 -58.12025452 153.83712769 C-58.12162918 152.52177032 -58.12300385 151.20641296 -58.12442017 149.85119629 C-58.12088077 148.38500954 -58.11724595 146.91882302 -58.11352539 145.45263672 C-58.11324345 143.91541546 -58.11340139 142.37819408 -58.1139679 140.8409729 C-58.11425561 136.65939479 -58.10836314 132.47784518 -58.10139394 128.29627371 C-58.09515601 123.92937965 -58.09455625 119.56248499 -58.09336853 115.19558716 C-58.09025652 106.92247748 -58.08204487 98.64938096 -58.07201904 90.37627709 C-58.06085389 80.95924119 -58.05534644 71.54220466 -58.05032361 62.12516379 C-58.03986215 42.75010172 -58.02226521 23.37505192 -58 4 C-57.44147339 3.96463638 -56.88294678 3.92927277 -56.30749512 3.89283752 C-50.46685161 3.52254986 -44.62643394 3.14884167 -38.78613281 2.77319336 C-36.60975603 2.63365301 -34.43332412 2.49496956 -32.25683594 2.35717773 C-29.11898977 2.15837092 -25.9813582 1.95643 -22.84375 1.75390625 C-21.39639465 1.66321617 -21.39639465 1.66321617 -19.9197998 1.57069397 C-15.78525562 1.30121206 -11.68119333 0.99173623 -7.57226562 0.45288086 C-4 0 -4 0 0 0 Z " fill="#808080" transform="translate(1165,269)"/>
<path d="M0 0 C0 71.28 0 142.56 0 216 C-18.48 216 -36.96 216 -56 216 C-57.73956658 214.26043342 -57.37190386 211.8063378 -57.5625 209.4375 C-57.68818359 207.91962891 -57.68818359 207.91962891 -57.81640625 206.37109375 C-57.87699219 205.58863281 -57.93757812 204.80617188 -58 204 C-58.52207031 204.51949219 -59.04414062 205.03898438 -59.58203125 205.57421875 C-71.08208309 216.47006472 -83.95921219 219.66964942 -99.38671875 219.3046875 C-110.91637662 218.72760845 -120.57717571 214.94304316 -129 207 C-145.55392857 188.29179306 -148.41532833 162.41038743 -148.3125 138.375 C-148.30926727 137.33650909 -148.30926727 137.33650909 -148.30596924 136.27703857 C-148.18416996 111.74046879 -145.27556526 85.63139819 -127.8984375 66.8125 C-117.50635384 56.89083988 -103.79530856 53.56916312 -89.76171875 53.73046875 C-78.837234 54.51321999 -70.11474443 58.72517904 -62 66 C-60.68 67.65 -59.36 69.3 -58 71 C-57.67 48.56 -57.34 26.12 -57 3 C-49.636875 2.505 -42.27375 2.01 -34.6875 1.5 C-32.38612061 1.34337891 -30.08474121 1.18675781 -27.71362305 1.02539062 C-25.854674 0.90205628 -23.995707 0.77899202 -22.13671875 0.65625 C-21.19977173 0.59147461 -20.26282471 0.52669922 -19.29748535 0.45996094 C-12.82234189 0.03706703 -6.51939366 0 0 0 Z M-82 80 C-88.49801971 88.84452683 -88.35125101 99.78406706 -88.625 110.375 C-88.66222168 111.63723389 -88.69944336 112.89946777 -88.73779297 114.19995117 C-89.21356877 131.84202495 -89.24716658 149.48447484 -88.6875 167.125 C-88.66510254 168.07802002 -88.64270508 169.03104004 -88.61962891 170.01293945 C-88.26355453 179.07027927 -86.69217071 186.86934231 -80.5 193.72265625 C-77.4501194 196.3198202 -73.92951272 196.34765989 -70.05859375 196.26953125 C-65.94023126 195.73031491 -63.33075782 193.70284472 -60.8125 190.48046875 C-53.35024025 177.88790541 -55.69151551 158.99578305 -55.73925781 145.04125977 C-55.74992687 141.33788485 -55.73934203 137.63500034 -55.7265625 133.93164062 C-54.32440645 106.39695946 -54.32440645 106.39695946 -63.3125 81.3359375 C-68.74432404 76.05171737 -75.90761048 75.56917125 -82 80 Z " fill="#7F7F7F" transform="translate(1076,215)"/>
<path d="M0 0 C1.97692999 -0.00962127 3.95371726 -0.04078007 5.93041992 -0.07226562 C22.67013742 -0.13945967 37.83125848 3.73045447 50.18237305 15.56445312 C57.17549306 23.83783346 60.48271061 33.52770118 61.4440918 44.24023438 C58.25724752 44.88933118 55.06950584 45.53391386 51.8815918 46.17773438 C50.98633789 46.36013672 50.09108398 46.54253906 49.16870117 46.73046875 C39.23037516 48.7326956 39.23037516 48.7326956 34.4440918 49.24023438 C32.60363116 47.39977374 32.9613112 44.28520262 32.6940918 41.80273438 C31.56171173 33.62628415 29.43299971 27.43767075 23.7565918 21.36523438 C16.48232461 16.69872335 10.36325136 14.88179696 1.7565918 14.80273438 C1.04398193 14.79266357 0.33137207 14.78259277 -0.40283203 14.7722168 C-5.46020421 14.85502826 -9.06176529 15.89790054 -13.5559082 18.24023438 C-16.78763152 21.6376871 -17.87714936 24.52995538 -18.2434082 29.11523438 C-17.98167305 34.11063666 -16.4758869 36.84150293 -12.94262695 40.32617188 C-4.18235266 47.35159643 6.30506459 51.61477101 16.4440918 56.24023438 C36.39203584 65.34353 57.79772103 75.58500576 66.4440918 97.24023438 C70.60978148 109.73730342 69.28122523 124.15543249 64.19018555 136.20898438 C57.2207164 150.0339804 46.18049837 156.57027753 31.85424805 161.38085938 C22.00980519 163.86170408 12.37437615 164.58723224 2.26367188 164.5559082 C0.14424852 164.55275322 -1.97376581 164.5762895 -4.09301758 164.6015625 C-23.47319733 164.69174795 -43.12064204 160.62277959 -57.77075195 147.21289062 C-67.27550915 137.42493768 -70.63288703 124.60238019 -70.5559082 111.24023438 C-66.60678361 110.35872657 -62.65580614 109.48613604 -58.70288086 108.62182617 C-57.35793766 108.32643235 -56.01352965 108.0285909 -54.66967773 107.72827148 C-52.73994516 107.29746403 -50.80810534 106.87612991 -48.8762207 106.45507812 C-47.13236084 106.07017212 -47.13236084 106.07017212 -45.35327148 105.67749023 C-42.5559082 105.24023438 -42.5559082 105.24023438 -40.5559082 106.24023438 C-40.59071289 107.06265625 -40.62551758 107.88507813 -40.66137695 108.73242188 C-40.90669799 118.84899428 -39.98749131 127.321108 -33.4152832 135.35742188 C-24.5789699 144.30511727 -14.9507041 147.54059027 -2.64575195 148.24414062 C3.22637243 148.23671695 8.82711856 147.06572648 13.4440918 143.24023438 C16.09123102 138.49363991 17.13262639 134.650149 16.4440918 129.24023438 C12.02987435 120.58836818 3.93996104 116.09875091 -4.4309082 111.86523438 C-5.35202393 111.38900635 -6.27313965 110.91277832 -7.22216797 110.42211914 C-12.22233658 107.85754297 -17.26345706 105.43097764 -22.38818359 103.12695312 C-39.70170859 95.32050697 -55.3458288 83.89656992 -63.5559082 66.24023438 C-67.24793855 55.61016042 -66.8677123 43.31342502 -62.8371582 32.83398438 C-60.8813256 28.87461593 -58.38984847 25.60047784 -55.5559082 22.24023438 C-54.8959082 21.25023437 -54.2359082 20.26023437 -53.5559082 19.24023438 C-52.8959082 19.24023438 -52.2359082 19.24023438 -51.5559082 19.24023438 C-51.5559082 18.58023437 -51.5559082 17.92023438 -51.5559082 17.24023438 C-36.75175658 4.73545099 -19.00281949 0.05569272 0 0 Z " fill="#808080" transform="translate(844.555908203125,269.759765625)"/>
<path d="M0 0 C8.24064484 -0.2088764 16.48017782 -0.36860936 24.72281837 -0.46630955 C28.5507034 -0.51321163 32.37677319 -0.57677372 36.20361328 -0.67895508 C39.89961823 -0.7770211 43.59388233 -0.83061017 47.2910881 -0.85389519 C48.69869782 -0.87047844 50.10621595 -0.90286737 51.5130806 -0.95157051 C62.48149089 -1.31604492 62.48149089 -1.31604492 66.09510803 1.81576538 C67.68187955 4.14241662 68.85787447 6.42912737 70 9 C70.68933997 10.20808855 71.38911867 11.41032002 72.10229492 12.60449219 C72.72209229 13.74047852 73.34188965 14.87646484 73.98046875 16.046875 C74.32000076 16.66596741 74.65953278 17.28505981 75.00935364 17.9229126 C76.07259342 19.86319537 77.13029981 21.80642105 78.1875 23.75 C79.25651284 25.70723852 80.32669653 27.66382873 81.39778137 29.61993408 C82.36258979 31.38316731 83.32433315 33.14807668 84.28588867 34.91308594 C85.38658294 36.8953076 86.52968943 38.85488468 87.72387695 40.78222656 C89 43 89 43 89 45 C93.76745532 40.5534311 97.58271738 35.50915497 101.5 30.3125 C102.19617432 29.39436523 102.89234863 28.47623047 103.60961914 27.53027344 C109.85599731 19.26056088 115.94053446 10.87775343 121.94702148 2.43261719 C123 1 123 1 124 0 C125.63472882 -0.08700342 127.27314055 -0.10701063 128.91015625 -0.09765625 C129.89951172 -0.09443359 130.88886719 -0.09121094 131.90820312 -0.08789062 C132.94912109 -0.07951172 133.99003906 -0.07113281 135.0625 -0.0625 C136.62967773 -0.05573242 136.62967773 -0.05573242 138.22851562 -0.04882812 C140.8190666 -0.03699913 143.40950559 -0.02051689 146 0 C143.47790131 4.59239285 140.82969106 8.69683099 137.5625 12.8125 C133.45102708 18.05466677 129.50643235 23.39804065 125.625 28.8125 C120.42308491 36.06055299 115.1260585 43.22894436 109.75390625 50.3515625 C109.31320801 50.94614258 108.87250977 51.54072266 108.41845703 52.15332031 C107.40233482 53.476203 106.33996661 54.76405539 105.24951172 56.02636719 C104.39703857 57.04585449 104.39703857 57.04585449 103.52734375 58.0859375 C102.9974585 58.69228027 102.46757324 59.29862305 101.92163086 59.92333984 C100.71620964 62.08193719 100.71620964 62.08193719 101.65332031 64.8894043 C102.97010633 67.93095083 104.39723221 70.79383543 106.01953125 73.68359375 C106.92469482 75.30442871 106.92469482 75.30442871 107.84814453 76.95800781 C108.49638184 78.10624023 109.14461914 79.25447266 109.8125 80.4375 C110.49113219 81.64788246 111.16934912 82.85849782 111.84716797 84.06933594 C113.56642103 87.1371872 115.29203099 90.20140225 117.02044678 93.26409912 C117.93716288 94.88864412 118.85265962 96.51387702 119.76806641 98.13916016 C122.96494373 103.81444134 126.17242441 109.48363941 129.38525391 115.14990234 C131.06539129 118.11541849 132.74216001 121.08281701 134.41796875 124.05078125 C135.26427856 125.54931641 135.26427856 125.54931641 136.12768555 127.078125 C137.23525562 129.0400054 138.34220757 131.00223491 139.44848633 132.96484375 C141.80536146 137.14127156 144.17096662 141.31061261 146.59375 145.44921875 C146.97426514 146.10204834 147.35478027 146.75487793 147.74682617 147.42749023 C148.72820765 149.10584367 149.71726359 150.7797034 150.70703125 152.453125 C152 155 152 155 152 158 C143.75935516 158.2088764 135.51982218 158.36860936 127.27718163 158.46630955 C123.4492966 158.51321163 119.62322681 158.57677372 115.79638672 158.67895508 C112.10038177 158.7770211 108.40611767 158.83061017 104.7089119 158.85389519 C103.30130218 158.87047844 101.89378405 158.90286737 100.4869194 158.95157051 C89.50798296 159.3163947 89.50798296 159.3163947 85.89102173 156.15896606 C84.31118993 153.83865206 83.13402467 151.56414714 82 149 C81.04407959 147.36949707 81.04407959 147.36949707 80.06884766 145.70605469 C79.249729 144.20413574 79.249729 144.20413574 78.4140625 142.671875 C77.48207031 140.97611328 77.48207031 140.97611328 76.53125 139.24609375 C75.9021875 138.09238281 75.273125 136.93867188 74.625 135.75 C70.13477623 127.52413363 65.50984819 119.46131116 60.48193359 111.55566406 C59 109 59 109 59 107 C58.34 107 57.68 107 57 107 C56.7225293 107.58450928 56.44505859 108.16901855 56.15917969 108.77124023 C55.05720179 110.89001787 53.85567458 112.73076193 52.453125 114.66015625 C51.94475098 115.36213135 51.43637695 116.06410645 50.91259766 116.78735352 C50.36394043 117.53815186 49.8152832 118.2889502 49.25 119.0625 C48.67942871 119.8474585 48.10885742 120.63241699 47.52099609 121.44116211 C45.68470472 123.96375178 43.84311263 126.48239066 42 129 C41.07525879 130.26457031 41.07525879 130.26457031 40.13183594 131.5546875 C38.29875458 134.05916019 36.46272309 136.56143167 34.625 139.0625 C34.0671582 139.82248291 33.50931641 140.58246582 32.93457031 141.36547852 C22.55684626 155.44315374 22.55684626 155.44315374 20 158 C18.43827255 158.08685603 16.87270656 158.10702219 15.30859375 158.09765625 C14.36435547 158.09443359 13.42011719 158.09121094 12.44726562 158.08789062 C11.45404297 158.07951172 10.46082031 158.07113281 9.4375 158.0625 C8.44041016 158.05798828 7.44332031 158.05347656 6.41601562 158.04882812 C3.94395151 158.03700007 1.47200482 158.02051849 -1 158 C0.43461224 153.80299609 2.49362181 150.83416336 5.25 147.375 C6.15809151 146.22019571 7.06422643 145.06385107 7.96875 143.90625 C8.45730469 143.28105469 8.94585938 142.65585937 9.44921875 142.01171875 C12.27641275 138.34420008 15.01021975 134.60801258 17.75 130.875 C18.33837646 130.07425049 18.92675293 129.27350098 19.53295898 128.44848633 C20.74359319 126.80011977 21.95379408 125.15143489 23.16357422 123.50244141 C26.20892497 119.35263481 29.26012536 115.20714189 32.3125 111.0625 C32.89241699 110.27496338 33.47233398 109.48742676 34.06982422 108.67602539 C38.67798293 102.4239782 43.32211677 96.20005158 48 90 C43.69713932 80.98520385 38.95327784 72.29894972 33.96337891 63.64868164 C29.13148322 55.26418232 24.42511281 46.81329228 19.74194336 38.3449707 C16.50142911 32.48915805 13.24098609 26.64633886 9.93359375 20.828125 C9.28374512 19.68118164 8.63389648 18.53423828 7.96435547 17.35253906 C6.71988634 15.15882275 5.47040418 12.96794082 4.21533203 10.78027344 C3.66087402 9.8009082 3.10641602 8.82154297 2.53515625 7.8125 C2.044104 6.95269531 1.55305176 6.09289062 1.04711914 5.20703125 C0 3 0 3 0 0 Z " fill="#808080" transform="translate(1353,273)"/>
<path d="M0 0 C0.99 0 1.98 0 3 0 C3 0.66 3 1.32 3 2 C3.66 2 4.32 2 5 2 C5 2.66 5 3.32 5 4 C5.66 4 6.32 4 7 4 C7 4.66 7 5.32 7 6 C7.66 6 8.32 6 9 6 C9 6.66 9 7.32 9 8 C9.66 8 10.32 8 11 8 C11 8.66 11 9.32 11 10 C11.66 10 12.32 10 13 10 C13 10.66 13 11.32 13 12 C13.66 12 14.32 12 15 12 C15 12.66 15 13.32 15 14 C13.9275 14.144375 12.855 14.28875 11.75 14.4375 C8.20814728 14.87954706 8.20814728 14.87954706 5.6875 15.6875 C5.130625 15.790625 4.57375 15.89375 4 16 C2 14 2 14 1.76953125 12.125 C1.78371094 11.42375 1.79789062 10.7225 1.8125 10 C1.81894531 9.29875 1.82539063 8.5975 1.83203125 7.875 C2 6 2 6 3 4 C2.01 4 1.02 4 0 4 C0 2.68 0 1.36 0 0 Z " fill="#70A7D8" transform="translate(416,224)"/>
<path d="M0 0 C0.99 0 1.98 0 3 0 C3 0.66 3 1.32 3 2 C3.66 2 4.32 2 5 2 C5 2.66 5 3.32 5 4 C5.66 4 6.32 4 7 4 C7 4.66 7 5.32 7 6 C7.66 6 8.32 6 9 6 C9 6.66 9 7.32 9 8 C9.66 8 10.32 8 11 8 C11 8.66 11 9.32 11 10 C11.66 10 12.32 10 13 10 C13 10.66 13 11.32 13 12 C13.66 12 14.32 12 15 12 C15 12.66 15 13.32 15 14 C13.9275 14.144375 12.855 14.28875 11.75 14.4375 C8.20814728 14.87954706 8.20814728 14.87954706 5.6875 15.6875 C5.130625 15.790625 4.57375 15.89375 4 16 C2 14 2 14 1.76953125 12.125 C1.78371094 11.42375 1.79789062 10.7225 1.8125 10 C1.81894531 9.29875 1.82539063 8.5975 1.83203125 7.875 C2 6 2 6 3 4 C2.01 4 1.02 4 0 4 C0 2.68 0 1.36 0 0 Z " fill="#70A7D8" transform="translate(400,208)"/>
<path d="M0 0 C0.99 0 1.98 0 3 0 C3 0.66 3 1.32 3 2 C3.66 2 4.32 2 5 2 C5 2.66 5 3.32 5 4 C5.66 4 6.32 4 7 4 C7 4.66 7 5.32 7 6 C7.66 6 8.32 6 9 6 C9 6.66 9 7.32 9 8 C9.66 8 10.32 8 11 8 C11 8.66 11 9.32 11 10 C11.66 10 12.32 10 13 10 C13 10.66 13 11.32 13 12 C13.66 12 14.32 12 15 12 C15 12.66 15 13.32 15 14 C13.9275 14.144375 12.855 14.28875 11.75 14.4375 C8.20814728 14.87954706 8.20814728 14.87954706 5.6875 15.6875 C5.130625 15.790625 4.57375 15.89375 4 16 C2 14 2 14 1.76953125 12.125 C1.78371094 11.42375 1.79789062 10.7225 1.8125 10 C1.81894531 9.29875 1.82539063 8.5975 1.83203125 7.875 C2 6 2 6 3 4 C2.01 4 1.02 4 0 4 C0 2.68 0 1.36 0 0 Z " fill="#70A7D8" transform="translate(384,192)"/>
<path d="M0 0 C0.99 0 1.98 0 3 0 C3 0.66 3 1.32 3 2 C3.66 2 4.32 2 5 2 C5 2.66 5 3.32 5 4 C5.66 4 6.32 4 7 4 C7 4.66 7 5.32 7 6 C7.66 6 8.32 6 9 6 C9 6.66 9 7.32 9 8 C9.66 8 10.32 8 11 8 C11 8.66 11 9.32 11 10 C11.66 10 12.32 10 13 10 C13 10.66 13 11.32 13 12 C13.66 12 14.32 12 15 12 C15 12.66 15 13.32 15 14 C13.9275 14.144375 12.855 14.28875 11.75 14.4375 C8.20814728 14.87954706 8.20814728 14.87954706 5.6875 15.6875 C5.130625 15.790625 4.57375 15.89375 4 16 C2 14 2 14 1.76953125 12.125 C1.78371094 11.42375 1.79789062 10.7225 1.8125 10 C1.81894531 9.29875 1.82539063 8.5975 1.83203125 7.875 C2 6 2 6 3 4 C2.01 4 1.02 4 0 4 C0 2.68 0 1.36 0 0 Z " fill="#70A7D8" transform="translate(368,176)"/>
<path d="M0 0 C0.99 0 1.98 0 3 0 C3 0.66 3 1.32 3 2 C3.66 2 4.32 2 5 2 C5 2.66 5 3.32 5 4 C5.66 4 6.32 4 7 4 C7 4.66 7 5.32 7 6 C7.66 6 8.32 6 9 6 C9 6.66 9 7.32 9 8 C9.66 8 10.32 8 11 8 C11 8.66 11 9.32 11 10 C11.66 10 12.32 10 13 10 C13 10.66 13 11.32 13 12 C13.66 12 14.32 12 15 12 C15 12.66 15 13.32 15 14 C13.9275 14.144375 12.855 14.28875 11.75 14.4375 C8.20814728 14.87954706 8.20814728 14.87954706 5.6875 15.6875 C5.130625 15.790625 4.57375 15.89375 4 16 C2 14 2 14 1.76953125 12.125 C1.78371094 11.42375 1.79789062 10.7225 1.8125 10 C1.81894531 9.29875 1.82539063 8.5975 1.83203125 7.875 C2 6 2 6 3 4 C2.01 4 1.02 4 0 4 C0 2.68 0 1.36 0 0 Z " fill="#70A7D8" transform="translate(352,160)"/>
<path d="M0 0 C3.20288575 0.85410287 5.49338805 1.52607269 7.9375 3.8125 C9.29660553 6.61065845 8.89216109 8.08020007 8 11 C5.36 11.33 2.72 11.66 0 12 C-0.33 10.68 -0.66 9.36 -1 8 C-1.66 8 -2.32 8 -3 8 C-3 7.34 -3 6.68 -3 6 C-2.34 6 -1.68 6 -1 6 C-1.33 5.01 -1.66 4.02 -2 3 C-1.34 2.01 -0.68 1.02 0 0 Z " fill="#5F9ED3" transform="translate(435,244)"/>
<path d="M0 0 C0 3.10551666 -0.5393715 4.35261084 -2 7 C-2.66 7 -3.32 7 -4 7 C-4.0825 7.61875 -4.165 8.2375 -4.25 8.875 C-5 11 -5 11 -7.0625 12.25 C-7.701875 12.4975 -8.34125 12.745 -9 13 C-9 14.32 -9 15.64 -9 17 C-8.01 17.33 -7.02 17.66 -6 18 C-5.34 18.33 -4.68 18.66 -4 19 C-3.66666667 21 -3.33333333 23 -3 25 C-2.34 25.33 -1.68 25.66 -1 26 C-4 26 -4 26 -6.625 23.6875 C-9.33482357 20.6211207 -9.87267836 18.81167545 -10.5 14.8125 C-9.78437433 9.35585426 -6.81652434 6.75931734 -3 3 C-2.42894531 2.42765625 -1.85789063 1.8553125 -1.26953125 1.265625 C-0.85058594 0.84796875 -0.43164062 0.4303125 0 0 Z " fill="#86AFD6" transform="translate(160,329)"/>
<path d="M0 0 C2.33722838 3.50584257 3.41233172 7.07550049 4.625 11.0625 C4.85445313 11.79533203 5.08390625 12.52816406 5.3203125 13.28320312 C7 18.72719029 7 18.72719029 7 21 C6.34 21 5.68 21 5 21 C5 21.66 5 22.32 5 23 C4.01 23 3.02 23 2 23 C2 21.68 2 20.36 2 19 C2.66 19 3.32 19 4 19 C3.67 17.68 3.34 16.36 3 15 C1.68 15 0.36 15 -1 15 C-2.35439668 12.29120665 -2.06501451 9.99066732 -2 7 C-1.34 7 -0.68 7 0 7 C0 4.69 0 2.38 0 0 Z " fill="#78A9D7" transform="translate(308,345)"/>
<path d="M0 0 C3.3 0 6.6 0 10 0 C10.66 1.32 11.32 2.64 12 4 C9.69 3.34 7.38 2.68 5 2 C5.3609375 3.13179688 5.721875 4.26359375 6.09375 5.4296875 C6.56264982 6.91141093 7.03139164 8.39318437 7.5 9.875 C7.73847656 10.62136719 7.97695313 11.36773437 8.22265625 12.13671875 C10 17.7734375 10 17.7734375 10 20 C9.34 20 8.68 20 8 20 C7.34 17.36 6.68 14.72 6 12 C4.68 12 3.36 12 2 12 C2 11.34 2 10.68 2 10 C2.66 10 3.32 10 4 10 C4 8.02 4 6.04 4 4 C2.68 4 1.36 4 0 4 C0 2.68 0 1.36 0 0 Z " fill="#80AAD7" transform="translate(288,290)"/>
<path d="M0 0 C1.15518918 0.90484792 2.29885406 1.8244206 3.4375 2.75 C4.07558594 3.26046875 4.71367187 3.7709375 5.37109375 4.296875 C7.28280762 6.29569333 7.78026706 7.25084131 8 10 C6.55297852 12.01464844 6.55297852 12.01464844 4.37890625 14.109375 C3.60869141 14.86347656 2.83847656 15.61757813 2.04492188 16.39453125 C1.22572266 17.17183594 0.40652344 17.94914062 -0.4375 18.75 C-1.66049805 19.93916016 -1.66049805 19.93916016 -2.90820312 21.15234375 C-4.92810392 23.11318312 -6.95872128 25.0614649 -9 27 C-9.33 26.01 -9.66 25.02 -10 24 C-9.67 23.34 -9.34 22.68 -9 22 C-8.01 22 -7.02 22 -6 22 C-6 21.34 -6 20.68 -6 20 C-5.34 20 -4.68 20 -4 20 C-4 19.34 -4 18.68 -4 18 C-3.34 18 -2.68 18 -2 18 C-2 17.34 -2 16.68 -2 16 C-1.34 16 -0.68 16 0 16 C0 15.34 0 14.68 0 14 C0.66 14 1.32 14 2 14 C2 13.34 2 12.68 2 12 C2.66 12 3.32 12 4 12 C4 11.34 4 10.68 4 10 C3.34 9.67 2.68 9.34 2 9 C2.99 8.01 3.98 7.02 5 6 C4.34 6 3.68 6 3 6 C3 5.34 3 4.68 3 4 C2.01 3.67 1.02 3.34 0 3 C0 2.01 0 1.02 0 0 Z " fill="#8EB4D7" transform="translate(438,452)"/>
<path d="M0 0 C0.33 0.66 0.66 1.32 1 2 C2.32 2.33 3.64 2.66 5 3 C4.34 5.97 3.68 8.94 3 12 C2.34 12 1.68 12 1 12 C1 11.34 1 10.68 1 10 C-1.64 10.33 -4.28 10.66 -7 11 C-7 10.34 -7 9.68 -7 9 C-7.99 8.67 -8.98 8.34 -10 8 C-10 7.34 -10 6.68 -10 6 C-10.66 6 -11.32 6 -12 6 C-12 5.34 -12 4.68 -12 4 C-6.06 5.485 -6.06 5.485 0 7 C0 4.69 0 2.38 0 0 Z " fill="#70A2D2" transform="translate(603,388)"/>
<path d="M0 0 C0.99 0.33 1.98 0.66 3 1 C0.88094537 3.17277714 -1.24472878 5.33826908 -3.375 7.5 C-3.97828125 8.12003906 -4.5815625 8.74007813 -5.203125 9.37890625 C-5.78320312 9.96542969 -6.36328125 10.55195313 -6.9609375 11.15625 C-7.49509277 11.70087891 -8.02924805 12.24550781 -8.57958984 12.80664062 C-10 14 -10 14 -12 14 C-12 13.34 -12 12.68 -12 12 C-13.32 11.34 -14.64 10.68 -16 10 C-16 9.34 -16 8.68 -16 8 C-13.69 8.66 -11.38 9.32 -9 10 C-9 9.34 -9 8.68 -9 8 C-8.01 8 -7.02 8 -6 8 C-5.67 6.68 -5.34 5.36 -5 4 C-4.34 4 -3.68 4 -3 4 C-3 3.34 -3 2.68 -3 2 C-2.01 2 -1.02 2 0 2 C0 1.34 0 0.68 0 0 Z " fill="#8DB4D9" transform="translate(576,328)"/>
<path d="M0 0 C0.66 0.33 1.32 0.66 2 1 C1.67 1.66 1.34 2.32 1 3 C1.7734375 2.7215625 1.7734375 2.7215625 2.5625 2.4375 C5.85908739 1.84580483 8.72245735 2.432733 12 3 C12 3.66 12 4.32 12 5 C12.66 5.33 13.32 5.66 14 6 C12.45016739 7.54983261 10.96331622 7.28132961 8.8125 7.375 C5.15859305 7.36332618 3.23565467 6.86972908 0.4375 4.5 C-0.366875 3.675 -1.17125 2.85 -2 2 C-1.34 1.34 -0.68 0.68 0 0 Z " fill="#71A8D9" transform="translate(346,541)"/>
<path d="M0 0 C0.99 0 1.98 0 3 0 C3 0.66 3 1.32 3 2 C3.99 2 4.98 2 6 2 C6 2.66 6 3.32 6 4 C9.303314 4.88935377 12.62294375 5.46274105 16 6 C16 5.34 16 4.68 16 4 C16.66 4 17.32 4 18 4 C18 3.34 18 2.68 18 2 C18.99 2 19.98 2 21 2 C21 2.66 21 3.32 21 4 C17.21024193 6.55228605 15.10390127 7.96057495 10.5 8.125 C6.06179941 6.69843552 3.1647045 4.38594524 0 1 C0 0.67 0 0.34 0 0 Z " fill="#8DB1D2" transform="translate(544,528)"/>
<path d="M0 0 C0 3.10551666 -0.5393715 4.35261084 -2 7 C-1.34 7 -0.68 7 0 7 C-0.33 8.65 -0.66 10.3 -1 12 C-1.99 11.01 -2.98 10.02 -4 9 C-4.99 9.495 -4.99 9.495 -6 10 C-6.33 9.01 -6.66 8.02 -7 7 C-4.69 4.69 -2.38 2.38 0 0 Z M0 5 C1.32 5 2.64 5 4 5 C4 5.66 4 6.32 4 7 C2.68 7 1.36 7 0 7 C0 6.34 0 5.68 0 5 Z " fill="#6EA6D7" transform="translate(176,313)"/>
<path d="M0 0 C0 3.10551666 -0.5393715 4.35261084 -2 7 C-1.34 7 -0.68 7 0 7 C-0.33 8.65 -0.66 10.3 -1 12 C-1.99 11.01 -2.98 10.02 -4 9 C-4.99 9.495 -4.99 9.495 -6 10 C-6.33 9.01 -6.66 8.02 -7 7 C-4.69 4.69 -2.38 2.38 0 0 Z M0 5 C1.32 5 2.64 5 4 5 C4 5.66 4 6.32 4 7 C2.68 7 1.36 7 0 7 C0 6.34 0 5.68 0 5 Z " fill="#6EA6D7" transform="translate(192,297)"/>
<path d="M0 0 C3.3 0 6.6 0 10 0 C10 0.66 10 1.32 10 2 C12.31 2 14.62 2 17 2 C17 2.66 17 3.32 17 4 C17.66 4 18.32 4 19 4 C19 4.66 19 5.32 19 6 C12.45150687 4.83795007 6.25461856 3.26616615 0 1 C0 0.67 0 0.34 0 0 Z " fill="#7FABD0" transform="translate(316,298)"/>
<path d="M0 0 C0 3.10551666 -0.5393715 4.35261084 -2 7 C-1.34 7 -0.68 7 0 7 C-0.33 8.65 -0.66 10.3 -1 12 C-1.99 11.01 -2.98 10.02 -4 9 C-4.99 9.495 -4.99 9.495 -6 10 C-6.33 9.01 -6.66 8.02 -7 7 C-4.69 4.69 -2.38 2.38 0 0 Z M0 5 C1.32 5 2.64 5 4 5 C4 5.66 4 6.32 4 7 C2.68 7 1.36 7 0 7 C0 6.34 0 5.68 0 5 Z " fill="#6EA6D7" transform="translate(208,281)"/>
<path d="M0 0 C0 3.10551666 -0.5393715 4.35261084 -2 7 C-1.34 7 -0.68 7 0 7 C-0.33 8.65 -0.66 10.3 -1 12 C-1.99 11.01 -2.98 10.02 -4 9 C-4.99 9.495 -4.99 9.495 -6 10 C-6.33 9.01 -6.66 8.02 -7 7 C-4.69 4.69 -2.38 2.38 0 0 Z M0 5 C1.32 5 2.64 5 4 5 C4 5.66 4 6.32 4 7 C2.68 7 1.36 7 0 7 C0 6.34 0 5.68 0 5 Z " fill="#6EA6D7" transform="translate(224,265)"/>
<path d="M0 0 C0 3.10551666 -0.5393715 4.35261084 -2 7 C-1.34 7 -0.68 7 0 7 C-0.33 8.65 -0.66 10.3 -1 12 C-1.99 11.01 -2.98 10.02 -4 9 C-4.99 9.495 -4.99 9.495 -6 10 C-6.33 9.01 -6.66 8.02 -7 7 C-4.69 4.69 -2.38 2.38 0 0 Z M0 5 C1.32 5 2.64 5 4 5 C4 5.66 4 6.32 4 7 C2.68 7 1.36 7 0 7 C0 6.34 0 5.68 0 5 Z " fill="#6EA6D7" transform="translate(240,249)"/>
<path d="M0 0 C0 3.10551666 -0.5393715 4.35261084 -2 7 C-1.34 7 -0.68 7 0 7 C-0.33 8.65 -0.66 10.3 -1 12 C-1.99 11.01 -2.98 10.02 -4 9 C-4.99 9.495 -4.99 9.495 -6 10 C-6.33 9.01 -6.66 8.02 -7 7 C-4.69 4.69 -2.38 2.38 0 0 Z M0 5 C1.32 5 2.64 5 4 5 C4 5.66 4 6.32 4 7 C2.68 7 1.36 7 0 7 C0 6.34 0 5.68 0 5 Z " fill="#6EA6D7" transform="translate(256,233)"/>
<path d="M0 0 C0 3.10551666 -0.5393715 4.35261084 -2 7 C-1.34 7 -0.68 7 0 7 C-0.33 8.65 -0.66 10.3 -1 12 C-1.99 11.01 -2.98 10.02 -4 9 C-4.99 9.495 -4.99 9.495 -6 10 C-6.33 9.01 -6.66 8.02 -7 7 C-4.69 4.69 -2.38 2.38 0 0 Z M0 5 C1.32 5 2.64 5 4 5 C4 5.66 4 6.32 4 7 C2.68 7 1.36 7 0 7 C0 6.34 0 5.68 0 5 Z " fill="#6EA6D7" transform="translate(272,217)"/>
<path d="M0 0 C0 3.10551666 -0.5393715 4.35261084 -2 7 C-1.34 7 -0.68 7 0 7 C-0.33 8.65 -0.66 10.3 -1 12 C-1.99 11.01 -2.98 10.02 -4 9 C-4.99 9.495 -4.99 9.495 -6 10 C-6.33 9.01 -6.66 8.02 -7 7 C-4.69 4.69 -2.38 2.38 0 0 Z M0 5 C1.32 5 2.64 5 4 5 C4 5.66 4 6.32 4 7 C2.68 7 1.36 7 0 7 C0 6.34 0 5.68 0 5 Z " fill="#6EA6D7" transform="translate(288,201)"/>
<path d="M0 0 C0 3.10551666 -0.5393715 4.35261084 -2 7 C-1.34 7 -0.68 7 0 7 C-0.33 8.65 -0.66 10.3 -1 12 C-1.99 11.01 -2.98 10.02 -4 9 C-4.99 9.495 -4.99 9.495 -6 10 C-6.33 9.01 -6.66 8.02 -7 7 C-4.69 4.69 -2.38 2.38 0 0 Z M0 5 C1.32 5 2.64 5 4 5 C4 5.66 4 6.32 4 7 C2.68 7 1.36 7 0 7 C0 6.34 0 5.68 0 5 Z " fill="#6EA6D7" transform="translate(304,185)"/>
<path d="M0 0 C0 3.10551666 -0.5393715 4.35261084 -2 7 C-1.34 7 -0.68 7 0 7 C-0.33 8.65 -0.66 10.3 -1 12 C-1.99 11.01 -2.98 10.02 -4 9 C-4.99 9.495 -4.99 9.495 -6 10 C-6.33 9.01 -6.66 8.02 -7 7 C-4.69 4.69 -2.38 2.38 0 0 Z M0 5 C1.32 5 2.64 5 4 5 C4 5.66 4 6.32 4 7 C2.68 7 1.36 7 0 7 C0 6.34 0 5.68 0 5 Z " fill="#6EA6D7" transform="translate(320,169)"/>
<path d="M0 0 C0.28875 0.598125 0.5775 1.19625 0.875 1.8125 C2.04742026 4.19327792 2.04742026 4.19327792 4 7 C2.68 7 1.36 7 0 7 C-0.66 8.32 -1.32 9.64 -2 11 C-3.32 9.35 -4.64 7.7 -6 6 C-4.02 4.02 -2.04 2.04 0 0 Z " fill="#73A7D7" transform="translate(168,321)"/>
<path d="M0 0 C0.28875 0.598125 0.5775 1.19625 0.875 1.8125 C2.04742026 4.19327792 2.04742026 4.19327792 4 7 C2.68 7 1.36 7 0 7 C-0.66 8.32 -1.32 9.64 -2 11 C-3.32 9.35 -4.64 7.7 -6 6 C-4.02 4.02 -2.04 2.04 0 0 Z " fill="#73A7D7" transform="translate(184,305)"/>
<path d="M0 0 C0.28875 0.598125 0.5775 1.19625 0.875 1.8125 C2.04742026 4.19327792 2.04742026 4.19327792 4 7 C2.68 7 1.36 7 0 7 C-0.66 8.32 -1.32 9.64 -2 11 C-3.32 9.35 -4.64 7.7 -6 6 C-4.02 4.02 -2.04 2.04 0 0 Z " fill="#73A7D7" transform="translate(200,289)"/>
<path d="M0 0 C0.28875 0.598125 0.5775 1.19625 0.875 1.8125 C2.04742026 4.19327792 2.04742026 4.19327792 4 7 C2.68 7 1.36 7 0 7 C-0.66 8.32 -1.32 9.64 -2 11 C-3.32 9.35 -4.64 7.7 -6 6 C-4.02 4.02 -2.04 2.04 0 0 Z " fill="#73A7D7" transform="translate(216,273)"/>
<path d="M0 0 C0.28875 0.598125 0.5775 1.19625 0.875 1.8125 C2.04742026 4.19327792 2.04742026 4.19327792 4 7 C2.68 7 1.36 7 0 7 C-0.66 8.32 -1.32 9.64 -2 11 C-3.32 9.35 -4.64 7.7 -6 6 C-4.02 4.02 -2.04 2.04 0 0 Z " fill="#73A7D7" transform="translate(232,257)"/>
<path d="M0 0 C0.28875 0.598125 0.5775 1.19625 0.875 1.8125 C2.04742026 4.19327792 2.04742026 4.19327792 4 7 C2.68 7 1.36 7 0 7 C-0.66 8.32 -1.32 9.64 -2 11 C-3.32 9.35 -4.64 7.7 -6 6 C-4.02 4.02 -2.04 2.04 0 0 Z " fill="#73A7D7" transform="translate(248,241)"/>
<path d="M0 0 C0.28875 0.598125 0.5775 1.19625 0.875 1.8125 C2.04742026 4.19327792 2.04742026 4.19327792 4 7 C2.68 7 1.36 7 0 7 C-0.66 8.32 -1.32 9.64 -2 11 C-3.32 9.35 -4.64 7.7 -6 6 C-4.02 4.02 -2.04 2.04 0 0 Z " fill="#73A7D7" transform="translate(264,225)"/>
<path d="M0 0 C0.28875 0.598125 0.5775 1.19625 0.875 1.8125 C2.04742026 4.19327792 2.04742026 4.19327792 4 7 C2.68 7 1.36 7 0 7 C-0.66 8.32 -1.32 9.64 -2 11 C-3.32 9.35 -4.64 7.7 -6 6 C-4.02 4.02 -2.04 2.04 0 0 Z " fill="#73A7D7" transform="translate(280,209)"/>
<path d="M0 0 C0.28875 0.598125 0.5775 1.19625 0.875 1.8125 C2.04742026 4.19327792 2.04742026 4.19327792 4 7 C2.68 7 1.36 7 0 7 C-0.66 8.32 -1.32 9.64 -2 11 C-3.32 9.35 -4.64 7.7 -6 6 C-4.02 4.02 -2.04 2.04 0 0 Z " fill="#73A7D7" transform="translate(296,193)"/>
<path d="M0 0 C0.28875 0.598125 0.5775 1.19625 0.875 1.8125 C2.04742026 4.19327792 2.04742026 4.19327792 4 7 C2.68 7 1.36 7 0 7 C-0.66 8.32 -1.32 9.64 -2 11 C-3.32 9.35 -4.64 7.7 -6 6 C-4.02 4.02 -2.04 2.04 0 0 Z " fill="#73A7D7" transform="translate(312,177)"/>
<path d="M0 0 C0.28875 0.598125 0.5775 1.19625 0.875 1.8125 C2.04742026 4.19327792 2.04742026 4.19327792 4 7 C2.68 7 1.36 7 0 7 C-0.66 8.32 -1.32 9.64 -2 11 C-3.32 9.35 -4.64 7.7 -6 6 C-4.02 4.02 -2.04 2.04 0 0 Z " fill="#73A7D7" transform="translate(328,161)"/>
<path d="M0 0 C0.66 0.66 1.32 1.32 2 2 C-2.95 6.95 -7.9 11.9 -13 17 C-13.33 16.01 -13.66 15.02 -14 14 C-13.67 13.34 -13.34 12.68 -13 12 C-12.01 12 -11.02 12 -10 12 C-10 11.34 -10 10.68 -10 10 C-9.34 10 -8.68 10 -8 10 C-8 9.34 -8 8.68 -8 8 C-7.34 8 -6.68 8 -6 8 C-6 7.34 -6 6.68 -6 6 C-5.34 6 -4.68 6 -4 6 C-4 5.34 -4 4.68 -4 4 C-3.34 4 -2.68 4 -2 4 C-2 3.34 -2 2.68 -2 2 C-1.34 2 -0.68 2 0 2 C0 1.34 0 0.68 0 0 Z " fill="#8EB5D8" transform="translate(378,526)"/>
<path d="M0 0 C0.66 0.66 1.32 1.32 2 2 C-2.95 6.95 -7.9 11.9 -13 17 C-13.33 16.01 -13.66 15.02 -14 14 C-13.67 13.34 -13.34 12.68 -13 12 C-12.01 12 -11.02 12 -10 12 C-10 11.34 -10 10.68 -10 10 C-9.34 10 -8.68 10 -8 10 C-8 9.34 -8 8.68 -8 8 C-7.34 8 -6.68 8 -6 8 C-6 7.34 -6 6.68 -6 6 C-5.34 6 -4.68 6 -4 6 C-4 5.34 -4 4.68 -4 4 C-3.34 4 -2.68 4 -2 4 C-2 3.34 -2 2.68 -2 2 C-1.34 2 -0.68 2 0 2 C0 1.34 0 0.68 0 0 Z " fill="#8EB5D8" transform="translate(394,510)"/>
<path d="M0 0 C0.66 0.66 1.32 1.32 2 2 C-2.95 6.95 -7.9 11.9 -13 17 C-13.33 16.01 -13.66 15.02 -14 14 C-13.67 13.34 -13.34 12.68 -13 12 C-12.01 12 -11.02 12 -10 12 C-10 11.34 -10 10.68 -10 10 C-9.34 10 -8.68 10 -8 10 C-8 9.34 -8 8.68 -8 8 C-7.34 8 -6.68 8 -6 8 C-6 7.34 -6 6.68 -6 6 C-5.34 6 -4.68 6 -4 6 C-4 5.34 -4 4.68 -4 4 C-3.34 4 -2.68 4 -2 4 C-2 3.34 -2 2.68 -2 2 C-1.34 2 -0.68 2 0 2 C0 1.34 0 0.68 0 0 Z " fill="#8EB5D8" transform="translate(410,494)"/>
<path d="M0 0 C0.66 0.66 1.32 1.32 2 2 C-2.95 6.95 -7.9 11.9 -13 17 C-13.33 16.01 -13.66 15.02 -14 14 C-13.67 13.34 -13.34 12.68 -13 12 C-12.01 12 -11.02 12 -10 12 C-10 11.34 -10 10.68 -10 10 C-9.34 10 -8.68 10 -8 10 C-8 9.34 -8 8.68 -8 8 C-7.34 8 -6.68 8 -6 8 C-6 7.34 -6 6.68 -6 6 C-5.34 6 -4.68 6 -4 6 C-4 5.34 -4 4.68 -4 4 C-3.34 4 -2.68 4 -2 4 C-2 3.34 -2 2.68 -2 2 C-1.34 2 -0.68 2 0 2 C0 1.34 0 0.68 0 0 Z " fill="#8EB5D8" transform="translate(426,478)"/>
<path d="M0 0 C0 3.10551666 -0.5393715 4.35261084 -2 7 C-2.66 7 -3.32 7 -4 7 C-4.0825 7.61875 -4.165 8.2375 -4.25 8.875 C-5 11 -5 11 -7.0625 12.25 C-7.701875 12.4975 -8.34125 12.745 -9 13 C-8.51286902 8.58489226 -7.14946803 6.69553355 -3.9375 3.6875 C-3.20402344 2.99011719 -2.47054687 2.29273438 -1.71484375 1.57421875 C-1.14894531 1.05472656 -0.58304688 0.53523438 0 0 Z " fill="#7EA9D0" transform="translate(160,329)"/>
<path d="M0 0 C0.33 1.32 0.66 2.64 1 4 C0.401875 4.226875 -0.19625 4.45375 -0.8125 4.6875 C-3.56085774 6.33651464 -4.39211876 8.27359268 -6 11 C-6.99 11.33 -7.98 11.66 -9 12 C-9 12.66 -9 13.32 -9 14 C-9.99 14 -10.98 14 -12 14 C-10.60807296 10.86989542 -8.97357774 8.67663308 -6.5625 6.25 C-5.66724609 5.32960938 -5.66724609 5.32960938 -4.75390625 4.390625 C-3 3 -3 3 0 3 C0 2.01 0 1.02 0 0 Z " fill="#7FADD4" transform="translate(365,312)"/>
<path d="M0 0 C6.75 5.625 6.75 5.625 9 9 C8.236875 8.814375 7.47375 8.62875 6.6875 8.4375 C3.91032625 7.77180827 3.91032625 7.77180827 1 9 C0.67 6.03 0.34 3.06 0 0 Z " fill="#79A8D3" transform="translate(425,439)"/>
<path d="M0 0 C6.75 5.625 6.75 5.625 9 9 C8.236875 8.814375 7.47375 8.62875 6.6875 8.4375 C3.91032625 7.77180827 3.91032625 7.77180827 1 9 C0.67 6.03 0.34 3.06 0 0 Z " fill="#79A8D3" transform="translate(409,423)"/>
<path d="M0 0 C6.75 5.625 6.75 5.625 9 9 C8.236875 8.814375 7.47375 8.62875 6.6875 8.4375 C3.91032625 7.77180827 3.91032625 7.77180827 1 9 C0.67 6.03 0.34 3.06 0 0 Z " fill="#79A8D3" transform="translate(393,407)"/>
<path d="M0 0 C6.75 5.625 6.75 5.625 9 9 C8.236875 8.814375 7.47375 8.62875 6.6875 8.4375 C3.91032625 7.77180827 3.91032625 7.77180827 1 9 C0.67 6.03 0.34 3.06 0 0 Z " fill="#79A8D3" transform="translate(377,391)"/>
<path d="M0 0 C6.75 5.625 6.75 5.625 9 9 C8.236875 8.814375 7.47375 8.62875 6.6875 8.4375 C3.91032625 7.77180827 3.91032625 7.77180827 1 9 C0.67 6.03 0.34 3.06 0 0 Z " fill="#79A8D3" transform="translate(361,375)"/>
<path d="M0 0 C6.75 5.625 6.75 5.625 9 9 C8.236875 8.814375 7.47375 8.62875 6.6875 8.4375 C3.91032625 7.77180827 3.91032625 7.77180827 1 9 C0.67 6.03 0.34 3.06 0 0 Z " fill="#79A8D3" transform="translate(345,359)"/>
<path d="M0 0 C1.15518918 0.90484792 2.29885406 1.8244206 3.4375 2.75 C4.07558594 3.26046875 4.71367187 3.7709375 5.37109375 4.296875 C7.18810554 6.19667629 7.60423197 7.43586908 8 10 C6.68 10.99 5.36 11.98 4 13 C4 12.01 4 11.02 4 10 C3.34 9.67 2.68 9.34 2 9 C2.99 8.01 3.98 7.02 5 6 C4.34 6 3.68 6 3 6 C3 5.34 3 4.68 3 4 C2.01 3.67 1.02 3.34 0 3 C0 2.01 0 1.02 0 0 Z " fill="#82ACD4" transform="translate(438,452)"/>
<path d="M0 0 C0.66 0.33 1.32 0.66 2 1 C1.34 3.31 0.68 5.62 0 8 C-1.32 8.33 -2.64 8.66 -4 9 C-4.8125 7.3125 -4.8125 7.3125 -5 5 C-2.5625 2.25 -2.5625 2.25 0 0 Z " fill="#81B0DB" transform="translate(456,221)"/>
<path d="M0 0 C2 1 2 1 2.88671875 3.14453125 C3.28310547 4.46517578 3.28310547 4.46517578 3.6875 5.8125 C3.95949219 6.68519531 4.23148437 7.55789063 4.51171875 8.45703125 C5.01319861 11.06873834 4.86233704 12.51716384 4 15 C3.34 14.67 2.68 14.34 2 14 C1.53193355 11.66255706 1.17330206 9.30260921 0.875 6.9375 C0.70742188 5.64714844 0.53984375 4.35679687 0.3671875 3.02734375 C0.24601562 2.02832031 0.12484375 1.02929688 0 0 Z " fill="#84ADD3" transform="translate(299,317)"/>
<path d="M0 0 C0.66 0 1.32 0 2 0 C2 0.66 2 1.32 2 2 C2.66 2 3.32 2 4 2 C4.33 6.62 4.66 11.24 5 16 C3.22714569 12.45429137 2.28770187 9.56675327 1.375 5.75 C0.98441406 4.13351562 0.98441406 4.13351562 0.5859375 2.484375 C0.39257812 1.66453125 0.19921875 0.8446875 0 0 Z " fill="#81ADD7" transform="translate(586,332)"/>
<path d="M0 0 C0.99 0 1.98 0 3 0 C3 0.66 3 1.32 3 2 C3.66 2 4.32 2 5 2 C5 2.66 5 3.32 5 4 C5.66 4 6.32 4 7 4 C7 4.66 7 5.32 7 6 C7.66 6 8.32 6 9 6 C8.67 6.66 8.34 7.32 8 8 C5.525 7.01 5.525 7.01 3 6 C3 5.34 3 4.68 3 4 C2.01 4 1.02 4 0 4 C0 2.68 0 1.36 0 0 Z " fill="#7DAFDB" transform="translate(416,224)"/>
<path d="M0 0 C0.99 0 1.98 0 3 0 C3 0.66 3 1.32 3 2 C3.66 2 4.32 2 5 2 C5 2.66 5 3.32 5 4 C5.66 4 6.32 4 7 4 C7 4.66 7 5.32 7 6 C7.66 6 8.32 6 9 6 C8.67 6.66 8.34 7.32 8 8 C5.525 7.01 5.525 7.01 3 6 C3 5.34 3 4.68 3 4 C2.01 4 1.02 4 0 4 C0 2.68 0 1.36 0 0 Z " fill="#7DAFDB" transform="translate(400,208)"/>
<path d="M0 0 C0.99 0 1.98 0 3 0 C3 0.66 3 1.32 3 2 C3.66 2 4.32 2 5 2 C5 2.66 5 3.32 5 4 C5.66 4 6.32 4 7 4 C7 4.66 7 5.32 7 6 C7.66 6 8.32 6 9 6 C8.67 6.66 8.34 7.32 8 8 C5.525 7.01 5.525 7.01 3 6 C3 5.34 3 4.68 3 4 C2.01 4 1.02 4 0 4 C0 2.68 0 1.36 0 0 Z " fill="#7DAFDB" transform="translate(384,192)"/>
<path d="M0 0 C0.99 0 1.98 0 3 0 C3 0.66 3 1.32 3 2 C3.66 2 4.32 2 5 2 C5 2.66 5 3.32 5 4 C5.66 4 6.32 4 7 4 C7 4.66 7 5.32 7 6 C7.66 6 8.32 6 9 6 C8.67 6.66 8.34 7.32 8 8 C5.525 7.01 5.525 7.01 3 6 C3 5.34 3 4.68 3 4 C2.01 4 1.02 4 0 4 C0 2.68 0 1.36 0 0 Z " fill="#7DAFDB" transform="translate(368,176)"/>
<path d="M0 0 C0.99 0 1.98 0 3 0 C3 0.66 3 1.32 3 2 C3.66 2 4.32 2 5 2 C5 2.66 5 3.32 5 4 C5.66 4 6.32 4 7 4 C7 4.66 7 5.32 7 6 C7.66 6 8.32 6 9 6 C8.67 6.66 8.34 7.32 8 8 C5.525 7.01 5.525 7.01 3 6 C3 5.34 3 4.68 3 4 C2.01 4 1.02 4 0 4 C0 2.68 0 1.36 0 0 Z " fill="#7DAFDB" transform="translate(352,160)"/>
<path d="M0 0 C0.66 0.33 1.32 0.66 2 1 C1.67 1.66 1.34 2.32 1 3 C2.32 2.67 3.64 2.34 5 2 C5.99 3.32 6.98 4.64 8 6 C6.375 6.8125 6.375 6.8125 4 7 C1.75390165 5.53181864 -0.02378677 3.84147142 -2 2 C-1.34 1.34 -0.68 0.68 0 0 Z " fill="#83AFD5" transform="translate(346,541)"/>
<path d="M0 0 C0.99 0 1.98 0 3 0 C3 1.32 3 2.64 3 4 C2.443125 4.2475 1.88625 4.495 1.3125 4.75 C-1.39971127 6.21606015 -3.63587365 8.02989471 -6 10 C-4.34406255 6.41213553 -2.37162309 3.16216412 0 0 Z " fill="#8A8A8A" transform="translate(1464,290)"/>
<path d="M0 0 C0.99 0 1.98 0 3 0 C3.66 2.31 4.32 4.62 5 7 C4.01 7.495 4.01 7.495 3 8 C3 7.34 3 6.68 3 6 C2.34 6 1.68 6 1 6 C1 5.34 1 4.68 1 4 C0.34 4 -0.32 4 -1 4 C-0.67 2.68 -0.34 1.36 0 0 Z " fill="#78ADDB" transform="translate(555,328)"/>
<path d="M0 0 C0.33 0.66 0.66 1.32 1 2 C1.66 2 2.32 2 3 2 C3 2.66 3 3.32 3 4 C2.34 4 1.68 4 1 4 C0.67 5.32 0.34 6.64 0 8 C-0.33 7.34 -0.66 6.68 -1 6 C-1.99 6.495 -1.99 6.495 -3 7 C-3.33 6.01 -3.66 5.02 -4 4 C-2.68 2.68 -1.36 1.36 0 0 Z " fill="#73A9D9" transform="translate(333,156)"/>
<path d="M0 0 C0.33 0.66 0.66 1.32 1 2 C3.02463255 2.65213292 3.02463255 2.65213292 5 3 C4.01 4.98 3.02 6.96 2 9 C0.68 9 -0.64 9 -2 9 C-2 8.34 -2 7.68 -2 7 C-1.34 7 -0.68 7 0 7 C0 4.69 0 2.38 0 0 Z " fill="#87AFD5" transform="translate(603,388)"/>
<path d="M0 0 C1.43836751 0.11458693 2.87570966 0.24209116 4.3125 0.375 C5.51326172 0.47941406 5.51326172 0.47941406 6.73828125 0.5859375 C9 1 9 1 12 3 C8.37 3 4.74 3 1 3 C0.67 2.01 0.34 1.02 0 0 Z " fill="#83ABCE" transform="translate(537,377)"/>
<path d="M0 0 C2.97 0 5.94 0 9 0 C9 0.66 9 1.32 9 2 C9.99 2.33 10.98 2.66 12 3 C9.18185434 4.40907283 7.82722796 3.50872691 4.875 2.5625 C3.96492188 2.27503906 3.05484375 1.98757813 2.1171875 1.69140625 C1.41851562 1.46324219 0.71984375 1.23507812 0 1 C0 0.67 0 0.34 0 0 Z " fill="#83AED5" transform="translate(343,306)"/>
<path d="M0 0 C0 0.66 0 1.32 0 2 C0.66 2 1.32 2 2 2 C2 2.66 2 3.32 2 4 C-1.3 3.34 -4.6 2.68 -8 2 C-4.77208445 -0.1519437 -3.71599191 -0.20086443 0 0 Z " fill="#82B0DB" transform="translate(333,300)"/>
<path d="M0 0 C2.50037734 2.17424117 3.43628586 3.73045798 4 7 C2.68 7 1.36 7 0 7 C-1.125 2.25 -1.125 2.25 0 0 Z " fill="#898989" transform="translate(1501,423)"/>
<path d="M0 0 C1.32 1.32 2.64 2.64 4 4 C2.02 4 0.04 4 -2 4 C-2 4.66 -2 5.32 -2 6 C-2.99 5.67 -3.98 5.34 -5 5 C-3.35 3.35 -1.7 1.7 0 0 Z " fill="#82A7C7" transform="translate(332,346)"/>
<path d="M0 0 C1.98 1.65 3.96 3.3 6 5 C4.02 5.99 4.02 5.99 2 7 C2 6.34 2 5.68 2 5 C1.01 4.67 0.02 4.34 -1 4 C-0.67 2.68 -0.34 1.36 0 0 Z " fill="#7CA8D3" transform="translate(418,432)"/>
<path d="M0 0 C1.98 1.65 3.96 3.3 6 5 C4.02 5.99 4.02 5.99 2 7 C2 6.34 2 5.68 2 5 C1.01 4.67 0.02 4.34 -1 4 C-0.67 2.68 -0.34 1.36 0 0 Z " fill="#7CA8D3" transform="translate(402,416)"/>
<path d="M0 0 C1.98 1.65 3.96 3.3 6 5 C4.02 5.99 4.02 5.99 2 7 C2 6.34 2 5.68 2 5 C1.01 4.67 0.02 4.34 -1 4 C-0.67 2.68 -0.34 1.36 0 0 Z " fill="#7CA8D3" transform="translate(386,400)"/>
<path d="M0 0 C4.455 0.99 4.455 0.99 9 2 C7 4 7 4 4.375 4.125 C3.59125 4.08375 2.8075 4.0425 2 4 C2 3.34 2 2.68 2 2 C1.34 2 0.68 2 0 2 C0 1.34 0 0.68 0 0 Z " fill="#86B0D5" transform="translate(591,392)"/>
<path d="M0 0 C1.98 1.65 3.96 3.3 6 5 C4.02 5.99 4.02 5.99 2 7 C2 6.34 2 5.68 2 5 C1.01 4.67 0.02 4.34 -1 4 C-0.67 2.68 -0.34 1.36 0 0 Z " fill="#7CA8D3" transform="translate(370,384)"/>
<path d="M0 0 C4.95 0.99 4.95 0.99 10 2 C9.67 2.66 9.34 3.32 9 4 C6.36 3.67 3.72 3.34 1 3 C0.67 2.01 0.34 1.02 0 0 Z " fill="#89AFD1" transform="translate(566,385)"/>
<path d="M0 0 C1.98 1.65 3.96 3.3 6 5 C4.02 5.99 4.02 5.99 2 7 C2 6.34 2 5.68 2 5 C1.01 4.67 0.02 4.34 -1 4 C-0.67 2.68 -0.34 1.36 0 0 Z " fill="#7CA8D3" transform="translate(354,368)"/>
<path d="M0 0 C1.98 1.65 3.96 3.3 6 5 C4.02 5.99 4.02 5.99 2 7 C2 6.34 2 5.68 2 5 C1.01 4.67 0.02 4.34 -1 4 C-0.67 2.68 -0.34 1.36 0 0 Z " fill="#7CA8D3" transform="translate(338,352)"/>
<path d="M0 0 C0.99 0.33 1.98 0.66 3 1 C-0.465 3.97 -0.465 3.97 -4 7 C-3.67 5.35 -3.34 3.7 -3 2 C-2.01 2 -1.02 2 0 2 C0 1.34 0 0.68 0 0 Z " fill="#97B9D6" transform="translate(576,328)"/>
<path d="M0 0 C0.66 0 1.32 0 2 0 C4 2 4 2 5 4 C2.69 4 0.38 4 -2 4 C-1.34 2.68 -0.68 1.36 0 0 Z " fill="#5A9CD4" transform="translate(363,316)"/>
<path d="M0 0 C1.32 0 2.64 0 4 0 C4 1.32 4 2.64 4 4 C2.68 4 1.36 4 0 4 C-0.33 3.01 -0.66 2.02 -1 1 C-0.67 0.67 -0.34 0.34 0 0 Z " fill="#609ACD" transform="translate(442,418)"/>
<path d="M0 0 C1.32 0 2.64 0 4 0 C4 1.32 4 2.64 4 4 C2.68 4 1.36 4 0 4 C-0.33 3.01 -0.66 2.02 -1 1 C-0.67 0.67 -0.34 0.34 0 0 Z " fill="#609ACD" transform="translate(426,402)"/>
<path d="M0 0 C1.32 0 2.64 0 4 0 C4 1.32 4 2.64 4 4 C2.68 4 1.36 4 0 4 C-0.33 3.01 -0.66 2.02 -1 1 C-0.67 0.67 -0.34 0.34 0 0 Z " fill="#609ACD" transform="translate(410,386)"/>
<path d="M0 0 C1.32 0 2.64 0 4 0 C4 1.32 4 2.64 4 4 C2.68 4 1.36 4 0 4 C-0.33 3.01 -0.66 2.02 -1 1 C-0.67 0.67 -0.34 0.34 0 0 Z " fill="#609ACD" transform="translate(394,370)"/>
<path d="M0 0 C1.32 0 2.64 0 4 0 C4 1.32 4 2.64 4 4 C2.68 4 1.36 4 0 4 C-0.33 3.01 -0.66 2.02 -1 1 C-0.67 0.67 -0.34 0.34 0 0 Z " fill="#609ACD" transform="translate(378,354)"/>
<path d="M0 0 C1.32 0 2.64 0 4 0 C4 1.32 4 2.64 4 4 C2.68 4 1.36 4 0 4 C-0.33 3.01 -0.66 2.02 -1 1 C-0.67 0.67 -0.34 0.34 0 0 Z " fill="#609ACD" transform="translate(362,338)"/>
<path d="M0 0 C0.33 0.99 0.66 1.98 1 3 C0.34 3 -0.32 3 -1 3 C-0.67 4.65 -0.34 6.3 0 8 C-1.32 6.68 -2.64 5.36 -4 4 C-2.68 2.68 -1.36 1.36 0 0 Z " fill="#82A7CB" transform="translate(351,327)"/>
<path d="M0 0 C0 3.10551666 -0.5393715 4.35261084 -2 7 C-3.32 6.67 -4.64 6.34 -6 6 C-4.02 4.02 -2.04 2.04 0 0 Z " fill="#82A8CB" transform="translate(176,313)"/>
<path d="M0 0 C0 3.10551666 -0.5393715 4.35261084 -2 7 C-3.32 6.67 -4.64 6.34 -6 6 C-4.02 4.02 -2.04 2.04 0 0 Z " fill="#82A8CB" transform="translate(192,297)"/>
<path d="M0 0 C0 3.10551666 -0.5393715 4.35261084 -2 7 C-3.32 6.67 -4.64 6.34 -6 6 C-4.02 4.02 -2.04 2.04 0 0 Z " fill="#82A8CB" transform="translate(208,281)"/>
<path d="M0 0 C0 3.10551666 -0.5393715 4.35261084 -2 7 C-3.32 6.67 -4.64 6.34 -6 6 C-4.02 4.02 -2.04 2.04 0 0 Z " fill="#82A8CB" transform="translate(224,265)"/>
<path d="M0 0 C0 3.10551666 -0.5393715 4.35261084 -2 7 C-3.32 6.67 -4.64 6.34 -6 6 C-4.02 4.02 -2.04 2.04 0 0 Z " fill="#82A8CB" transform="translate(240,249)"/>
<path d="M0 0 C0 3.10551666 -0.5393715 4.35261084 -2 7 C-3.32 6.67 -4.64 6.34 -6 6 C-4.02 4.02 -2.04 2.04 0 0 Z " fill="#82A8CB" transform="translate(256,233)"/>
<path d="M0 0 C0 3.10551666 -0.5393715 4.35261084 -2 7 C-3.32 6.67 -4.64 6.34 -6 6 C-4.02 4.02 -2.04 2.04 0 0 Z " fill="#82A8CB" transform="translate(272,217)"/>
<path d="M0 0 C0 3.10551666 -0.5393715 4.35261084 -2 7 C-3.32 6.67 -4.64 6.34 -6 6 C-4.02 4.02 -2.04 2.04 0 0 Z " fill="#82A8CB" transform="translate(288,201)"/>
<path d="M0 0 C0 3.10551666 -0.5393715 4.35261084 -2 7 C-3.32 6.67 -4.64 6.34 -6 6 C-4.02 4.02 -2.04 2.04 0 0 Z " fill="#82A8CB" transform="translate(304,185)"/>
<path d="M0 0 C0 3.10551666 -0.5393715 4.35261084 -2 7 C-3.32 6.67 -4.64 6.34 -6 6 C-4.02 4.02 -2.04 2.04 0 0 Z " fill="#82A8CB" transform="translate(320,169)"/>
</svg>
